<?xml version="1.0" encoding="utf-8" standalone="no"?>
<!DOCTYPE svg PUBLIC "-//W3C//DTD SVG 1.1//EN"
  "http://www.w3.org/Graphics/SVG/1.1/DTD/svg11.dtd">
<svg xmlns:xlink="http://www.w3.org/1999/xlink" width="1008pt" height="432pt" viewBox="0 0 1008 432" xmlns="http://www.w3.org/2000/svg" version="1.1">
 <metadata>
  <rdf:RDF xmlns:dc="http://purl.org/dc/elements/1.1/" xmlns:cc="http://creativecommons.org/ns#" xmlns:rdf="http://www.w3.org/1999/02/22-rdf-syntax-ns#">
   <cc:Work>
    <dc:type rdf:resource="http://purl.org/dc/dcmitype/StillImage"/>
    <dc:date>2025-07-21T23:06:50.338291</dc:date>
    <dc:format>image/svg+xml</dc:format>
    <dc:creator>
     <cc:Agent>
      <dc:title>Matplotlib v3.10.3, https://matplotlib.org/</dc:title>
     </cc:Agent>
    </dc:creator>
   </cc:Work>
  </rdf:RDF>
 </metadata>
 <defs>
  <style type="text/css">*{stroke-linejoin: round; stroke-linecap: butt}</style>
 </defs>
 <g id="figure_1">
  <g id="patch_1">
   <path d="M 0 432 
L 1008 432 
L 1008 0 
L 0 0 
z
" style="fill: #ffffff"/>
  </g>
  <g id="axes_1">
   <g id="patch_2">
    <path d="M 58.43 360.925494 
L 997.2 360.925494 
L 997.2 34.305 
L 58.43 34.305 
z
" style="fill: #ffffff"/>
   </g>
   <g id="FillBetweenPolyCollection_1">
    <defs>
     <path id="m798e31716b" d="M 101.101364 -85.920893 
L 101.101364 -87.616504 
L 109.627385 -87.679568 
L 117.328308 -88.017091 
L 125.85433 -87.4886 
L 134.105319 -87.085645 
L 142.63134 -86.562779 
L 150.882329 -86.28447 
L 159.408351 -86.228809 
L 167.934373 -86.280325 
L 176.185362 -86.378622 
L 184.711383 -86.354048 
L 192.962372 -86.493794 
L 201.488394 -87.055741 
L 210.014416 -87.176243 
L 217.715338 -88.308131 
L 226.24136 -89.345276 
L 234.492349 -88.352246 
L 243.018371 -87.10637 
L 251.269359 -86.747529 
L 259.795381 -86.428658 
L 268.321403 -86.33125 
L 276.572392 -86.468924 
L 285.098413 -86.890236 
L 293.349402 -88.6045 
L 301.875424 -97.153616 
L 310.401446 -108.110695 
L 318.102369 -128.937672 
L 326.62839 -158.805542 
L 334.879379 -162.738283 
L 343.405401 -110.859439 
L 351.65639 -92.15057 
L 360.182411 -87.994294 
L 368.708433 -87.222134 
L 376.959422 -87.221246 
L 385.485444 -87.768094 
L 393.736432 -89.287245 
L 402.262454 -98.94101 
L 410.788476 -106.65283 
L 418.764432 -103.705421 
L 427.290453 -98.64316 
L 435.541442 -92.870324 
L 444.067464 -88.462681 
L 452.318453 -87.151077 
L 460.844474 -86.578767 
L 469.370496 -86.472181 
L 477.621485 -86.414447 
L 486.147507 -86.475142 
L 494.398495 -86.54087 
L 502.924517 -88.122197 
L 511.450539 -91.940062 
L 519.151462 -96.848956 
L 527.677484 -100.596652 
L 535.928472 -93.587413 
L 544.454494 -88.637069 
L 552.705483 -86.782762 
L 561.231505 -86.419184 
L 569.757526 -86.343389 
L 578.008515 -86.331546 
L 586.534537 -86.625251 
L 594.785526 -87.340564 
L 603.311547 -88.87067 
L 611.837569 -91.6582 
L 619.538492 -108.85828 
L 628.064514 -126.496252 
L 636.315502 -117.409763 
L 644.841524 -94.301542 
L 653.092513 -89.191022 
L 661.618535 -87.481495 
L 670.144556 -86.97136 
L 678.395545 -87.112883 
L 686.921567 -87.448631 
L 695.172556 -88.020644 
L 703.698577 -95.097979 
L 712.224599 -108.020984 
L 719.925522 -136.718181 
L 728.451544 -141.627371 
L 736.702533 -120.845101 
L 745.228554 -95.670289 
L 753.479543 -88.954459 
L 762.005565 -87.822867 
L 770.531587 -87.704142 
L 778.782575 -88.355503 
L 787.308597 -91.020162 
L 795.559586 -96.683451 
L 804.085608 -150.986543 
L 812.611629 -269.339754 
L 820.587585 -382.848614 
L 829.113607 -365.963556 
L 837.364596 -292.66322 
L 845.890617 -139.609336 
L 854.141606 -99.794293 
L 862.667628 -91.849759 
L 871.19365 -90.713134 
L 879.444638 -90.587007 
L 887.97066 -92.462631 
L 896.221649 -97.712898 
L 904.747671 -126.376934 
L 913.273692 -140.914427 
L 920.974615 -164.332341 
L 929.500637 -140.945515 
L 937.751626 -117.12731 
L 946.277648 -92.340353 
L 954.528636 -85.990766 
L 954.528636 -85.920893 
L 954.528636 -85.920893 
L 946.277648 -85.920893 
L 937.751626 -85.920893 
L 929.500637 -85.920893 
L 920.974615 -85.920893 
L 913.273692 -85.920893 
L 904.747671 -85.920893 
L 896.221649 -85.920893 
L 887.97066 -85.920893 
L 879.444638 -85.920893 
L 871.19365 -85.920893 
L 862.667628 -85.920893 
L 854.141606 -85.920893 
L 845.890617 -85.920893 
L 837.364596 -85.920893 
L 829.113607 -85.920893 
L 820.587585 -85.920893 
L 812.611629 -85.920893 
L 804.085608 -85.920893 
L 795.559586 -85.920893 
L 787.308597 -85.920893 
L 778.782575 -85.920893 
L 770.531587 -85.920893 
L 762.005565 -85.920893 
L 753.479543 -85.920893 
L 745.228554 -85.920893 
L 736.702533 -85.920893 
L 728.451544 -85.920893 
L 719.925522 -85.920893 
L 712.224599 -85.920893 
L 703.698577 -85.920893 
L 695.172556 -85.920893 
L 686.921567 -85.920893 
L 678.395545 -85.920893 
L 670.144556 -85.920893 
L 661.618535 -85.920893 
L 653.092513 -85.920893 
L 644.841524 -85.920893 
L 636.315502 -85.920893 
L 628.064514 -85.920893 
L 619.538492 -85.920893 
L 611.837569 -85.920893 
L 603.311547 -85.920893 
L 594.785526 -85.920893 
L 586.534537 -85.920893 
L 578.008515 -85.920893 
L 569.757526 -85.920893 
L 561.231505 -85.920893 
L 552.705483 -85.920893 
L 544.454494 -85.920893 
L 535.928472 -85.920893 
L 527.677484 -85.920893 
L 519.151462 -85.920893 
L 511.450539 -85.920893 
L 502.924517 -85.920893 
L 494.398495 -85.920893 
L 486.147507 -85.920893 
L 477.621485 -85.920893 
L 469.370496 -85.920893 
L 460.844474 -85.920893 
L 452.318453 -85.920893 
L 444.067464 -85.920893 
L 435.541442 -85.920893 
L 427.290453 -85.920893 
L 418.764432 -85.920893 
L 410.788476 -85.920893 
L 402.262454 -85.920893 
L 393.736432 -85.920893 
L 385.485444 -85.920893 
L 376.959422 -85.920893 
L 368.708433 -85.920893 
L 360.182411 -85.920893 
L 351.65639 -85.920893 
L 343.405401 -85.920893 
L 334.879379 -85.920893 
L 326.62839 -85.920893 
L 318.102369 -85.920893 
L 310.401446 -85.920893 
L 301.875424 -85.920893 
L 293.349402 -85.920893 
L 285.098413 -85.920893 
L 276.572392 -85.920893 
L 268.321403 -85.920893 
L 259.795381 -85.920893 
L 251.269359 -85.920893 
L 243.018371 -85.920893 
L 234.492349 -85.920893 
L 226.24136 -85.920893 
L 217.715338 -85.920893 
L 210.014416 -85.920893 
L 201.488394 -85.920893 
L 192.962372 -85.920893 
L 184.711383 -85.920893 
L 176.185362 -85.920893 
L 167.934373 -85.920893 
L 159.408351 -85.920893 
L 150.882329 -85.920893 
L 142.63134 -85.920893 
L 134.105319 -85.920893 
L 125.85433 -85.920893 
L 117.328308 -85.920893 
L 109.627385 -85.920893 
L 101.101364 -85.920893 
z
" style="stroke: #d3d3d3; stroke-opacity: 0.5"/>
    </defs>
    <g clip-path="url(#pc70ede057c)">
     <use xlink:href="#m798e31716b" x="0" y="432" style="fill: #d3d3d3; fill-opacity: 0.5; stroke: #d3d3d3; stroke-opacity: 0.5"/>
    </g>
   </g>
   <g id="matplotlib.axis_1">
    <g id="xtick_1">
     <g id="line2d_1">
      <path d="M 101.101364 360.925494 
L 101.101364 34.305 
" clip-path="url(#pc70ede057c)" style="fill: none; stroke: #b0b0b0; stroke-width: 0.8; stroke-linecap: square"/>
     </g>
     <g id="line2d_2">
      <defs>
       <path id="m85fd62fc26" d="M 0 0 
L 0 3.5 
" style="stroke: #000000; stroke-width: 0.8"/>
      </defs>
      <g>
       <use xlink:href="#m85fd62fc26" x="101.101364" y="360.925494" style="stroke: #000000; stroke-width: 0.8"/>
      </g>
     </g>
     <g id="text_1">
      <!-- 2017 -->
      <g transform="translate(91.235898 400.641778) rotate(-45) scale(0.14 -0.14)">
       <defs>
        <path id="DejaVuSans-32" d="M 1228 531 
L 3431 531 
L 3431 0 
L 469 0 
L 469 531 
Q 828 903 1448 1529 
Q 2069 2156 2228 2338 
Q 2531 2678 2651 2914 
Q 2772 3150 2772 3378 
Q 2772 3750 2511 3984 
Q 2250 4219 1831 4219 
Q 1534 4219 1204 4116 
Q 875 4013 500 3803 
L 500 4441 
Q 881 4594 1212 4672 
Q 1544 4750 1819 4750 
Q 2544 4750 2975 4387 
Q 3406 4025 3406 3419 
Q 3406 3131 3298 2873 
Q 3191 2616 2906 2266 
Q 2828 2175 2409 1742 
Q 1991 1309 1228 531 
z
" transform="scale(0.015625)"/>
        <path id="DejaVuSans-30" d="M 2034 4250 
Q 1547 4250 1301 3770 
Q 1056 3291 1056 2328 
Q 1056 1369 1301 889 
Q 1547 409 2034 409 
Q 2525 409 2770 889 
Q 3016 1369 3016 2328 
Q 3016 3291 2770 3770 
Q 2525 4250 2034 4250 
z
M 2034 4750 
Q 2819 4750 3233 4129 
Q 3647 3509 3647 2328 
Q 3647 1150 3233 529 
Q 2819 -91 2034 -91 
Q 1250 -91 836 529 
Q 422 1150 422 2328 
Q 422 3509 836 4129 
Q 1250 4750 2034 4750 
z
" transform="scale(0.015625)"/>
        <path id="DejaVuSans-31" d="M 794 531 
L 1825 531 
L 1825 4091 
L 703 3866 
L 703 4441 
L 1819 4666 
L 2450 4666 
L 2450 531 
L 3481 531 
L 3481 0 
L 794 0 
L 794 531 
z
" transform="scale(0.015625)"/>
        <path id="DejaVuSans-37" d="M 525 4666 
L 3525 4666 
L 3525 4397 
L 1831 0 
L 1172 0 
L 2766 4134 
L 525 4134 
L 525 4666 
z
" transform="scale(0.015625)"/>
       </defs>
       <use xlink:href="#DejaVuSans-32"/>
       <use xlink:href="#DejaVuSans-30" transform="translate(63.623047 0)"/>
       <use xlink:href="#DejaVuSans-31" transform="translate(127.246094 0)"/>
       <use xlink:href="#DejaVuSans-37" transform="translate(190.869141 0)"/>
      </g>
     </g>
    </g>
    <g id="xtick_2">
     <g id="line2d_3">
      <path d="M 201.488394 360.925494 
L 201.488394 34.305 
" clip-path="url(#pc70ede057c)" style="fill: none; stroke: #b0b0b0; stroke-width: 0.8; stroke-linecap: square"/>
     </g>
     <g id="line2d_4">
      <g>
       <use xlink:href="#m85fd62fc26" x="201.488394" y="360.925494" style="stroke: #000000; stroke-width: 0.8"/>
      </g>
     </g>
     <g id="text_2">
      <!-- 2018 -->
      <g transform="translate(191.622928 400.641778) rotate(-45) scale(0.14 -0.14)">
       <defs>
        <path id="DejaVuSans-38" d="M 2034 2216 
Q 1584 2216 1326 1975 
Q 1069 1734 1069 1313 
Q 1069 891 1326 650 
Q 1584 409 2034 409 
Q 2484 409 2743 651 
Q 3003 894 3003 1313 
Q 3003 1734 2745 1975 
Q 2488 2216 2034 2216 
z
M 1403 2484 
Q 997 2584 770 2862 
Q 544 3141 544 3541 
Q 544 4100 942 4425 
Q 1341 4750 2034 4750 
Q 2731 4750 3128 4425 
Q 3525 4100 3525 3541 
Q 3525 3141 3298 2862 
Q 3072 2584 2669 2484 
Q 3125 2378 3379 2068 
Q 3634 1759 3634 1313 
Q 3634 634 3220 271 
Q 2806 -91 2034 -91 
Q 1263 -91 848 271 
Q 434 634 434 1313 
Q 434 1759 690 2068 
Q 947 2378 1403 2484 
z
M 1172 3481 
Q 1172 3119 1398 2916 
Q 1625 2713 2034 2713 
Q 2441 2713 2670 2916 
Q 2900 3119 2900 3481 
Q 2900 3844 2670 4047 
Q 2441 4250 2034 4250 
Q 1625 4250 1398 4047 
Q 1172 3844 1172 3481 
z
" transform="scale(0.015625)"/>
       </defs>
       <use xlink:href="#DejaVuSans-32"/>
       <use xlink:href="#DejaVuSans-30" transform="translate(63.623047 0)"/>
       <use xlink:href="#DejaVuSans-31" transform="translate(127.246094 0)"/>
       <use xlink:href="#DejaVuSans-38" transform="translate(190.869141 0)"/>
      </g>
     </g>
    </g>
    <g id="xtick_3">
     <g id="line2d_5">
      <path d="M 301.875424 360.925494 
L 301.875424 34.305 
" clip-path="url(#pc70ede057c)" style="fill: none; stroke: #b0b0b0; stroke-width: 0.8; stroke-linecap: square"/>
     </g>
     <g id="line2d_6">
      <g>
       <use xlink:href="#m85fd62fc26" x="301.875424" y="360.925494" style="stroke: #000000; stroke-width: 0.8"/>
      </g>
     </g>
     <g id="text_3">
      <!-- 2019 -->
      <g transform="translate(292.009959 400.641778) rotate(-45) scale(0.14 -0.14)">
       <defs>
        <path id="DejaVuSans-39" d="M 703 97 
L 703 672 
Q 941 559 1184 500 
Q 1428 441 1663 441 
Q 2288 441 2617 861 
Q 2947 1281 2994 2138 
Q 2813 1869 2534 1725 
Q 2256 1581 1919 1581 
Q 1219 1581 811 2004 
Q 403 2428 403 3163 
Q 403 3881 828 4315 
Q 1253 4750 1959 4750 
Q 2769 4750 3195 4129 
Q 3622 3509 3622 2328 
Q 3622 1225 3098 567 
Q 2575 -91 1691 -91 
Q 1453 -91 1209 -44 
Q 966 3 703 97 
z
M 1959 2075 
Q 2384 2075 2632 2365 
Q 2881 2656 2881 3163 
Q 2881 3666 2632 3958 
Q 2384 4250 1959 4250 
Q 1534 4250 1286 3958 
Q 1038 3666 1038 3163 
Q 1038 2656 1286 2365 
Q 1534 2075 1959 2075 
z
" transform="scale(0.015625)"/>
       </defs>
       <use xlink:href="#DejaVuSans-32"/>
       <use xlink:href="#DejaVuSans-30" transform="translate(63.623047 0)"/>
       <use xlink:href="#DejaVuSans-31" transform="translate(127.246094 0)"/>
       <use xlink:href="#DejaVuSans-39" transform="translate(190.869141 0)"/>
      </g>
     </g>
    </g>
    <g id="xtick_4">
     <g id="line2d_7">
      <path d="M 402.262454 360.925494 
L 402.262454 34.305 
" clip-path="url(#pc70ede057c)" style="fill: none; stroke: #b0b0b0; stroke-width: 0.8; stroke-linecap: square"/>
     </g>
     <g id="line2d_8">
      <g>
       <use xlink:href="#m85fd62fc26" x="402.262454" y="360.925494" style="stroke: #000000; stroke-width: 0.8"/>
      </g>
     </g>
     <g id="text_4">
      <!-- 2020 -->
      <g transform="translate(392.396989 400.641778) rotate(-45) scale(0.14 -0.14)">
       <use xlink:href="#DejaVuSans-32"/>
       <use xlink:href="#DejaVuSans-30" transform="translate(63.623047 0)"/>
       <use xlink:href="#DejaVuSans-32" transform="translate(127.246094 0)"/>
       <use xlink:href="#DejaVuSans-30" transform="translate(190.869141 0)"/>
      </g>
     </g>
    </g>
    <g id="xtick_5">
     <g id="line2d_9">
      <path d="M 502.924517 360.925494 
L 502.924517 34.305 
" clip-path="url(#pc70ede057c)" style="fill: none; stroke: #b0b0b0; stroke-width: 0.8; stroke-linecap: square"/>
     </g>
     <g id="line2d_10">
      <g>
       <use xlink:href="#m85fd62fc26" x="502.924517" y="360.925494" style="stroke: #000000; stroke-width: 0.8"/>
      </g>
     </g>
     <g id="text_5">
      <!-- 2021 -->
      <g transform="translate(493.059052 400.641778) rotate(-45) scale(0.14 -0.14)">
       <use xlink:href="#DejaVuSans-32"/>
       <use xlink:href="#DejaVuSans-30" transform="translate(63.623047 0)"/>
       <use xlink:href="#DejaVuSans-32" transform="translate(127.246094 0)"/>
       <use xlink:href="#DejaVuSans-31" transform="translate(190.869141 0)"/>
      </g>
     </g>
    </g>
    <g id="xtick_6">
     <g id="line2d_11">
      <path d="M 603.311547 360.925494 
L 603.311547 34.305 
" clip-path="url(#pc70ede057c)" style="fill: none; stroke: #b0b0b0; stroke-width: 0.8; stroke-linecap: square"/>
     </g>
     <g id="line2d_12">
      <g>
       <use xlink:href="#m85fd62fc26" x="603.311547" y="360.925494" style="stroke: #000000; stroke-width: 0.8"/>
      </g>
     </g>
     <g id="text_6">
      <!-- 2022 -->
      <g transform="translate(593.446082 400.641778) rotate(-45) scale(0.14 -0.14)">
       <use xlink:href="#DejaVuSans-32"/>
       <use xlink:href="#DejaVuSans-30" transform="translate(63.623047 0)"/>
       <use xlink:href="#DejaVuSans-32" transform="translate(127.246094 0)"/>
       <use xlink:href="#DejaVuSans-32" transform="translate(190.869141 0)"/>
      </g>
     </g>
    </g>
    <g id="xtick_7">
     <g id="line2d_13">
      <path d="M 703.698577 360.925494 
L 703.698577 34.305 
" clip-path="url(#pc70ede057c)" style="fill: none; stroke: #b0b0b0; stroke-width: 0.8; stroke-linecap: square"/>
     </g>
     <g id="line2d_14">
      <g>
       <use xlink:href="#m85fd62fc26" x="703.698577" y="360.925494" style="stroke: #000000; stroke-width: 0.8"/>
      </g>
     </g>
     <g id="text_7">
      <!-- 2023 -->
      <g transform="translate(693.833112 400.641778) rotate(-45) scale(0.14 -0.14)">
       <defs>
        <path id="DejaVuSans-33" d="M 2597 2516 
Q 3050 2419 3304 2112 
Q 3559 1806 3559 1356 
Q 3559 666 3084 287 
Q 2609 -91 1734 -91 
Q 1441 -91 1130 -33 
Q 819 25 488 141 
L 488 750 
Q 750 597 1062 519 
Q 1375 441 1716 441 
Q 2309 441 2620 675 
Q 2931 909 2931 1356 
Q 2931 1769 2642 2001 
Q 2353 2234 1838 2234 
L 1294 2234 
L 1294 2753 
L 1863 2753 
Q 2328 2753 2575 2939 
Q 2822 3125 2822 3475 
Q 2822 3834 2567 4026 
Q 2313 4219 1838 4219 
Q 1578 4219 1281 4162 
Q 984 4106 628 3988 
L 628 4550 
Q 988 4650 1302 4700 
Q 1616 4750 1894 4750 
Q 2613 4750 3031 4423 
Q 3450 4097 3450 3541 
Q 3450 3153 3228 2886 
Q 3006 2619 2597 2516 
z
" transform="scale(0.015625)"/>
       </defs>
       <use xlink:href="#DejaVuSans-32"/>
       <use xlink:href="#DejaVuSans-30" transform="translate(63.623047 0)"/>
       <use xlink:href="#DejaVuSans-32" transform="translate(127.246094 0)"/>
       <use xlink:href="#DejaVuSans-33" transform="translate(190.869141 0)"/>
      </g>
     </g>
    </g>
    <g id="xtick_8">
     <g id="line2d_15">
      <path d="M 804.085608 360.925494 
L 804.085608 34.305 
" clip-path="url(#pc70ede057c)" style="fill: none; stroke: #b0b0b0; stroke-width: 0.8; stroke-linecap: square"/>
     </g>
     <g id="line2d_16">
      <g>
       <use xlink:href="#m85fd62fc26" x="804.085608" y="360.925494" style="stroke: #000000; stroke-width: 0.8"/>
      </g>
     </g>
     <g id="text_8">
      <!-- 2024 -->
      <g transform="translate(794.220142 400.641778) rotate(-45) scale(0.14 -0.14)">
       <defs>
        <path id="DejaVuSans-34" d="M 2419 4116 
L 825 1625 
L 2419 1625 
L 2419 4116 
z
M 2253 4666 
L 3047 4666 
L 3047 1625 
L 3713 1625 
L 3713 1100 
L 3047 1100 
L 3047 0 
L 2419 0 
L 2419 1100 
L 313 1100 
L 313 1709 
L 2253 4666 
z
" transform="scale(0.015625)"/>
       </defs>
       <use xlink:href="#DejaVuSans-32"/>
       <use xlink:href="#DejaVuSans-30" transform="translate(63.623047 0)"/>
       <use xlink:href="#DejaVuSans-32" transform="translate(127.246094 0)"/>
       <use xlink:href="#DejaVuSans-34" transform="translate(190.869141 0)"/>
      </g>
     </g>
    </g>
    <g id="xtick_9">
     <g id="line2d_17">
      <path d="M 904.747671 360.925494 
L 904.747671 34.305 
" clip-path="url(#pc70ede057c)" style="fill: none; stroke: #b0b0b0; stroke-width: 0.8; stroke-linecap: square"/>
     </g>
     <g id="line2d_18">
      <g>
       <use xlink:href="#m85fd62fc26" x="904.747671" y="360.925494" style="stroke: #000000; stroke-width: 0.8"/>
      </g>
     </g>
     <g id="text_9">
      <!-- 2025 -->
      <g transform="translate(894.882205 400.641778) rotate(-45) scale(0.14 -0.14)">
       <defs>
        <path id="DejaVuSans-35" d="M 691 4666 
L 3169 4666 
L 3169 4134 
L 1269 4134 
L 1269 2991 
Q 1406 3038 1543 3061 
Q 1681 3084 1819 3084 
Q 2600 3084 3056 2656 
Q 3513 2228 3513 1497 
Q 3513 744 3044 326 
Q 2575 -91 1722 -91 
Q 1428 -91 1123 -41 
Q 819 9 494 109 
L 494 744 
Q 775 591 1075 516 
Q 1375 441 1709 441 
Q 2250 441 2565 725 
Q 2881 1009 2881 1497 
Q 2881 1984 2565 2268 
Q 2250 2553 1709 2553 
Q 1456 2553 1204 2497 
Q 953 2441 691 2322 
L 691 4666 
z
" transform="scale(0.015625)"/>
       </defs>
       <use xlink:href="#DejaVuSans-32"/>
       <use xlink:href="#DejaVuSans-30" transform="translate(63.623047 0)"/>
       <use xlink:href="#DejaVuSans-32" transform="translate(127.246094 0)"/>
       <use xlink:href="#DejaVuSans-35" transform="translate(190.869141 0)"/>
      </g>
     </g>
    </g>
    <g id="text_10">
     <!-- Data -->
     <g transform="translate(508.71375 418.858063) scale(0.16 -0.16)">
      <defs>
       <path id="DejaVuSans-44" d="M 1259 4147 
L 1259 519 
L 2022 519 
Q 2988 519 3436 956 
Q 3884 1394 3884 2338 
Q 3884 3275 3436 3711 
Q 2988 4147 2022 4147 
L 1259 4147 
z
M 628 4666 
L 1925 4666 
Q 3281 4666 3915 4102 
Q 4550 3538 4550 2338 
Q 4550 1131 3912 565 
Q 3275 0 1925 0 
L 628 0 
L 628 4666 
z
" transform="scale(0.015625)"/>
       <path id="DejaVuSans-61" d="M 2194 1759 
Q 1497 1759 1228 1600 
Q 959 1441 959 1056 
Q 959 750 1161 570 
Q 1363 391 1709 391 
Q 2188 391 2477 730 
Q 2766 1069 2766 1631 
L 2766 1759 
L 2194 1759 
z
M 3341 1997 
L 3341 0 
L 2766 0 
L 2766 531 
Q 2569 213 2275 61 
Q 1981 -91 1556 -91 
Q 1019 -91 701 211 
Q 384 513 384 1019 
Q 384 1609 779 1909 
Q 1175 2209 1959 2209 
L 2766 2209 
L 2766 2266 
Q 2766 2663 2505 2880 
Q 2244 3097 1772 3097 
Q 1472 3097 1187 3025 
Q 903 2953 641 2809 
L 641 3341 
Q 956 3463 1253 3523 
Q 1550 3584 1831 3584 
Q 2591 3584 2966 3190 
Q 3341 2797 3341 1997 
z
" transform="scale(0.015625)"/>
       <path id="DejaVuSans-74" d="M 1172 4494 
L 1172 3500 
L 2356 3500 
L 2356 3053 
L 1172 3053 
L 1172 1153 
Q 1172 725 1289 603 
Q 1406 481 1766 481 
L 2356 481 
L 2356 0 
L 1766 0 
Q 1100 0 847 248 
Q 594 497 594 1153 
L 594 3053 
L 172 3053 
L 172 3500 
L 594 3500 
L 594 4494 
L 1172 4494 
z
" transform="scale(0.015625)"/>
      </defs>
      <use xlink:href="#DejaVuSans-44"/>
      <use xlink:href="#DejaVuSans-61" transform="translate(77.001953 0)"/>
      <use xlink:href="#DejaVuSans-74" transform="translate(138.28125 0)"/>
      <use xlink:href="#DejaVuSans-61" transform="translate(177.490234 0)"/>
     </g>
    </g>
   </g>
   <g id="matplotlib.axis_2">
    <g id="ytick_1">
     <g id="line2d_19">
      <path d="M 58.43 346.079107 
L 997.2 346.079107 
" clip-path="url(#pc70ede057c)" style="fill: none; stroke: #b0b0b0; stroke-width: 0.8; stroke-linecap: square"/>
     </g>
     <g id="line2d_20">
      <defs>
       <path id="m88888b025a" d="M 0 0 
L -3.5 0 
" style="stroke: #000000; stroke-width: 0.8"/>
      </defs>
      <g>
       <use xlink:href="#m88888b025a" x="58.43" y="346.079107" style="stroke: #000000; stroke-width: 0.8"/>
      </g>
     </g>
     <g id="text_11">
      <!-- 0.0 -->
      <g transform="translate(29.165625 351.398014) scale(0.14 -0.14)">
       <defs>
        <path id="DejaVuSans-2e" d="M 684 794 
L 1344 794 
L 1344 0 
L 684 0 
L 684 794 
z
" transform="scale(0.015625)"/>
       </defs>
       <use xlink:href="#DejaVuSans-30"/>
       <use xlink:href="#DejaVuSans-2e" transform="translate(63.623047 0)"/>
       <use xlink:href="#DejaVuSans-30" transform="translate(95.410156 0)"/>
      </g>
     </g>
    </g>
    <g id="ytick_2">
     <g id="line2d_21">
      <path d="M 58.43 286.864457 
L 997.2 286.864457 
" clip-path="url(#pc70ede057c)" style="fill: none; stroke: #b0b0b0; stroke-width: 0.8; stroke-linecap: square"/>
     </g>
     <g id="line2d_22">
      <g>
       <use xlink:href="#m88888b025a" x="58.43" y="286.864457" style="stroke: #000000; stroke-width: 0.8"/>
      </g>
     </g>
     <g id="text_12">
      <!-- 0.2 -->
      <g transform="translate(29.165625 292.183363) scale(0.14 -0.14)">
       <use xlink:href="#DejaVuSans-30"/>
       <use xlink:href="#DejaVuSans-2e" transform="translate(63.623047 0)"/>
       <use xlink:href="#DejaVuSans-32" transform="translate(95.410156 0)"/>
      </g>
     </g>
    </g>
    <g id="ytick_3">
     <g id="line2d_23">
      <path d="M 58.43 227.649806 
L 997.2 227.649806 
" clip-path="url(#pc70ede057c)" style="fill: none; stroke: #b0b0b0; stroke-width: 0.8; stroke-linecap: square"/>
     </g>
     <g id="line2d_24">
      <g>
       <use xlink:href="#m88888b025a" x="58.43" y="227.649806" style="stroke: #000000; stroke-width: 0.8"/>
      </g>
     </g>
     <g id="text_13">
      <!-- 0.4 -->
      <g transform="translate(29.165625 232.968712) scale(0.14 -0.14)">
       <use xlink:href="#DejaVuSans-30"/>
       <use xlink:href="#DejaVuSans-2e" transform="translate(63.623047 0)"/>
       <use xlink:href="#DejaVuSans-34" transform="translate(95.410156 0)"/>
      </g>
     </g>
    </g>
    <g id="ytick_4">
     <g id="line2d_25">
      <path d="M 58.43 168.435155 
L 997.2 168.435155 
" clip-path="url(#pc70ede057c)" style="fill: none; stroke: #b0b0b0; stroke-width: 0.8; stroke-linecap: square"/>
     </g>
     <g id="line2d_26">
      <g>
       <use xlink:href="#m88888b025a" x="58.43" y="168.435155" style="stroke: #000000; stroke-width: 0.8"/>
      </g>
     </g>
     <g id="text_14">
      <!-- 0.6 -->
      <g transform="translate(29.165625 173.754061) scale(0.14 -0.14)">
       <defs>
        <path id="DejaVuSans-36" d="M 2113 2584 
Q 1688 2584 1439 2293 
Q 1191 2003 1191 1497 
Q 1191 994 1439 701 
Q 1688 409 2113 409 
Q 2538 409 2786 701 
Q 3034 994 3034 1497 
Q 3034 2003 2786 2293 
Q 2538 2584 2113 2584 
z
M 3366 4563 
L 3366 3988 
Q 3128 4100 2886 4159 
Q 2644 4219 2406 4219 
Q 1781 4219 1451 3797 
Q 1122 3375 1075 2522 
Q 1259 2794 1537 2939 
Q 1816 3084 2150 3084 
Q 2853 3084 3261 2657 
Q 3669 2231 3669 1497 
Q 3669 778 3244 343 
Q 2819 -91 2113 -91 
Q 1303 -91 875 529 
Q 447 1150 447 2328 
Q 447 3434 972 4092 
Q 1497 4750 2381 4750 
Q 2619 4750 2861 4703 
Q 3103 4656 3366 4563 
z
" transform="scale(0.015625)"/>
       </defs>
       <use xlink:href="#DejaVuSans-30"/>
       <use xlink:href="#DejaVuSans-2e" transform="translate(63.623047 0)"/>
       <use xlink:href="#DejaVuSans-36" transform="translate(95.410156 0)"/>
      </g>
     </g>
    </g>
    <g id="ytick_5">
     <g id="line2d_27">
      <path d="M 58.43 109.220504 
L 997.2 109.220504 
" clip-path="url(#pc70ede057c)" style="fill: none; stroke: #b0b0b0; stroke-width: 0.8; stroke-linecap: square"/>
     </g>
     <g id="line2d_28">
      <g>
       <use xlink:href="#m88888b025a" x="58.43" y="109.220504" style="stroke: #000000; stroke-width: 0.8"/>
      </g>
     </g>
     <g id="text_15">
      <!-- 0.8 -->
      <g transform="translate(29.165625 114.539411) scale(0.14 -0.14)">
       <use xlink:href="#DejaVuSans-30"/>
       <use xlink:href="#DejaVuSans-2e" transform="translate(63.623047 0)"/>
       <use xlink:href="#DejaVuSans-38" transform="translate(95.410156 0)"/>
      </g>
     </g>
    </g>
    <g id="ytick_6">
     <g id="line2d_29">
      <path d="M 58.43 50.005853 
L 997.2 50.005853 
" clip-path="url(#pc70ede057c)" style="fill: none; stroke: #b0b0b0; stroke-width: 0.8; stroke-linecap: square"/>
     </g>
     <g id="line2d_30">
      <g>
       <use xlink:href="#m88888b025a" x="58.43" y="50.005853" style="stroke: #000000; stroke-width: 0.8"/>
      </g>
     </g>
     <g id="text_16">
      <!-- 1.0 -->
      <g transform="translate(29.165625 55.32476) scale(0.14 -0.14)">
       <use xlink:href="#DejaVuSans-31"/>
       <use xlink:href="#DejaVuSans-2e" transform="translate(63.623047 0)"/>
       <use xlink:href="#DejaVuSans-30" transform="translate(95.410156 0)"/>
      </g>
     </g>
    </g>
    <g id="text_17">
     <!-- Número de Casos -->
     <g transform="translate(21.838125 268.193997) rotate(-90) scale(0.16 -0.16)">
      <defs>
       <path id="DejaVuSans-4e" d="M 628 4666 
L 1478 4666 
L 3547 763 
L 3547 4666 
L 4159 4666 
L 4159 0 
L 3309 0 
L 1241 3903 
L 1241 0 
L 628 0 
L 628 4666 
z
" transform="scale(0.015625)"/>
       <path id="DejaVuSans-fa" d="M 544 1381 
L 544 3500 
L 1119 3500 
L 1119 1403 
Q 1119 906 1312 657 
Q 1506 409 1894 409 
Q 2359 409 2629 706 
Q 2900 1003 2900 1516 
L 2900 3500 
L 3475 3500 
L 3475 0 
L 2900 0 
L 2900 538 
Q 2691 219 2414 64 
Q 2138 -91 1772 -91 
Q 1169 -91 856 284 
Q 544 659 544 1381 
z
M 1991 3584 
L 1991 3584 
z
M 2418 5119 
L 3040 5119 
L 2022 3944 
L 1543 3944 
L 2418 5119 
z
" transform="scale(0.015625)"/>
       <path id="DejaVuSans-6d" d="M 3328 2828 
Q 3544 3216 3844 3400 
Q 4144 3584 4550 3584 
Q 5097 3584 5394 3201 
Q 5691 2819 5691 2113 
L 5691 0 
L 5113 0 
L 5113 2094 
Q 5113 2597 4934 2840 
Q 4756 3084 4391 3084 
Q 3944 3084 3684 2787 
Q 3425 2491 3425 1978 
L 3425 0 
L 2847 0 
L 2847 2094 
Q 2847 2600 2669 2842 
Q 2491 3084 2119 3084 
Q 1678 3084 1418 2786 
Q 1159 2488 1159 1978 
L 1159 0 
L 581 0 
L 581 3500 
L 1159 3500 
L 1159 2956 
Q 1356 3278 1631 3431 
Q 1906 3584 2284 3584 
Q 2666 3584 2933 3390 
Q 3200 3197 3328 2828 
z
" transform="scale(0.015625)"/>
       <path id="DejaVuSans-65" d="M 3597 1894 
L 3597 1613 
L 953 1613 
Q 991 1019 1311 708 
Q 1631 397 2203 397 
Q 2534 397 2845 478 
Q 3156 559 3463 722 
L 3463 178 
Q 3153 47 2828 -22 
Q 2503 -91 2169 -91 
Q 1331 -91 842 396 
Q 353 884 353 1716 
Q 353 2575 817 3079 
Q 1281 3584 2069 3584 
Q 2775 3584 3186 3129 
Q 3597 2675 3597 1894 
z
M 3022 2063 
Q 3016 2534 2758 2815 
Q 2500 3097 2075 3097 
Q 1594 3097 1305 2825 
Q 1016 2553 972 2059 
L 3022 2063 
z
" transform="scale(0.015625)"/>
       <path id="DejaVuSans-72" d="M 2631 2963 
Q 2534 3019 2420 3045 
Q 2306 3072 2169 3072 
Q 1681 3072 1420 2755 
Q 1159 2438 1159 1844 
L 1159 0 
L 581 0 
L 581 3500 
L 1159 3500 
L 1159 2956 
Q 1341 3275 1631 3429 
Q 1922 3584 2338 3584 
Q 2397 3584 2469 3576 
Q 2541 3569 2628 3553 
L 2631 2963 
z
" transform="scale(0.015625)"/>
       <path id="DejaVuSans-6f" d="M 1959 3097 
Q 1497 3097 1228 2736 
Q 959 2375 959 1747 
Q 959 1119 1226 758 
Q 1494 397 1959 397 
Q 2419 397 2687 759 
Q 2956 1122 2956 1747 
Q 2956 2369 2687 2733 
Q 2419 3097 1959 3097 
z
M 1959 3584 
Q 2709 3584 3137 3096 
Q 3566 2609 3566 1747 
Q 3566 888 3137 398 
Q 2709 -91 1959 -91 
Q 1206 -91 779 398 
Q 353 888 353 1747 
Q 353 2609 779 3096 
Q 1206 3584 1959 3584 
z
" transform="scale(0.015625)"/>
       <path id="DejaVuSans-20" transform="scale(0.015625)"/>
       <path id="DejaVuSans-64" d="M 2906 2969 
L 2906 4863 
L 3481 4863 
L 3481 0 
L 2906 0 
L 2906 525 
Q 2725 213 2448 61 
Q 2172 -91 1784 -91 
Q 1150 -91 751 415 
Q 353 922 353 1747 
Q 353 2572 751 3078 
Q 1150 3584 1784 3584 
Q 2172 3584 2448 3432 
Q 2725 3281 2906 2969 
z
M 947 1747 
Q 947 1113 1208 752 
Q 1469 391 1925 391 
Q 2381 391 2643 752 
Q 2906 1113 2906 1747 
Q 2906 2381 2643 2742 
Q 2381 3103 1925 3103 
Q 1469 3103 1208 2742 
Q 947 2381 947 1747 
z
" transform="scale(0.015625)"/>
       <path id="DejaVuSans-43" d="M 4122 4306 
L 4122 3641 
Q 3803 3938 3442 4084 
Q 3081 4231 2675 4231 
Q 1875 4231 1450 3742 
Q 1025 3253 1025 2328 
Q 1025 1406 1450 917 
Q 1875 428 2675 428 
Q 3081 428 3442 575 
Q 3803 722 4122 1019 
L 4122 359 
Q 3791 134 3420 21 
Q 3050 -91 2638 -91 
Q 1578 -91 968 557 
Q 359 1206 359 2328 
Q 359 3453 968 4101 
Q 1578 4750 2638 4750 
Q 3056 4750 3426 4639 
Q 3797 4528 4122 4306 
z
" transform="scale(0.015625)"/>
       <path id="DejaVuSans-73" d="M 2834 3397 
L 2834 2853 
Q 2591 2978 2328 3040 
Q 2066 3103 1784 3103 
Q 1356 3103 1142 2972 
Q 928 2841 928 2578 
Q 928 2378 1081 2264 
Q 1234 2150 1697 2047 
L 1894 2003 
Q 2506 1872 2764 1633 
Q 3022 1394 3022 966 
Q 3022 478 2636 193 
Q 2250 -91 1575 -91 
Q 1294 -91 989 -36 
Q 684 19 347 128 
L 347 722 
Q 666 556 975 473 
Q 1284 391 1588 391 
Q 1994 391 2212 530 
Q 2431 669 2431 922 
Q 2431 1156 2273 1281 
Q 2116 1406 1581 1522 
L 1381 1569 
Q 847 1681 609 1914 
Q 372 2147 372 2553 
Q 372 3047 722 3315 
Q 1072 3584 1716 3584 
Q 2034 3584 2315 3537 
Q 2597 3491 2834 3397 
z
" transform="scale(0.015625)"/>
      </defs>
      <use xlink:href="#DejaVuSans-4e"/>
      <use xlink:href="#DejaVuSans-fa" transform="translate(74.804688 0)"/>
      <use xlink:href="#DejaVuSans-6d" transform="translate(138.183594 0)"/>
      <use xlink:href="#DejaVuSans-65" transform="translate(235.595703 0)"/>
      <use xlink:href="#DejaVuSans-72" transform="translate(297.119141 0)"/>
      <use xlink:href="#DejaVuSans-6f" transform="translate(335.982422 0)"/>
      <use xlink:href="#DejaVuSans-20" transform="translate(397.164062 0)"/>
      <use xlink:href="#DejaVuSans-64" transform="translate(428.951172 0)"/>
      <use xlink:href="#DejaVuSans-65" transform="translate(492.427734 0)"/>
      <use xlink:href="#DejaVuSans-20" transform="translate(553.951172 0)"/>
      <use xlink:href="#DejaVuSans-43" transform="translate(585.738281 0)"/>
      <use xlink:href="#DejaVuSans-61" transform="translate(655.5625 0)"/>
      <use xlink:href="#DejaVuSans-73" transform="translate(716.841797 0)"/>
      <use xlink:href="#DejaVuSans-6f" transform="translate(768.941406 0)"/>
      <use xlink:href="#DejaVuSans-73" transform="translate(830.123047 0)"/>
     </g>
    </g>
    <g id="text_18">
     <!-- 1e6 -->
     <g transform="translate(58.43 31.305) scale(0.14 -0.14)">
      <use xlink:href="#DejaVuSans-31"/>
      <use xlink:href="#DejaVuSans-65" transform="translate(63.623047 0)"/>
      <use xlink:href="#DejaVuSans-36" transform="translate(125.146484 0)"/>
     </g>
    </g>
   </g>
   <g id="line2d_31">
    <path d="M 101.101364 344.383496 
L 109.627385 344.320432 
L 117.328308 343.982909 
L 125.85433 344.5114 
L 134.105319 344.914355 
L 142.63134 345.437221 
L 150.882329 345.71553 
L 159.408351 345.771191 
L 167.934373 345.719675 
L 176.185362 345.621378 
L 184.711383 345.645952 
L 192.962372 345.506206 
L 201.488394 344.944259 
L 210.014416 344.823757 
L 217.715338 343.691869 
L 226.24136 342.654724 
L 234.492349 343.647754 
L 243.018371 344.89363 
L 251.269359 345.252471 
L 259.795381 345.571342 
L 268.321403 345.66875 
L 276.572392 345.531076 
L 285.098413 345.109764 
L 293.349402 343.3955 
L 301.875424 334.846384 
L 310.401446 323.889305 
L 318.102369 303.062328 
L 326.62839 273.194458 
L 334.879379 269.261717 
L 343.405401 321.140561 
L 351.65639 339.84943 
L 360.182411 344.005706 
L 368.708433 344.777866 
L 376.959422 344.778754 
L 385.485444 344.231906 
L 393.736432 342.712755 
L 402.262454 333.05899 
L 410.788476 325.34717 
L 418.764432 328.294579 
L 427.290453 333.35684 
L 435.541442 339.129676 
L 444.067464 343.537319 
L 452.318453 344.848923 
L 460.844474 345.421233 
L 469.370496 345.527819 
L 477.621485 345.585553 
L 486.147507 345.524858 
L 494.398495 345.45913 
L 502.924517 343.877803 
L 511.450539 340.059938 
L 519.151462 335.151044 
L 527.677484 331.403348 
L 535.928472 338.412587 
L 544.454494 343.362931 
L 552.705483 345.217238 
L 561.231505 345.580816 
L 569.757526 345.656611 
L 578.008515 345.668454 
L 586.534537 345.374749 
L 594.785526 344.659436 
L 603.311547 343.12933 
L 611.837569 340.3418 
L 619.538492 323.14172 
L 628.064514 305.503748 
L 636.315502 314.590237 
L 644.841524 337.698458 
L 653.092513 342.808978 
L 661.618535 344.518505 
L 670.144556 345.02864 
L 678.395545 344.887117 
L 686.921567 344.551369 
L 695.172556 343.979356 
L 703.698577 336.902021 
L 712.224599 323.979016 
L 719.925522 295.281819 
L 728.451544 290.372629 
L 736.702533 311.154899 
L 745.228554 336.329711 
L 753.479543 343.045541 
L 762.005565 344.177133 
L 770.531587 344.295858 
L 778.782575 343.644497 
L 787.308597 340.979838 
L 795.559586 335.316549 
L 804.085608 281.013457 
L 812.611629 162.660246 
L 820.587585 49.151386 
L 829.113607 66.036444 
L 837.364596 139.33678 
L 845.890617 292.390664 
L 854.141606 332.205707 
L 862.667628 340.150241 
L 871.19365 341.286866 
L 879.444638 341.412993 
L 887.97066 339.537369 
L 896.221649 334.287102 
L 904.747671 305.623066 
L 913.273692 291.085573 
L 920.974615 267.667659 
L 929.500637 291.054485 
L 937.751626 314.87269 
L 946.277648 339.659647 
L 954.528636 346.009234 
" clip-path="url(#pc70ede057c)" style="fill: none; stroke: #008000; stroke-width: 1.5; stroke-linecap: square"/>
    <defs>
     <path id="m2df71cbee3" d="M 0 3 
C 0.795609 3 1.55874 2.683901 2.12132 2.12132 
C 2.683901 1.55874 3 0.795609 3 0 
C 3 -0.795609 2.683901 -1.55874 2.12132 -2.12132 
C 1.55874 -2.683901 0.795609 -3 0 -3 
C -0.795609 -3 -1.55874 -2.683901 -2.12132 -2.12132 
C -2.683901 -1.55874 -3 -0.795609 -3 0 
C -3 0.795609 -2.683901 1.55874 -2.12132 2.12132 
C -1.55874 2.683901 -0.795609 3 0 3 
z
" style="stroke: #008000"/>
    </defs>
    <g clip-path="url(#pc70ede057c)">
     <use xlink:href="#m2df71cbee3" x="101.101364" y="344.383496" style="fill: #008000; stroke: #008000"/>
     <use xlink:href="#m2df71cbee3" x="109.627385" y="344.320432" style="fill: #008000; stroke: #008000"/>
     <use xlink:href="#m2df71cbee3" x="117.328308" y="343.982909" style="fill: #008000; stroke: #008000"/>
     <use xlink:href="#m2df71cbee3" x="125.85433" y="344.5114" style="fill: #008000; stroke: #008000"/>
     <use xlink:href="#m2df71cbee3" x="134.105319" y="344.914355" style="fill: #008000; stroke: #008000"/>
     <use xlink:href="#m2df71cbee3" x="142.63134" y="345.437221" style="fill: #008000; stroke: #008000"/>
     <use xlink:href="#m2df71cbee3" x="150.882329" y="345.71553" style="fill: #008000; stroke: #008000"/>
     <use xlink:href="#m2df71cbee3" x="159.408351" y="345.771191" style="fill: #008000; stroke: #008000"/>
     <use xlink:href="#m2df71cbee3" x="167.934373" y="345.719675" style="fill: #008000; stroke: #008000"/>
     <use xlink:href="#m2df71cbee3" x="176.185362" y="345.621378" style="fill: #008000; stroke: #008000"/>
     <use xlink:href="#m2df71cbee3" x="184.711383" y="345.645952" style="fill: #008000; stroke: #008000"/>
     <use xlink:href="#m2df71cbee3" x="192.962372" y="345.506206" style="fill: #008000; stroke: #008000"/>
     <use xlink:href="#m2df71cbee3" x="201.488394" y="344.944259" style="fill: #008000; stroke: #008000"/>
     <use xlink:href="#m2df71cbee3" x="210.014416" y="344.823757" style="fill: #008000; stroke: #008000"/>
     <use xlink:href="#m2df71cbee3" x="217.715338" y="343.691869" style="fill: #008000; stroke: #008000"/>
     <use xlink:href="#m2df71cbee3" x="226.24136" y="342.654724" style="fill: #008000; stroke: #008000"/>
     <use xlink:href="#m2df71cbee3" x="234.492349" y="343.647754" style="fill: #008000; stroke: #008000"/>
     <use xlink:href="#m2df71cbee3" x="243.018371" y="344.89363" style="fill: #008000; stroke: #008000"/>
     <use xlink:href="#m2df71cbee3" x="251.269359" y="345.252471" style="fill: #008000; stroke: #008000"/>
     <use xlink:href="#m2df71cbee3" x="259.795381" y="345.571342" style="fill: #008000; stroke: #008000"/>
     <use xlink:href="#m2df71cbee3" x="268.321403" y="345.66875" style="fill: #008000; stroke: #008000"/>
     <use xlink:href="#m2df71cbee3" x="276.572392" y="345.531076" style="fill: #008000; stroke: #008000"/>
     <use xlink:href="#m2df71cbee3" x="285.098413" y="345.109764" style="fill: #008000; stroke: #008000"/>
     <use xlink:href="#m2df71cbee3" x="293.349402" y="343.3955" style="fill: #008000; stroke: #008000"/>
     <use xlink:href="#m2df71cbee3" x="301.875424" y="334.846384" style="fill: #008000; stroke: #008000"/>
     <use xlink:href="#m2df71cbee3" x="310.401446" y="323.889305" style="fill: #008000; stroke: #008000"/>
     <use xlink:href="#m2df71cbee3" x="318.102369" y="303.062328" style="fill: #008000; stroke: #008000"/>
     <use xlink:href="#m2df71cbee3" x="326.62839" y="273.194458" style="fill: #008000; stroke: #008000"/>
     <use xlink:href="#m2df71cbee3" x="334.879379" y="269.261717" style="fill: #008000; stroke: #008000"/>
     <use xlink:href="#m2df71cbee3" x="343.405401" y="321.140561" style="fill: #008000; stroke: #008000"/>
     <use xlink:href="#m2df71cbee3" x="351.65639" y="339.84943" style="fill: #008000; stroke: #008000"/>
     <use xlink:href="#m2df71cbee3" x="360.182411" y="344.005706" style="fill: #008000; stroke: #008000"/>
     <use xlink:href="#m2df71cbee3" x="368.708433" y="344.777866" style="fill: #008000; stroke: #008000"/>
     <use xlink:href="#m2df71cbee3" x="376.959422" y="344.778754" style="fill: #008000; stroke: #008000"/>
     <use xlink:href="#m2df71cbee3" x="385.485444" y="344.231906" style="fill: #008000; stroke: #008000"/>
     <use xlink:href="#m2df71cbee3" x="393.736432" y="342.712755" style="fill: #008000; stroke: #008000"/>
     <use xlink:href="#m2df71cbee3" x="402.262454" y="333.05899" style="fill: #008000; stroke: #008000"/>
     <use xlink:href="#m2df71cbee3" x="410.788476" y="325.34717" style="fill: #008000; stroke: #008000"/>
     <use xlink:href="#m2df71cbee3" x="418.764432" y="328.294579" style="fill: #008000; stroke: #008000"/>
     <use xlink:href="#m2df71cbee3" x="427.290453" y="333.35684" style="fill: #008000; stroke: #008000"/>
     <use xlink:href="#m2df71cbee3" x="435.541442" y="339.129676" style="fill: #008000; stroke: #008000"/>
     <use xlink:href="#m2df71cbee3" x="444.067464" y="343.537319" style="fill: #008000; stroke: #008000"/>
     <use xlink:href="#m2df71cbee3" x="452.318453" y="344.848923" style="fill: #008000; stroke: #008000"/>
     <use xlink:href="#m2df71cbee3" x="460.844474" y="345.421233" style="fill: #008000; stroke: #008000"/>
     <use xlink:href="#m2df71cbee3" x="469.370496" y="345.527819" style="fill: #008000; stroke: #008000"/>
     <use xlink:href="#m2df71cbee3" x="477.621485" y="345.585553" style="fill: #008000; stroke: #008000"/>
     <use xlink:href="#m2df71cbee3" x="486.147507" y="345.524858" style="fill: #008000; stroke: #008000"/>
     <use xlink:href="#m2df71cbee3" x="494.398495" y="345.45913" style="fill: #008000; stroke: #008000"/>
     <use xlink:href="#m2df71cbee3" x="502.924517" y="343.877803" style="fill: #008000; stroke: #008000"/>
     <use xlink:href="#m2df71cbee3" x="511.450539" y="340.059938" style="fill: #008000; stroke: #008000"/>
     <use xlink:href="#m2df71cbee3" x="519.151462" y="335.151044" style="fill: #008000; stroke: #008000"/>
     <use xlink:href="#m2df71cbee3" x="527.677484" y="331.403348" style="fill: #008000; stroke: #008000"/>
     <use xlink:href="#m2df71cbee3" x="535.928472" y="338.412587" style="fill: #008000; stroke: #008000"/>
     <use xlink:href="#m2df71cbee3" x="544.454494" y="343.362931" style="fill: #008000; stroke: #008000"/>
     <use xlink:href="#m2df71cbee3" x="552.705483" y="345.217238" style="fill: #008000; stroke: #008000"/>
     <use xlink:href="#m2df71cbee3" x="561.231505" y="345.580816" style="fill: #008000; stroke: #008000"/>
     <use xlink:href="#m2df71cbee3" x="569.757526" y="345.656611" style="fill: #008000; stroke: #008000"/>
     <use xlink:href="#m2df71cbee3" x="578.008515" y="345.668454" style="fill: #008000; stroke: #008000"/>
     <use xlink:href="#m2df71cbee3" x="586.534537" y="345.374749" style="fill: #008000; stroke: #008000"/>
     <use xlink:href="#m2df71cbee3" x="594.785526" y="344.659436" style="fill: #008000; stroke: #008000"/>
     <use xlink:href="#m2df71cbee3" x="603.311547" y="343.12933" style="fill: #008000; stroke: #008000"/>
     <use xlink:href="#m2df71cbee3" x="611.837569" y="340.3418" style="fill: #008000; stroke: #008000"/>
     <use xlink:href="#m2df71cbee3" x="619.538492" y="323.14172" style="fill: #008000; stroke: #008000"/>
     <use xlink:href="#m2df71cbee3" x="628.064514" y="305.503748" style="fill: #008000; stroke: #008000"/>
     <use xlink:href="#m2df71cbee3" x="636.315502" y="314.590237" style="fill: #008000; stroke: #008000"/>
     <use xlink:href="#m2df71cbee3" x="644.841524" y="337.698458" style="fill: #008000; stroke: #008000"/>
     <use xlink:href="#m2df71cbee3" x="653.092513" y="342.808978" style="fill: #008000; stroke: #008000"/>
     <use xlink:href="#m2df71cbee3" x="661.618535" y="344.518505" style="fill: #008000; stroke: #008000"/>
     <use xlink:href="#m2df71cbee3" x="670.144556" y="345.02864" style="fill: #008000; stroke: #008000"/>
     <use xlink:href="#m2df71cbee3" x="678.395545" y="344.887117" style="fill: #008000; stroke: #008000"/>
     <use xlink:href="#m2df71cbee3" x="686.921567" y="344.551369" style="fill: #008000; stroke: #008000"/>
     <use xlink:href="#m2df71cbee3" x="695.172556" y="343.979356" style="fill: #008000; stroke: #008000"/>
     <use xlink:href="#m2df71cbee3" x="703.698577" y="336.902021" style="fill: #008000; stroke: #008000"/>
     <use xlink:href="#m2df71cbee3" x="712.224599" y="323.979016" style="fill: #008000; stroke: #008000"/>
     <use xlink:href="#m2df71cbee3" x="719.925522" y="295.281819" style="fill: #008000; stroke: #008000"/>
     <use xlink:href="#m2df71cbee3" x="728.451544" y="290.372629" style="fill: #008000; stroke: #008000"/>
     <use xlink:href="#m2df71cbee3" x="736.702533" y="311.154899" style="fill: #008000; stroke: #008000"/>
     <use xlink:href="#m2df71cbee3" x="745.228554" y="336.329711" style="fill: #008000; stroke: #008000"/>
     <use xlink:href="#m2df71cbee3" x="753.479543" y="343.045541" style="fill: #008000; stroke: #008000"/>
     <use xlink:href="#m2df71cbee3" x="762.005565" y="344.177133" style="fill: #008000; stroke: #008000"/>
     <use xlink:href="#m2df71cbee3" x="770.531587" y="344.295858" style="fill: #008000; stroke: #008000"/>
     <use xlink:href="#m2df71cbee3" x="778.782575" y="343.644497" style="fill: #008000; stroke: #008000"/>
     <use xlink:href="#m2df71cbee3" x="787.308597" y="340.979838" style="fill: #008000; stroke: #008000"/>
     <use xlink:href="#m2df71cbee3" x="795.559586" y="335.316549" style="fill: #008000; stroke: #008000"/>
     <use xlink:href="#m2df71cbee3" x="804.085608" y="281.013457" style="fill: #008000; stroke: #008000"/>
     <use xlink:href="#m2df71cbee3" x="812.611629" y="162.660246" style="fill: #008000; stroke: #008000"/>
     <use xlink:href="#m2df71cbee3" x="820.587585" y="49.151386" style="fill: #008000; stroke: #008000"/>
     <use xlink:href="#m2df71cbee3" x="829.113607" y="66.036444" style="fill: #008000; stroke: #008000"/>
     <use xlink:href="#m2df71cbee3" x="837.364596" y="139.33678" style="fill: #008000; stroke: #008000"/>
     <use xlink:href="#m2df71cbee3" x="845.890617" y="292.390664" style="fill: #008000; stroke: #008000"/>
     <use xlink:href="#m2df71cbee3" x="854.141606" y="332.205707" style="fill: #008000; stroke: #008000"/>
     <use xlink:href="#m2df71cbee3" x="862.667628" y="340.150241" style="fill: #008000; stroke: #008000"/>
     <use xlink:href="#m2df71cbee3" x="871.19365" y="341.286866" style="fill: #008000; stroke: #008000"/>
     <use xlink:href="#m2df71cbee3" x="879.444638" y="341.412993" style="fill: #008000; stroke: #008000"/>
     <use xlink:href="#m2df71cbee3" x="887.97066" y="339.537369" style="fill: #008000; stroke: #008000"/>
     <use xlink:href="#m2df71cbee3" x="896.221649" y="334.287102" style="fill: #008000; stroke: #008000"/>
     <use xlink:href="#m2df71cbee3" x="904.747671" y="305.623066" style="fill: #008000; stroke: #008000"/>
     <use xlink:href="#m2df71cbee3" x="913.273692" y="291.085573" style="fill: #008000; stroke: #008000"/>
     <use xlink:href="#m2df71cbee3" x="920.974615" y="267.667659" style="fill: #008000; stroke: #008000"/>
     <use xlink:href="#m2df71cbee3" x="929.500637" y="291.054485" style="fill: #008000; stroke: #008000"/>
     <use xlink:href="#m2df71cbee3" x="937.751626" y="314.87269" style="fill: #008000; stroke: #008000"/>
     <use xlink:href="#m2df71cbee3" x="946.277648" y="339.659647" style="fill: #008000; stroke: #008000"/>
     <use xlink:href="#m2df71cbee3" x="954.528636" y="346.009234" style="fill: #008000; stroke: #008000"/>
    </g>
   </g>
   <g id="line2d_32">
    <path d="M 251.269359 345.429711 
L 259.795381 345.456303 
L 268.321403 345.602679 
L 276.572392 345.651762 
L 285.098413 345.562394 
L 293.349402 345.197248 
L 301.875424 343.987835 
L 310.401446 341.086735 
L 318.102369 332.83005 
L 326.62839 316.175223 
L 334.879379 290.455307 
L 343.405401 286.757968 
L 351.65639 306.418825 
L 360.182411 319.301439 
L 368.708433 332.667413 
L 376.959422 340.856099 
L 385.485444 342.252805 
L 393.736432 330.054551 
L 402.262454 333.078065 
L 410.788476 330.09132 
L 418.764432 309.165175 
L 427.290453 307.319583 
L 435.541442 323.893713 
L 444.067464 329.967598 
L 452.318453 334.456157 
L 460.844474 341.390899 
L 469.370496 344.162591 
L 477.621485 344.247252 
L 486.147507 345.097751 
L 494.398495 342.815751 
L 502.924517 341.945907 
L 511.450539 342.080328 
L 519.151462 337.940924 
L 527.677484 331.150558 
L 535.928472 330.467969 
L 544.454494 339.150612 
L 552.705483 342.645069 
L 561.231505 344.881245 
L 569.757526 345.062378 
L 578.008515 345.144609 
L 586.534537 345.331169 
L 594.785526 345.010458 
L 603.311547 342.212025 
L 611.837569 338.718735 
L 619.538492 335.538503 
L 628.064514 316.38284 
L 636.315502 307.58366 
L 644.841524 313.881845 
L 653.092513 340.79477 
L 661.618535 342.296202 
L 670.144556 343.277812 
L 678.395545 344.631119 
L 686.921567 344.514869 
L 695.172556 344.393175 
L 703.698577 340.171685 
L 712.224599 331.377543 
L 719.925522 313.929925 
L 728.451544 301.400708 
L 736.702533 289.120933 
L 745.228554 325.071233 
L 753.479543 340.329114 
L 762.005565 343.545858 
L 770.531587 344.55933 
L 778.782575 344.599056 
L 787.308597 343.364364 
L 795.559586 341.284819 
L 804.085608 331.603012 
L 812.611629 298.495599 
L 820.587585 238.583642 
L 829.113607 173.401571 
L 837.364596 130.521879 
L 845.890617 155.175101 
L 854.141606 231.054389 
L 862.667628 293.614869 
L 871.19365 307.329455 
L 879.444638 309.058688 
L 887.97066 326.553857 
L 896.221649 331.350442 
L 904.747671 303.140691 
L 913.273692 278.585963 
L 920.974615 272.082122 
L 929.500637 229.807786 
L 937.751626 285.972893 
L 946.277648 304.611229 
L 954.528636 332.634949 
" clip-path="url(#pc70ede057c)" style="fill: none; stroke-dasharray: 5.55,2.4; stroke-dashoffset: 0; stroke: #ff0000; stroke-width: 1.5"/>
    <defs>
     <path id="m95f76f44e2" d="M -3 3 
L 3 3 
L 3 -3 
L -3 -3 
z
" style="stroke: #ff0000; stroke-linejoin: miter"/>
    </defs>
    <g clip-path="url(#pc70ede057c)">
     <use xlink:href="#m95f76f44e2" x="251.269359" y="345.429711" style="fill: #ff0000; stroke: #ff0000; stroke-linejoin: miter"/>
     <use xlink:href="#m95f76f44e2" x="259.795381" y="345.456303" style="fill: #ff0000; stroke: #ff0000; stroke-linejoin: miter"/>
     <use xlink:href="#m95f76f44e2" x="268.321403" y="345.602679" style="fill: #ff0000; stroke: #ff0000; stroke-linejoin: miter"/>
     <use xlink:href="#m95f76f44e2" x="276.572392" y="345.651762" style="fill: #ff0000; stroke: #ff0000; stroke-linejoin: miter"/>
     <use xlink:href="#m95f76f44e2" x="285.098413" y="345.562394" style="fill: #ff0000; stroke: #ff0000; stroke-linejoin: miter"/>
     <use xlink:href="#m95f76f44e2" x="293.349402" y="345.197248" style="fill: #ff0000; stroke: #ff0000; stroke-linejoin: miter"/>
     <use xlink:href="#m95f76f44e2" x="301.875424" y="343.987835" style="fill: #ff0000; stroke: #ff0000; stroke-linejoin: miter"/>
     <use xlink:href="#m95f76f44e2" x="310.401446" y="341.086735" style="fill: #ff0000; stroke: #ff0000; stroke-linejoin: miter"/>
     <use xlink:href="#m95f76f44e2" x="318.102369" y="332.83005" style="fill: #ff0000; stroke: #ff0000; stroke-linejoin: miter"/>
     <use xlink:href="#m95f76f44e2" x="326.62839" y="316.175223" style="fill: #ff0000; stroke: #ff0000; stroke-linejoin: miter"/>
     <use xlink:href="#m95f76f44e2" x="334.879379" y="290.455307" style="fill: #ff0000; stroke: #ff0000; stroke-linejoin: miter"/>
     <use xlink:href="#m95f76f44e2" x="343.405401" y="286.757968" style="fill: #ff0000; stroke: #ff0000; stroke-linejoin: miter"/>
     <use xlink:href="#m95f76f44e2" x="351.65639" y="306.418825" style="fill: #ff0000; stroke: #ff0000; stroke-linejoin: miter"/>
     <use xlink:href="#m95f76f44e2" x="360.182411" y="319.301439" style="fill: #ff0000; stroke: #ff0000; stroke-linejoin: miter"/>
     <use xlink:href="#m95f76f44e2" x="368.708433" y="332.667413" style="fill: #ff0000; stroke: #ff0000; stroke-linejoin: miter"/>
     <use xlink:href="#m95f76f44e2" x="376.959422" y="340.856099" style="fill: #ff0000; stroke: #ff0000; stroke-linejoin: miter"/>
     <use xlink:href="#m95f76f44e2" x="385.485444" y="342.252805" style="fill: #ff0000; stroke: #ff0000; stroke-linejoin: miter"/>
     <use xlink:href="#m95f76f44e2" x="393.736432" y="330.054551" style="fill: #ff0000; stroke: #ff0000; stroke-linejoin: miter"/>
     <use xlink:href="#m95f76f44e2" x="402.262454" y="333.078065" style="fill: #ff0000; stroke: #ff0000; stroke-linejoin: miter"/>
     <use xlink:href="#m95f76f44e2" x="410.788476" y="330.09132" style="fill: #ff0000; stroke: #ff0000; stroke-linejoin: miter"/>
     <use xlink:href="#m95f76f44e2" x="418.764432" y="309.165175" style="fill: #ff0000; stroke: #ff0000; stroke-linejoin: miter"/>
     <use xlink:href="#m95f76f44e2" x="427.290453" y="307.319583" style="fill: #ff0000; stroke: #ff0000; stroke-linejoin: miter"/>
     <use xlink:href="#m95f76f44e2" x="435.541442" y="323.893713" style="fill: #ff0000; stroke: #ff0000; stroke-linejoin: miter"/>
     <use xlink:href="#m95f76f44e2" x="444.067464" y="329.967598" style="fill: #ff0000; stroke: #ff0000; stroke-linejoin: miter"/>
     <use xlink:href="#m95f76f44e2" x="452.318453" y="334.456157" style="fill: #ff0000; stroke: #ff0000; stroke-linejoin: miter"/>
     <use xlink:href="#m95f76f44e2" x="460.844474" y="341.390899" style="fill: #ff0000; stroke: #ff0000; stroke-linejoin: miter"/>
     <use xlink:href="#m95f76f44e2" x="469.370496" y="344.162591" style="fill: #ff0000; stroke: #ff0000; stroke-linejoin: miter"/>
     <use xlink:href="#m95f76f44e2" x="477.621485" y="344.247252" style="fill: #ff0000; stroke: #ff0000; stroke-linejoin: miter"/>
     <use xlink:href="#m95f76f44e2" x="486.147507" y="345.097751" style="fill: #ff0000; stroke: #ff0000; stroke-linejoin: miter"/>
     <use xlink:href="#m95f76f44e2" x="494.398495" y="342.815751" style="fill: #ff0000; stroke: #ff0000; stroke-linejoin: miter"/>
     <use xlink:href="#m95f76f44e2" x="502.924517" y="341.945907" style="fill: #ff0000; stroke: #ff0000; stroke-linejoin: miter"/>
     <use xlink:href="#m95f76f44e2" x="511.450539" y="342.080328" style="fill: #ff0000; stroke: #ff0000; stroke-linejoin: miter"/>
     <use xlink:href="#m95f76f44e2" x="519.151462" y="337.940924" style="fill: #ff0000; stroke: #ff0000; stroke-linejoin: miter"/>
     <use xlink:href="#m95f76f44e2" x="527.677484" y="331.150558" style="fill: #ff0000; stroke: #ff0000; stroke-linejoin: miter"/>
     <use xlink:href="#m95f76f44e2" x="535.928472" y="330.467969" style="fill: #ff0000; stroke: #ff0000; stroke-linejoin: miter"/>
     <use xlink:href="#m95f76f44e2" x="544.454494" y="339.150612" style="fill: #ff0000; stroke: #ff0000; stroke-linejoin: miter"/>
     <use xlink:href="#m95f76f44e2" x="552.705483" y="342.645069" style="fill: #ff0000; stroke: #ff0000; stroke-linejoin: miter"/>
     <use xlink:href="#m95f76f44e2" x="561.231505" y="344.881245" style="fill: #ff0000; stroke: #ff0000; stroke-linejoin: miter"/>
     <use xlink:href="#m95f76f44e2" x="569.757526" y="345.062378" style="fill: #ff0000; stroke: #ff0000; stroke-linejoin: miter"/>
     <use xlink:href="#m95f76f44e2" x="578.008515" y="345.144609" style="fill: #ff0000; stroke: #ff0000; stroke-linejoin: miter"/>
     <use xlink:href="#m95f76f44e2" x="586.534537" y="345.331169" style="fill: #ff0000; stroke: #ff0000; stroke-linejoin: miter"/>
     <use xlink:href="#m95f76f44e2" x="594.785526" y="345.010458" style="fill: #ff0000; stroke: #ff0000; stroke-linejoin: miter"/>
     <use xlink:href="#m95f76f44e2" x="603.311547" y="342.212025" style="fill: #ff0000; stroke: #ff0000; stroke-linejoin: miter"/>
     <use xlink:href="#m95f76f44e2" x="611.837569" y="338.718735" style="fill: #ff0000; stroke: #ff0000; stroke-linejoin: miter"/>
     <use xlink:href="#m95f76f44e2" x="619.538492" y="335.538503" style="fill: #ff0000; stroke: #ff0000; stroke-linejoin: miter"/>
     <use xlink:href="#m95f76f44e2" x="628.064514" y="316.38284" style="fill: #ff0000; stroke: #ff0000; stroke-linejoin: miter"/>
     <use xlink:href="#m95f76f44e2" x="636.315502" y="307.58366" style="fill: #ff0000; stroke: #ff0000; stroke-linejoin: miter"/>
     <use xlink:href="#m95f76f44e2" x="644.841524" y="313.881845" style="fill: #ff0000; stroke: #ff0000; stroke-linejoin: miter"/>
     <use xlink:href="#m95f76f44e2" x="653.092513" y="340.79477" style="fill: #ff0000; stroke: #ff0000; stroke-linejoin: miter"/>
     <use xlink:href="#m95f76f44e2" x="661.618535" y="342.296202" style="fill: #ff0000; stroke: #ff0000; stroke-linejoin: miter"/>
     <use xlink:href="#m95f76f44e2" x="670.144556" y="343.277812" style="fill: #ff0000; stroke: #ff0000; stroke-linejoin: miter"/>
     <use xlink:href="#m95f76f44e2" x="678.395545" y="344.631119" style="fill: #ff0000; stroke: #ff0000; stroke-linejoin: miter"/>
     <use xlink:href="#m95f76f44e2" x="686.921567" y="344.514869" style="fill: #ff0000; stroke: #ff0000; stroke-linejoin: miter"/>
     <use xlink:href="#m95f76f44e2" x="695.172556" y="344.393175" style="fill: #ff0000; stroke: #ff0000; stroke-linejoin: miter"/>
     <use xlink:href="#m95f76f44e2" x="703.698577" y="340.171685" style="fill: #ff0000; stroke: #ff0000; stroke-linejoin: miter"/>
     <use xlink:href="#m95f76f44e2" x="712.224599" y="331.377543" style="fill: #ff0000; stroke: #ff0000; stroke-linejoin: miter"/>
     <use xlink:href="#m95f76f44e2" x="719.925522" y="313.929925" style="fill: #ff0000; stroke: #ff0000; stroke-linejoin: miter"/>
     <use xlink:href="#m95f76f44e2" x="728.451544" y="301.400708" style="fill: #ff0000; stroke: #ff0000; stroke-linejoin: miter"/>
     <use xlink:href="#m95f76f44e2" x="736.702533" y="289.120933" style="fill: #ff0000; stroke: #ff0000; stroke-linejoin: miter"/>
     <use xlink:href="#m95f76f44e2" x="745.228554" y="325.071233" style="fill: #ff0000; stroke: #ff0000; stroke-linejoin: miter"/>
     <use xlink:href="#m95f76f44e2" x="753.479543" y="340.329114" style="fill: #ff0000; stroke: #ff0000; stroke-linejoin: miter"/>
     <use xlink:href="#m95f76f44e2" x="762.005565" y="343.545858" style="fill: #ff0000; stroke: #ff0000; stroke-linejoin: miter"/>
     <use xlink:href="#m95f76f44e2" x="770.531587" y="344.55933" style="fill: #ff0000; stroke: #ff0000; stroke-linejoin: miter"/>
     <use xlink:href="#m95f76f44e2" x="778.782575" y="344.599056" style="fill: #ff0000; stroke: #ff0000; stroke-linejoin: miter"/>
     <use xlink:href="#m95f76f44e2" x="787.308597" y="343.364364" style="fill: #ff0000; stroke: #ff0000; stroke-linejoin: miter"/>
     <use xlink:href="#m95f76f44e2" x="795.559586" y="341.284819" style="fill: #ff0000; stroke: #ff0000; stroke-linejoin: miter"/>
     <use xlink:href="#m95f76f44e2" x="804.085608" y="331.603012" style="fill: #ff0000; stroke: #ff0000; stroke-linejoin: miter"/>
     <use xlink:href="#m95f76f44e2" x="812.611629" y="298.495599" style="fill: #ff0000; stroke: #ff0000; stroke-linejoin: miter"/>
     <use xlink:href="#m95f76f44e2" x="820.587585" y="238.583642" style="fill: #ff0000; stroke: #ff0000; stroke-linejoin: miter"/>
     <use xlink:href="#m95f76f44e2" x="829.113607" y="173.401571" style="fill: #ff0000; stroke: #ff0000; stroke-linejoin: miter"/>
     <use xlink:href="#m95f76f44e2" x="837.364596" y="130.521879" style="fill: #ff0000; stroke: #ff0000; stroke-linejoin: miter"/>
     <use xlink:href="#m95f76f44e2" x="845.890617" y="155.175101" style="fill: #ff0000; stroke: #ff0000; stroke-linejoin: miter"/>
     <use xlink:href="#m95f76f44e2" x="854.141606" y="231.054389" style="fill: #ff0000; stroke: #ff0000; stroke-linejoin: miter"/>
     <use xlink:href="#m95f76f44e2" x="862.667628" y="293.614869" style="fill: #ff0000; stroke: #ff0000; stroke-linejoin: miter"/>
     <use xlink:href="#m95f76f44e2" x="871.19365" y="307.329455" style="fill: #ff0000; stroke: #ff0000; stroke-linejoin: miter"/>
     <use xlink:href="#m95f76f44e2" x="879.444638" y="309.058688" style="fill: #ff0000; stroke: #ff0000; stroke-linejoin: miter"/>
     <use xlink:href="#m95f76f44e2" x="887.97066" y="326.553857" style="fill: #ff0000; stroke: #ff0000; stroke-linejoin: miter"/>
     <use xlink:href="#m95f76f44e2" x="896.221649" y="331.350442" style="fill: #ff0000; stroke: #ff0000; stroke-linejoin: miter"/>
     <use xlink:href="#m95f76f44e2" x="904.747671" y="303.140691" style="fill: #ff0000; stroke: #ff0000; stroke-linejoin: miter"/>
     <use xlink:href="#m95f76f44e2" x="913.273692" y="278.585963" style="fill: #ff0000; stroke: #ff0000; stroke-linejoin: miter"/>
     <use xlink:href="#m95f76f44e2" x="920.974615" y="272.082122" style="fill: #ff0000; stroke: #ff0000; stroke-linejoin: miter"/>
     <use xlink:href="#m95f76f44e2" x="929.500637" y="229.807786" style="fill: #ff0000; stroke: #ff0000; stroke-linejoin: miter"/>
     <use xlink:href="#m95f76f44e2" x="937.751626" y="285.972893" style="fill: #ff0000; stroke: #ff0000; stroke-linejoin: miter"/>
     <use xlink:href="#m95f76f44e2" x="946.277648" y="304.611229" style="fill: #ff0000; stroke: #ff0000; stroke-linejoin: miter"/>
     <use xlink:href="#m95f76f44e2" x="954.528636" y="332.634949" style="fill: #ff0000; stroke: #ff0000; stroke-linejoin: miter"/>
    </g>
   </g>
   <g id="line2d_33">
    <path d="M 251.269359 345.470301 
L 259.795381 345.302558 
L 268.321403 345.617366 
L 276.572392 345.650106 
L 285.098413 345.561192 
L 293.349402 345.199548 
L 301.875424 344.512391 
L 310.401446 339.245817 
L 318.102369 341.363718 
L 326.62839 317.923035 
L 334.879379 287.195662 
L 343.405401 309.495521 
L 351.65639 311.977212 
L 360.182411 329.189724 
L 368.708433 341.062721 
L 376.959422 338.447642 
L 385.485444 341.589621 
L 393.736432 340.151007 
L 402.262454 338.027188 
L 410.788476 322.968192 
L 418.764432 301.519064 
L 427.290453 300.467451 
L 435.541442 324.093273 
L 444.067464 336.339304 
L 452.318453 342.364587 
L 460.844474 344.332565 
L 469.370496 344.931119 
L 477.621485 344.867212 
L 486.147507 345.12682 
L 494.398495 344.479202 
L 502.924517 343.356661 
L 511.450539 342.807815 
L 519.151462 338.404234 
L 527.677484 332.416973 
L 535.928472 332.461203 
L 544.454494 339.242584 
L 552.705483 343.583577 
L 561.231505 345.386329 
L 569.757526 345.56185 
L 578.008515 345.536438 
L 586.534537 345.586912 
L 594.785526 345.169337 
L 603.311547 343.614013 
L 611.837569 338.819809 
L 619.538492 336.748554 
L 628.064514 312.367514 
L 636.315502 296.377184 
L 644.841524 330.981056 
L 653.092513 340.290482 
L 661.618535 343.533881 
L 670.144556 344.80543 
L 678.395545 344.923309 
L 686.921567 344.438453 
L 695.172556 343.464781 
L 703.698577 341.52151 
L 712.224599 329.4977 
L 719.925522 312.62293 
L 728.451544 283.38943 
L 736.702533 281.757341 
L 745.228554 335.340033 
L 753.479543 339.644553 
L 762.005565 343.857768 
L 770.531587 344.629524 
L 778.782575 343.306814 
L 787.308597 341.237647 
L 795.559586 340.319485 
L 804.085608 331.032836 
L 812.611629 301.34397 
L 820.587585 277.468735 
L 829.113607 150.305592 
L 837.364596 100.611493 
L 845.890617 261.721957 
L 854.141606 290.499096 
L 862.667628 325.395098 
L 871.19365 337.033249 
L 879.444638 332.136435 
L 887.97066 336.281916 
L 896.221649 328.241097 
L 904.747671 294.945208 
L 913.273692 251.139346 
L 920.974615 188.700446 
L 929.500637 148.823799 
L 937.751626 277.451625 
L 946.277648 325.2146 
L 954.528636 339.021432 
" clip-path="url(#pc70ede057c)" style="fill: none; stroke-dasharray: 5.55,2.4; stroke-dashoffset: 0; stroke: #0000ff; stroke-width: 1.5"/>
    <defs>
     <path id="mbe20abc160" d="M 0 4.242641 
L 2.545584 0 
L 0 -4.242641 
L -2.545584 0 
z
" style="stroke: #0000ff; stroke-linejoin: miter"/>
    </defs>
    <g clip-path="url(#pc70ede057c)">
     <use xlink:href="#mbe20abc160" x="251.269359" y="345.470301" style="fill: #0000ff; stroke: #0000ff; stroke-linejoin: miter"/>
     <use xlink:href="#mbe20abc160" x="259.795381" y="345.302558" style="fill: #0000ff; stroke: #0000ff; stroke-linejoin: miter"/>
     <use xlink:href="#mbe20abc160" x="268.321403" y="345.617366" style="fill: #0000ff; stroke: #0000ff; stroke-linejoin: miter"/>
     <use xlink:href="#mbe20abc160" x="276.572392" y="345.650106" style="fill: #0000ff; stroke: #0000ff; stroke-linejoin: miter"/>
     <use xlink:href="#mbe20abc160" x="285.098413" y="345.561192" style="fill: #0000ff; stroke: #0000ff; stroke-linejoin: miter"/>
     <use xlink:href="#mbe20abc160" x="293.349402" y="345.199548" style="fill: #0000ff; stroke: #0000ff; stroke-linejoin: miter"/>
     <use xlink:href="#mbe20abc160" x="301.875424" y="344.512391" style="fill: #0000ff; stroke: #0000ff; stroke-linejoin: miter"/>
     <use xlink:href="#mbe20abc160" x="310.401446" y="339.245817" style="fill: #0000ff; stroke: #0000ff; stroke-linejoin: miter"/>
     <use xlink:href="#mbe20abc160" x="318.102369" y="341.363718" style="fill: #0000ff; stroke: #0000ff; stroke-linejoin: miter"/>
     <use xlink:href="#mbe20abc160" x="326.62839" y="317.923035" style="fill: #0000ff; stroke: #0000ff; stroke-linejoin: miter"/>
     <use xlink:href="#mbe20abc160" x="334.879379" y="287.195662" style="fill: #0000ff; stroke: #0000ff; stroke-linejoin: miter"/>
     <use xlink:href="#mbe20abc160" x="343.405401" y="309.495521" style="fill: #0000ff; stroke: #0000ff; stroke-linejoin: miter"/>
     <use xlink:href="#mbe20abc160" x="351.65639" y="311.977212" style="fill: #0000ff; stroke: #0000ff; stroke-linejoin: miter"/>
     <use xlink:href="#mbe20abc160" x="360.182411" y="329.189724" style="fill: #0000ff; stroke: #0000ff; stroke-linejoin: miter"/>
     <use xlink:href="#mbe20abc160" x="368.708433" y="341.062721" style="fill: #0000ff; stroke: #0000ff; stroke-linejoin: miter"/>
     <use xlink:href="#mbe20abc160" x="376.959422" y="338.447642" style="fill: #0000ff; stroke: #0000ff; stroke-linejoin: miter"/>
     <use xlink:href="#mbe20abc160" x="385.485444" y="341.589621" style="fill: #0000ff; stroke: #0000ff; stroke-linejoin: miter"/>
     <use xlink:href="#mbe20abc160" x="393.736432" y="340.151007" style="fill: #0000ff; stroke: #0000ff; stroke-linejoin: miter"/>
     <use xlink:href="#mbe20abc160" x="402.262454" y="338.027188" style="fill: #0000ff; stroke: #0000ff; stroke-linejoin: miter"/>
     <use xlink:href="#mbe20abc160" x="410.788476" y="322.968192" style="fill: #0000ff; stroke: #0000ff; stroke-linejoin: miter"/>
     <use xlink:href="#mbe20abc160" x="418.764432" y="301.519064" style="fill: #0000ff; stroke: #0000ff; stroke-linejoin: miter"/>
     <use xlink:href="#mbe20abc160" x="427.290453" y="300.467451" style="fill: #0000ff; stroke: #0000ff; stroke-linejoin: miter"/>
     <use xlink:href="#mbe20abc160" x="435.541442" y="324.093273" style="fill: #0000ff; stroke: #0000ff; stroke-linejoin: miter"/>
     <use xlink:href="#mbe20abc160" x="444.067464" y="336.339304" style="fill: #0000ff; stroke: #0000ff; stroke-linejoin: miter"/>
     <use xlink:href="#mbe20abc160" x="452.318453" y="342.364587" style="fill: #0000ff; stroke: #0000ff; stroke-linejoin: miter"/>
     <use xlink:href="#mbe20abc160" x="460.844474" y="344.332565" style="fill: #0000ff; stroke: #0000ff; stroke-linejoin: miter"/>
     <use xlink:href="#mbe20abc160" x="469.370496" y="344.931119" style="fill: #0000ff; stroke: #0000ff; stroke-linejoin: miter"/>
     <use xlink:href="#mbe20abc160" x="477.621485" y="344.867212" style="fill: #0000ff; stroke: #0000ff; stroke-linejoin: miter"/>
     <use xlink:href="#mbe20abc160" x="486.147507" y="345.12682" style="fill: #0000ff; stroke: #0000ff; stroke-linejoin: miter"/>
     <use xlink:href="#mbe20abc160" x="494.398495" y="344.479202" style="fill: #0000ff; stroke: #0000ff; stroke-linejoin: miter"/>
     <use xlink:href="#mbe20abc160" x="502.924517" y="343.356661" style="fill: #0000ff; stroke: #0000ff; stroke-linejoin: miter"/>
     <use xlink:href="#mbe20abc160" x="511.450539" y="342.807815" style="fill: #0000ff; stroke: #0000ff; stroke-linejoin: miter"/>
     <use xlink:href="#mbe20abc160" x="519.151462" y="338.404234" style="fill: #0000ff; stroke: #0000ff; stroke-linejoin: miter"/>
     <use xlink:href="#mbe20abc160" x="527.677484" y="332.416973" style="fill: #0000ff; stroke: #0000ff; stroke-linejoin: miter"/>
     <use xlink:href="#mbe20abc160" x="535.928472" y="332.461203" style="fill: #0000ff; stroke: #0000ff; stroke-linejoin: miter"/>
     <use xlink:href="#mbe20abc160" x="544.454494" y="339.242584" style="fill: #0000ff; stroke: #0000ff; stroke-linejoin: miter"/>
     <use xlink:href="#mbe20abc160" x="552.705483" y="343.583577" style="fill: #0000ff; stroke: #0000ff; stroke-linejoin: miter"/>
     <use xlink:href="#mbe20abc160" x="561.231505" y="345.386329" style="fill: #0000ff; stroke: #0000ff; stroke-linejoin: miter"/>
     <use xlink:href="#mbe20abc160" x="569.757526" y="345.56185" style="fill: #0000ff; stroke: #0000ff; stroke-linejoin: miter"/>
     <use xlink:href="#mbe20abc160" x="578.008515" y="345.536438" style="fill: #0000ff; stroke: #0000ff; stroke-linejoin: miter"/>
     <use xlink:href="#mbe20abc160" x="586.534537" y="345.586912" style="fill: #0000ff; stroke: #0000ff; stroke-linejoin: miter"/>
     <use xlink:href="#mbe20abc160" x="594.785526" y="345.169337" style="fill: #0000ff; stroke: #0000ff; stroke-linejoin: miter"/>
     <use xlink:href="#mbe20abc160" x="603.311547" y="343.614013" style="fill: #0000ff; stroke: #0000ff; stroke-linejoin: miter"/>
     <use xlink:href="#mbe20abc160" x="611.837569" y="338.819809" style="fill: #0000ff; stroke: #0000ff; stroke-linejoin: miter"/>
     <use xlink:href="#mbe20abc160" x="619.538492" y="336.748554" style="fill: #0000ff; stroke: #0000ff; stroke-linejoin: miter"/>
     <use xlink:href="#mbe20abc160" x="628.064514" y="312.367514" style="fill: #0000ff; stroke: #0000ff; stroke-linejoin: miter"/>
     <use xlink:href="#mbe20abc160" x="636.315502" y="296.377184" style="fill: #0000ff; stroke: #0000ff; stroke-linejoin: miter"/>
     <use xlink:href="#mbe20abc160" x="644.841524" y="330.981056" style="fill: #0000ff; stroke: #0000ff; stroke-linejoin: miter"/>
     <use xlink:href="#mbe20abc160" x="653.092513" y="340.290482" style="fill: #0000ff; stroke: #0000ff; stroke-linejoin: miter"/>
     <use xlink:href="#mbe20abc160" x="661.618535" y="343.533881" style="fill: #0000ff; stroke: #0000ff; stroke-linejoin: miter"/>
     <use xlink:href="#mbe20abc160" x="670.144556" y="344.80543" style="fill: #0000ff; stroke: #0000ff; stroke-linejoin: miter"/>
     <use xlink:href="#mbe20abc160" x="678.395545" y="344.923309" style="fill: #0000ff; stroke: #0000ff; stroke-linejoin: miter"/>
     <use xlink:href="#mbe20abc160" x="686.921567" y="344.438453" style="fill: #0000ff; stroke: #0000ff; stroke-linejoin: miter"/>
     <use xlink:href="#mbe20abc160" x="695.172556" y="343.464781" style="fill: #0000ff; stroke: #0000ff; stroke-linejoin: miter"/>
     <use xlink:href="#mbe20abc160" x="703.698577" y="341.52151" style="fill: #0000ff; stroke: #0000ff; stroke-linejoin: miter"/>
     <use xlink:href="#mbe20abc160" x="712.224599" y="329.4977" style="fill: #0000ff; stroke: #0000ff; stroke-linejoin: miter"/>
     <use xlink:href="#mbe20abc160" x="719.925522" y="312.62293" style="fill: #0000ff; stroke: #0000ff; stroke-linejoin: miter"/>
     <use xlink:href="#mbe20abc160" x="728.451544" y="283.38943" style="fill: #0000ff; stroke: #0000ff; stroke-linejoin: miter"/>
     <use xlink:href="#mbe20abc160" x="736.702533" y="281.757341" style="fill: #0000ff; stroke: #0000ff; stroke-linejoin: miter"/>
     <use xlink:href="#mbe20abc160" x="745.228554" y="335.340033" style="fill: #0000ff; stroke: #0000ff; stroke-linejoin: miter"/>
     <use xlink:href="#mbe20abc160" x="753.479543" y="339.644553" style="fill: #0000ff; stroke: #0000ff; stroke-linejoin: miter"/>
     <use xlink:href="#mbe20abc160" x="762.005565" y="343.857768" style="fill: #0000ff; stroke: #0000ff; stroke-linejoin: miter"/>
     <use xlink:href="#mbe20abc160" x="770.531587" y="344.629524" style="fill: #0000ff; stroke: #0000ff; stroke-linejoin: miter"/>
     <use xlink:href="#mbe20abc160" x="778.782575" y="343.306814" style="fill: #0000ff; stroke: #0000ff; stroke-linejoin: miter"/>
     <use xlink:href="#mbe20abc160" x="787.308597" y="341.237647" style="fill: #0000ff; stroke: #0000ff; stroke-linejoin: miter"/>
     <use xlink:href="#mbe20abc160" x="795.559586" y="340.319485" style="fill: #0000ff; stroke: #0000ff; stroke-linejoin: miter"/>
     <use xlink:href="#mbe20abc160" x="804.085608" y="331.032836" style="fill: #0000ff; stroke: #0000ff; stroke-linejoin: miter"/>
     <use xlink:href="#mbe20abc160" x="812.611629" y="301.34397" style="fill: #0000ff; stroke: #0000ff; stroke-linejoin: miter"/>
     <use xlink:href="#mbe20abc160" x="820.587585" y="277.468735" style="fill: #0000ff; stroke: #0000ff; stroke-linejoin: miter"/>
     <use xlink:href="#mbe20abc160" x="829.113607" y="150.305592" style="fill: #0000ff; stroke: #0000ff; stroke-linejoin: miter"/>
     <use xlink:href="#mbe20abc160" x="837.364596" y="100.611493" style="fill: #0000ff; stroke: #0000ff; stroke-linejoin: miter"/>
     <use xlink:href="#mbe20abc160" x="845.890617" y="261.721957" style="fill: #0000ff; stroke: #0000ff; stroke-linejoin: miter"/>
     <use xlink:href="#mbe20abc160" x="854.141606" y="290.499096" style="fill: #0000ff; stroke: #0000ff; stroke-linejoin: miter"/>
     <use xlink:href="#mbe20abc160" x="862.667628" y="325.395098" style="fill: #0000ff; stroke: #0000ff; stroke-linejoin: miter"/>
     <use xlink:href="#mbe20abc160" x="871.19365" y="337.033249" style="fill: #0000ff; stroke: #0000ff; stroke-linejoin: miter"/>
     <use xlink:href="#mbe20abc160" x="879.444638" y="332.136435" style="fill: #0000ff; stroke: #0000ff; stroke-linejoin: miter"/>
     <use xlink:href="#mbe20abc160" x="887.97066" y="336.281916" style="fill: #0000ff; stroke: #0000ff; stroke-linejoin: miter"/>
     <use xlink:href="#mbe20abc160" x="896.221649" y="328.241097" style="fill: #0000ff; stroke: #0000ff; stroke-linejoin: miter"/>
     <use xlink:href="#mbe20abc160" x="904.747671" y="294.945208" style="fill: #0000ff; stroke: #0000ff; stroke-linejoin: miter"/>
     <use xlink:href="#mbe20abc160" x="913.273692" y="251.139346" style="fill: #0000ff; stroke: #0000ff; stroke-linejoin: miter"/>
     <use xlink:href="#mbe20abc160" x="920.974615" y="188.700446" style="fill: #0000ff; stroke: #0000ff; stroke-linejoin: miter"/>
     <use xlink:href="#mbe20abc160" x="929.500637" y="148.823799" style="fill: #0000ff; stroke: #0000ff; stroke-linejoin: miter"/>
     <use xlink:href="#mbe20abc160" x="937.751626" y="277.451625" style="fill: #0000ff; stroke: #0000ff; stroke-linejoin: miter"/>
     <use xlink:href="#mbe20abc160" x="946.277648" y="325.2146" style="fill: #0000ff; stroke: #0000ff; stroke-linejoin: miter"/>
     <use xlink:href="#mbe20abc160" x="954.528636" y="339.021432" style="fill: #0000ff; stroke: #0000ff; stroke-linejoin: miter"/>
    </g>
   </g>
   <g id="patch_3">
    <path d="M 58.43 360.925494 
L 58.43 34.305 
" style="fill: none; stroke: #000000; stroke-width: 0.8; stroke-linejoin: miter; stroke-linecap: square"/>
   </g>
   <g id="patch_4">
    <path d="M 997.2 360.925494 
L 997.2 34.305 
" style="fill: none; stroke: #000000; stroke-width: 0.8; stroke-linejoin: miter; stroke-linecap: square"/>
   </g>
   <g id="patch_5">
    <path d="M 58.43 360.925494 
L 997.2 360.925494 
" style="fill: none; stroke: #000000; stroke-width: 0.8; stroke-linejoin: miter; stroke-linecap: square"/>
   </g>
   <g id="patch_6">
    <path d="M 58.43 34.305 
L 997.2 34.305 
" style="fill: none; stroke: #000000; stroke-width: 0.8; stroke-linejoin: miter; stroke-linecap: square"/>
   </g>
   <g id="text_19">
    <!-- Previsão Mensal de Casos de Dengue com Janela Deslizante -->
    <g transform="translate(197.125781 28.305) scale(0.22 -0.22)">
     <defs>
      <path id="DejaVuSans-50" d="M 1259 4147 
L 1259 2394 
L 2053 2394 
Q 2494 2394 2734 2622 
Q 2975 2850 2975 3272 
Q 2975 3691 2734 3919 
Q 2494 4147 2053 4147 
L 1259 4147 
z
M 628 4666 
L 2053 4666 
Q 2838 4666 3239 4311 
Q 3641 3956 3641 3272 
Q 3641 2581 3239 2228 
Q 2838 1875 2053 1875 
L 1259 1875 
L 1259 0 
L 628 0 
L 628 4666 
z
" transform="scale(0.015625)"/>
      <path id="DejaVuSans-76" d="M 191 3500 
L 800 3500 
L 1894 563 
L 2988 3500 
L 3597 3500 
L 2284 0 
L 1503 0 
L 191 3500 
z
" transform="scale(0.015625)"/>
      <path id="DejaVuSans-69" d="M 603 3500 
L 1178 3500 
L 1178 0 
L 603 0 
L 603 3500 
z
M 603 4863 
L 1178 4863 
L 1178 4134 
L 603 4134 
L 603 4863 
z
" transform="scale(0.015625)"/>
      <path id="DejaVuSans-e3" d="M 2194 1759 
Q 1497 1759 1228 1600 
Q 959 1441 959 1056 
Q 959 750 1161 570 
Q 1363 391 1709 391 
Q 2188 391 2477 730 
Q 2766 1069 2766 1631 
L 2766 1759 
L 2194 1759 
z
M 3341 1997 
L 3341 0 
L 2766 0 
L 2766 531 
Q 2569 213 2275 61 
Q 1981 -91 1556 -91 
Q 1019 -91 701 211 
Q 384 513 384 1019 
Q 384 1609 779 1909 
Q 1175 2209 1959 2209 
L 2766 2209 
L 2766 2266 
Q 2766 2663 2505 2880 
Q 2244 3097 1772 3097 
Q 1472 3097 1187 3025 
Q 903 2953 641 2809 
L 641 3341 
Q 956 3463 1253 3523 
Q 1550 3584 1831 3584 
Q 2591 3584 2966 3190 
Q 3341 2797 3341 1997 
z
M 1844 4281 
L 1665 4453 
Q 1597 4516 1545 4545 
Q 1494 4575 1453 4575 
Q 1334 4575 1278 4461 
Q 1222 4347 1215 4091 
L 825 4091 
Q 831 4513 990 4742 
Q 1150 4972 1434 4972 
Q 1553 4972 1653 4928 
Q 1753 4884 1869 4781 
L 2047 4609 
Q 2115 4547 2167 4517 
Q 2219 4488 2259 4488 
Q 2378 4488 2434 4602 
Q 2490 4716 2497 4972 
L 2887 4972 
Q 2881 4550 2721 4320 
Q 2562 4091 2278 4091 
Q 2159 4091 2059 4134 
Q 1959 4178 1844 4281 
z
" transform="scale(0.015625)"/>
      <path id="DejaVuSans-4d" d="M 628 4666 
L 1569 4666 
L 2759 1491 
L 3956 4666 
L 4897 4666 
L 4897 0 
L 4281 0 
L 4281 4097 
L 3078 897 
L 2444 897 
L 1241 4097 
L 1241 0 
L 628 0 
L 628 4666 
z
" transform="scale(0.015625)"/>
      <path id="DejaVuSans-6e" d="M 3513 2113 
L 3513 0 
L 2938 0 
L 2938 2094 
Q 2938 2591 2744 2837 
Q 2550 3084 2163 3084 
Q 1697 3084 1428 2787 
Q 1159 2491 1159 1978 
L 1159 0 
L 581 0 
L 581 3500 
L 1159 3500 
L 1159 2956 
Q 1366 3272 1645 3428 
Q 1925 3584 2291 3584 
Q 2894 3584 3203 3211 
Q 3513 2838 3513 2113 
z
" transform="scale(0.015625)"/>
      <path id="DejaVuSans-6c" d="M 603 4863 
L 1178 4863 
L 1178 0 
L 603 0 
L 603 4863 
z
" transform="scale(0.015625)"/>
      <path id="DejaVuSans-67" d="M 2906 1791 
Q 2906 2416 2648 2759 
Q 2391 3103 1925 3103 
Q 1463 3103 1205 2759 
Q 947 2416 947 1791 
Q 947 1169 1205 825 
Q 1463 481 1925 481 
Q 2391 481 2648 825 
Q 2906 1169 2906 1791 
z
M 3481 434 
Q 3481 -459 3084 -895 
Q 2688 -1331 1869 -1331 
Q 1566 -1331 1297 -1286 
Q 1028 -1241 775 -1147 
L 775 -588 
Q 1028 -725 1275 -790 
Q 1522 -856 1778 -856 
Q 2344 -856 2625 -561 
Q 2906 -266 2906 331 
L 2906 616 
Q 2728 306 2450 153 
Q 2172 0 1784 0 
Q 1141 0 747 490 
Q 353 981 353 1791 
Q 353 2603 747 3093 
Q 1141 3584 1784 3584 
Q 2172 3584 2450 3431 
Q 2728 3278 2906 2969 
L 2906 3500 
L 3481 3500 
L 3481 434 
z
" transform="scale(0.015625)"/>
      <path id="DejaVuSans-75" d="M 544 1381 
L 544 3500 
L 1119 3500 
L 1119 1403 
Q 1119 906 1312 657 
Q 1506 409 1894 409 
Q 2359 409 2629 706 
Q 2900 1003 2900 1516 
L 2900 3500 
L 3475 3500 
L 3475 0 
L 2900 0 
L 2900 538 
Q 2691 219 2414 64 
Q 2138 -91 1772 -91 
Q 1169 -91 856 284 
Q 544 659 544 1381 
z
M 1991 3584 
L 1991 3584 
z
" transform="scale(0.015625)"/>
      <path id="DejaVuSans-63" d="M 3122 3366 
L 3122 2828 
Q 2878 2963 2633 3030 
Q 2388 3097 2138 3097 
Q 1578 3097 1268 2742 
Q 959 2388 959 1747 
Q 959 1106 1268 751 
Q 1578 397 2138 397 
Q 2388 397 2633 464 
Q 2878 531 3122 666 
L 3122 134 
Q 2881 22 2623 -34 
Q 2366 -91 2075 -91 
Q 1284 -91 818 406 
Q 353 903 353 1747 
Q 353 2603 823 3093 
Q 1294 3584 2113 3584 
Q 2378 3584 2631 3529 
Q 2884 3475 3122 3366 
z
" transform="scale(0.015625)"/>
      <path id="DejaVuSans-4a" d="M 628 4666 
L 1259 4666 
L 1259 325 
Q 1259 -519 939 -900 
Q 619 -1281 -91 -1281 
L -331 -1281 
L -331 -750 
L -134 -750 
Q 284 -750 456 -515 
Q 628 -281 628 325 
L 628 4666 
z
" transform="scale(0.015625)"/>
      <path id="DejaVuSans-7a" d="M 353 3500 
L 3084 3500 
L 3084 2975 
L 922 459 
L 3084 459 
L 3084 0 
L 275 0 
L 275 525 
L 2438 3041 
L 353 3041 
L 353 3500 
z
" transform="scale(0.015625)"/>
     </defs>
     <use xlink:href="#DejaVuSans-50"/>
     <use xlink:href="#DejaVuSans-72" transform="translate(58.552734 0)"/>
     <use xlink:href="#DejaVuSans-65" transform="translate(97.416016 0)"/>
     <use xlink:href="#DejaVuSans-76" transform="translate(158.939453 0)"/>
     <use xlink:href="#DejaVuSans-69" transform="translate(218.119141 0)"/>
     <use xlink:href="#DejaVuSans-73" transform="translate(245.902344 0)"/>
     <use xlink:href="#DejaVuSans-e3" transform="translate(298.001953 0)"/>
     <use xlink:href="#DejaVuSans-6f" transform="translate(359.28125 0)"/>
     <use xlink:href="#DejaVuSans-20" transform="translate(420.462891 0)"/>
     <use xlink:href="#DejaVuSans-4d" transform="translate(452.25 0)"/>
     <use xlink:href="#DejaVuSans-65" transform="translate(538.529297 0)"/>
     <use xlink:href="#DejaVuSans-6e" transform="translate(600.052734 0)"/>
     <use xlink:href="#DejaVuSans-73" transform="translate(663.431641 0)"/>
     <use xlink:href="#DejaVuSans-61" transform="translate(715.53125 0)"/>
     <use xlink:href="#DejaVuSans-6c" transform="translate(776.810547 0)"/>
     <use xlink:href="#DejaVuSans-20" transform="translate(804.59375 0)"/>
     <use xlink:href="#DejaVuSans-64" transform="translate(836.380859 0)"/>
     <use xlink:href="#DejaVuSans-65" transform="translate(899.857422 0)"/>
     <use xlink:href="#DejaVuSans-20" transform="translate(961.380859 0)"/>
     <use xlink:href="#DejaVuSans-43" transform="translate(993.167969 0)"/>
     <use xlink:href="#DejaVuSans-61" transform="translate(1062.992188 0)"/>
     <use xlink:href="#DejaVuSans-73" transform="translate(1124.271484 0)"/>
     <use xlink:href="#DejaVuSans-6f" transform="translate(1176.371094 0)"/>
     <use xlink:href="#DejaVuSans-73" transform="translate(1237.552734 0)"/>
     <use xlink:href="#DejaVuSans-20" transform="translate(1289.652344 0)"/>
     <use xlink:href="#DejaVuSans-64" transform="translate(1321.439453 0)"/>
     <use xlink:href="#DejaVuSans-65" transform="translate(1384.916016 0)"/>
     <use xlink:href="#DejaVuSans-20" transform="translate(1446.439453 0)"/>
     <use xlink:href="#DejaVuSans-44" transform="translate(1478.226562 0)"/>
     <use xlink:href="#DejaVuSans-65" transform="translate(1555.228516 0)"/>
     <use xlink:href="#DejaVuSans-6e" transform="translate(1616.751953 0)"/>
     <use xlink:href="#DejaVuSans-67" transform="translate(1680.130859 0)"/>
     <use xlink:href="#DejaVuSans-75" transform="translate(1743.607422 0)"/>
     <use xlink:href="#DejaVuSans-65" transform="translate(1806.986328 0)"/>
     <use xlink:href="#DejaVuSans-20" transform="translate(1868.509766 0)"/>
     <use xlink:href="#DejaVuSans-63" transform="translate(1900.296875 0)"/>
     <use xlink:href="#DejaVuSans-6f" transform="translate(1955.277344 0)"/>
     <use xlink:href="#DejaVuSans-6d" transform="translate(2016.458984 0)"/>
     <use xlink:href="#DejaVuSans-20" transform="translate(2113.871094 0)"/>
     <use xlink:href="#DejaVuSans-4a" transform="translate(2145.658203 0)"/>
     <use xlink:href="#DejaVuSans-61" transform="translate(2175.150391 0)"/>
     <use xlink:href="#DejaVuSans-6e" transform="translate(2236.429688 0)"/>
     <use xlink:href="#DejaVuSans-65" transform="translate(2299.808594 0)"/>
     <use xlink:href="#DejaVuSans-6c" transform="translate(2361.332031 0)"/>
     <use xlink:href="#DejaVuSans-61" transform="translate(2389.115234 0)"/>
     <use xlink:href="#DejaVuSans-20" transform="translate(2450.394531 0)"/>
     <use xlink:href="#DejaVuSans-44" transform="translate(2482.181641 0)"/>
     <use xlink:href="#DejaVuSans-65" transform="translate(2559.183594 0)"/>
     <use xlink:href="#DejaVuSans-73" transform="translate(2620.707031 0)"/>
     <use xlink:href="#DejaVuSans-6c" transform="translate(2672.806641 0)"/>
     <use xlink:href="#DejaVuSans-69" transform="translate(2700.589844 0)"/>
     <use xlink:href="#DejaVuSans-7a" transform="translate(2728.373047 0)"/>
     <use xlink:href="#DejaVuSans-61" transform="translate(2780.863281 0)"/>
     <use xlink:href="#DejaVuSans-6e" transform="translate(2842.142578 0)"/>
     <use xlink:href="#DejaVuSans-74" transform="translate(2905.521484 0)"/>
     <use xlink:href="#DejaVuSans-65" transform="translate(2944.730469 0)"/>
    </g>
   </g>
   <g id="legend_1">
    <g id="patch_7">
     <path d="M 68.23 127.940938 
L 285.044062 127.940938 
Q 287.844063 127.940938 287.844063 125.140938 
L 287.844063 44.105 
Q 287.844063 41.305 285.044062 41.305 
L 68.23 41.305 
Q 65.43 41.305 65.43 44.105 
L 65.43 125.140938 
Q 65.43 127.940938 68.23 127.940938 
z
" style="fill: #ffffff; opacity: 0.8; stroke: #cccccc; stroke-linejoin: miter"/>
    </g>
    <g id="line2d_34">
     <path d="M 71.03 52.642813 
L 85.03 52.642813 
L 99.03 52.642813 
" style="fill: none; stroke: #008000; stroke-width: 1.5; stroke-linecap: square"/>
     <g>
      <use xlink:href="#m2df71cbee3" x="85.03" y="52.642813" style="fill: #008000; stroke: #008000"/>
     </g>
    </g>
    <g id="text_20">
     <!-- Casos reais -->
     <g transform="translate(110.23 57.542813) scale(0.14 -0.14)">
      <use xlink:href="#DejaVuSans-43"/>
      <use xlink:href="#DejaVuSans-61" transform="translate(69.824219 0)"/>
      <use xlink:href="#DejaVuSans-73" transform="translate(131.103516 0)"/>
      <use xlink:href="#DejaVuSans-6f" transform="translate(183.203125 0)"/>
      <use xlink:href="#DejaVuSans-73" transform="translate(244.384766 0)"/>
      <use xlink:href="#DejaVuSans-20" transform="translate(296.484375 0)"/>
      <use xlink:href="#DejaVuSans-72" transform="translate(328.271484 0)"/>
      <use xlink:href="#DejaVuSans-65" transform="translate(367.134766 0)"/>
      <use xlink:href="#DejaVuSans-61" transform="translate(428.658203 0)"/>
      <use xlink:href="#DejaVuSans-69" transform="translate(489.9375 0)"/>
      <use xlink:href="#DejaVuSans-73" transform="translate(517.720703 0)"/>
     </g>
    </g>
    <g id="line2d_35">
     <path d="M 71.03 73.192188 
L 85.03 73.192188 
L 99.03 73.192188 
" style="fill: none; stroke-dasharray: 5.55,2.4; stroke-dashoffset: 0; stroke: #ff0000; stroke-width: 1.5"/>
     <g>
      <use xlink:href="#m95f76f44e2" x="85.03" y="73.192188" style="fill: #ff0000; stroke: #ff0000; stroke-linejoin: miter"/>
     </g>
    </g>
    <g id="text_21">
     <!-- Random Forest -->
     <g transform="translate(110.23 78.092188) scale(0.14 -0.14)">
      <defs>
       <path id="DejaVuSans-52" d="M 2841 2188 
Q 3044 2119 3236 1894 
Q 3428 1669 3622 1275 
L 4263 0 
L 3584 0 
L 2988 1197 
Q 2756 1666 2539 1819 
Q 2322 1972 1947 1972 
L 1259 1972 
L 1259 0 
L 628 0 
L 628 4666 
L 2053 4666 
Q 2853 4666 3247 4331 
Q 3641 3997 3641 3322 
Q 3641 2881 3436 2590 
Q 3231 2300 2841 2188 
z
M 1259 4147 
L 1259 2491 
L 2053 2491 
Q 2509 2491 2742 2702 
Q 2975 2913 2975 3322 
Q 2975 3731 2742 3939 
Q 2509 4147 2053 4147 
L 1259 4147 
z
" transform="scale(0.015625)"/>
       <path id="DejaVuSans-46" d="M 628 4666 
L 3309 4666 
L 3309 4134 
L 1259 4134 
L 1259 2759 
L 3109 2759 
L 3109 2228 
L 1259 2228 
L 1259 0 
L 628 0 
L 628 4666 
z
" transform="scale(0.015625)"/>
      </defs>
      <use xlink:href="#DejaVuSans-52"/>
      <use xlink:href="#DejaVuSans-61" transform="translate(67.232422 0)"/>
      <use xlink:href="#DejaVuSans-6e" transform="translate(128.511719 0)"/>
      <use xlink:href="#DejaVuSans-64" transform="translate(191.890625 0)"/>
      <use xlink:href="#DejaVuSans-6f" transform="translate(255.367188 0)"/>
      <use xlink:href="#DejaVuSans-6d" transform="translate(316.548828 0)"/>
      <use xlink:href="#DejaVuSans-20" transform="translate(413.960938 0)"/>
      <use xlink:href="#DejaVuSans-46" transform="translate(445.748047 0)"/>
      <use xlink:href="#DejaVuSans-6f" transform="translate(499.642578 0)"/>
      <use xlink:href="#DejaVuSans-72" transform="translate(560.824219 0)"/>
      <use xlink:href="#DejaVuSans-65" transform="translate(599.6875 0)"/>
      <use xlink:href="#DejaVuSans-73" transform="translate(661.210938 0)"/>
      <use xlink:href="#DejaVuSans-74" transform="translate(713.310547 0)"/>
     </g>
    </g>
    <g id="line2d_36">
     <path d="M 71.03 93.98 
L 85.03 93.98 
L 99.03 93.98 
" style="fill: none; stroke-dasharray: 5.55,2.4; stroke-dashoffset: 0; stroke: #0000ff; stroke-width: 1.5"/>
     <g>
      <use xlink:href="#mbe20abc160" x="85.03" y="93.98" style="fill: #0000ff; stroke: #0000ff; stroke-linejoin: miter"/>
     </g>
    </g>
    <g id="text_22">
     <!-- Regressão Polinomial -->
     <g transform="translate(110.23 98.88) scale(0.14 -0.14)">
      <use xlink:href="#DejaVuSans-52"/>
      <use xlink:href="#DejaVuSans-65" transform="translate(64.982422 0)"/>
      <use xlink:href="#DejaVuSans-67" transform="translate(126.505859 0)"/>
      <use xlink:href="#DejaVuSans-72" transform="translate(189.982422 0)"/>
      <use xlink:href="#DejaVuSans-65" transform="translate(228.845703 0)"/>
      <use xlink:href="#DejaVuSans-73" transform="translate(290.369141 0)"/>
      <use xlink:href="#DejaVuSans-73" transform="translate(342.46875 0)"/>
      <use xlink:href="#DejaVuSans-e3" transform="translate(394.568359 0)"/>
      <use xlink:href="#DejaVuSans-6f" transform="translate(455.847656 0)"/>
      <use xlink:href="#DejaVuSans-20" transform="translate(517.029297 0)"/>
      <use xlink:href="#DejaVuSans-50" transform="translate(548.816406 0)"/>
      <use xlink:href="#DejaVuSans-6f" transform="translate(605.494141 0)"/>
      <use xlink:href="#DejaVuSans-6c" transform="translate(666.675781 0)"/>
      <use xlink:href="#DejaVuSans-69" transform="translate(694.458984 0)"/>
      <use xlink:href="#DejaVuSans-6e" transform="translate(722.242188 0)"/>
      <use xlink:href="#DejaVuSans-6f" transform="translate(785.621094 0)"/>
      <use xlink:href="#DejaVuSans-6d" transform="translate(846.802734 0)"/>
      <use xlink:href="#DejaVuSans-69" transform="translate(944.214844 0)"/>
      <use xlink:href="#DejaVuSans-61" transform="translate(971.998047 0)"/>
      <use xlink:href="#DejaVuSans-6c" transform="translate(1033.277344 0)"/>
     </g>
    </g>
    <g id="patch_8">
     <path d="M 71.03 119.429375 
L 99.03 119.429375 
L 99.03 109.629375 
L 71.03 109.629375 
z
" style="fill: #d3d3d3; fill-opacity: 0.5; stroke: #d3d3d3; stroke-opacity: 0.5; stroke-linejoin: miter"/>
    </g>
    <g id="text_23">
     <!-- Intervalo de Casos Reais -->
     <g transform="translate(110.23 119.429375) scale(0.14 -0.14)">
      <defs>
       <path id="DejaVuSans-49" d="M 628 4666 
L 1259 4666 
L 1259 0 
L 628 0 
L 628 4666 
z
" transform="scale(0.015625)"/>
      </defs>
      <use xlink:href="#DejaVuSans-49"/>
      <use xlink:href="#DejaVuSans-6e" transform="translate(29.492188 0)"/>
      <use xlink:href="#DejaVuSans-74" transform="translate(92.871094 0)"/>
      <use xlink:href="#DejaVuSans-65" transform="translate(132.080078 0)"/>
      <use xlink:href="#DejaVuSans-72" transform="translate(193.603516 0)"/>
      <use xlink:href="#DejaVuSans-76" transform="translate(234.716797 0)"/>
      <use xlink:href="#DejaVuSans-61" transform="translate(293.896484 0)"/>
      <use xlink:href="#DejaVuSans-6c" transform="translate(355.175781 0)"/>
      <use xlink:href="#DejaVuSans-6f" transform="translate(382.958984 0)"/>
      <use xlink:href="#DejaVuSans-20" transform="translate(444.140625 0)"/>
      <use xlink:href="#DejaVuSans-64" transform="translate(475.927734 0)"/>
      <use xlink:href="#DejaVuSans-65" transform="translate(539.404297 0)"/>
      <use xlink:href="#DejaVuSans-20" transform="translate(600.927734 0)"/>
      <use xlink:href="#DejaVuSans-43" transform="translate(632.714844 0)"/>
      <use xlink:href="#DejaVuSans-61" transform="translate(702.539062 0)"/>
      <use xlink:href="#DejaVuSans-73" transform="translate(763.818359 0)"/>
      <use xlink:href="#DejaVuSans-6f" transform="translate(815.917969 0)"/>
      <use xlink:href="#DejaVuSans-73" transform="translate(877.099609 0)"/>
      <use xlink:href="#DejaVuSans-20" transform="translate(929.199219 0)"/>
      <use xlink:href="#DejaVuSans-52" transform="translate(960.986328 0)"/>
      <use xlink:href="#DejaVuSans-65" transform="translate(1025.96875 0)"/>
      <use xlink:href="#DejaVuSans-61" transform="translate(1087.492188 0)"/>
      <use xlink:href="#DejaVuSans-69" transform="translate(1148.771484 0)"/>
      <use xlink:href="#DejaVuSans-73" transform="translate(1176.554688 0)"/>
     </g>
    </g>
   </g>
  </g>
 </g>
 <defs>
  <clipPath id="pc70ede057c">
   <rect x="58.43" y="34.305" width="938.77" height="326.620494"/>
  </clipPath>
 </defs>
</svg>
