<?xml version="1.0" encoding="utf-8" standalone="no"?>
<!DOCTYPE svg PUBLIC "-//W3C//DTD SVG 1.1//EN"
  "http://www.w3.org/Graphics/SVG/1.1/DTD/svg11.dtd">
<svg xmlns:xlink="http://www.w3.org/1999/xlink" width="1008pt" height="720pt" viewBox="0 0 1008 720" xmlns="http://www.w3.org/2000/svg" version="1.1">
 <metadata>
  <rdf:RDF xmlns:dc="http://purl.org/dc/elements/1.1/" xmlns:cc="http://creativecommons.org/ns#" xmlns:rdf="http://www.w3.org/1999/02/22-rdf-syntax-ns#">
   <cc:Work>
    <dc:type rdf:resource="http://purl.org/dc/dcmitype/StillImage"/>
    <dc:date>2025-07-21T23:06:43.675732</dc:date>
    <dc:format>image/svg+xml</dc:format>
    <dc:creator>
     <cc:Agent>
      <dc:title>Matplotlib v3.10.3, https://matplotlib.org/</dc:title>
     </cc:Agent>
    </dc:creator>
   </cc:Work>
  </rdf:RDF>
 </metadata>
 <defs>
  <style type="text/css">*{stroke-linejoin: round; stroke-linecap: butt}</style>
 </defs>
 <g id="figure_1">
  <g id="patch_1">
   <path d="M 0 720 
L 1008 720 
L 1008 0 
L 0 0 
z
" style="fill: #ffffff"/>
  </g>
  <g id="axes_1">
   <g id="patch_2">
    <path d="M 70.9 330.671289 
L 997.2 330.671289 
L 997.2 34.305 
L 70.9 34.305 
z
" style="fill: #ffffff"/>
   </g>
   <g id="matplotlib.axis_1">
    <g id="xtick_1">
     <g id="line2d_1">
      <path d="M 173.600841 330.671289 
L 173.600841 34.305 
" clip-path="url(#p05cbf629d3)" style="fill: none; stroke: #b0b0b0; stroke-width: 0.8; stroke-linecap: square"/>
     </g>
     <g id="line2d_2">
      <defs>
       <path id="ma92064d3cc" d="M 0 0 
L 0 3.5 
" style="stroke: #000000; stroke-width: 0.8"/>
      </defs>
      <g>
       <use xlink:href="#ma92064d3cc" x="173.600841" y="330.671289" style="stroke: #000000; stroke-width: 0.8"/>
      </g>
     </g>
    </g>
    <g id="xtick_2">
     <g id="line2d_3">
      <path d="M 293.805449 330.671289 
L 293.805449 34.305 
" clip-path="url(#p05cbf629d3)" style="fill: none; stroke: #b0b0b0; stroke-width: 0.8; stroke-linecap: square"/>
     </g>
     <g id="line2d_4">
      <g>
       <use xlink:href="#ma92064d3cc" x="293.805449" y="330.671289" style="stroke: #000000; stroke-width: 0.8"/>
      </g>
     </g>
    </g>
    <g id="xtick_3">
     <g id="line2d_5">
      <path d="M 414.339384 330.671289 
L 414.339384 34.305 
" clip-path="url(#p05cbf629d3)" style="fill: none; stroke: #b0b0b0; stroke-width: 0.8; stroke-linecap: square"/>
     </g>
     <g id="line2d_6">
      <g>
       <use xlink:href="#ma92064d3cc" x="414.339384" y="330.671289" style="stroke: #000000; stroke-width: 0.8"/>
      </g>
     </g>
    </g>
    <g id="xtick_4">
     <g id="line2d_7">
      <path d="M 534.543992 330.671289 
L 534.543992 34.305 
" clip-path="url(#p05cbf629d3)" style="fill: none; stroke: #b0b0b0; stroke-width: 0.8; stroke-linecap: square"/>
     </g>
     <g id="line2d_8">
      <g>
       <use xlink:href="#ma92064d3cc" x="534.543992" y="330.671289" style="stroke: #000000; stroke-width: 0.8"/>
      </g>
     </g>
    </g>
    <g id="xtick_5">
     <g id="line2d_9">
      <path d="M 654.748599 330.671289 
L 654.748599 34.305 
" clip-path="url(#p05cbf629d3)" style="fill: none; stroke: #b0b0b0; stroke-width: 0.8; stroke-linecap: square"/>
     </g>
     <g id="line2d_10">
      <g>
       <use xlink:href="#ma92064d3cc" x="654.748599" y="330.671289" style="stroke: #000000; stroke-width: 0.8"/>
      </g>
     </g>
    </g>
    <g id="xtick_6">
     <g id="line2d_11">
      <path d="M 774.953207 330.671289 
L 774.953207 34.305 
" clip-path="url(#p05cbf629d3)" style="fill: none; stroke: #b0b0b0; stroke-width: 0.8; stroke-linecap: square"/>
     </g>
     <g id="line2d_12">
      <g>
       <use xlink:href="#ma92064d3cc" x="774.953207" y="330.671289" style="stroke: #000000; stroke-width: 0.8"/>
      </g>
     </g>
    </g>
    <g id="xtick_7">
     <g id="line2d_13">
      <path d="M 895.487142 330.671289 
L 895.487142 34.305 
" clip-path="url(#p05cbf629d3)" style="fill: none; stroke: #b0b0b0; stroke-width: 0.8; stroke-linecap: square"/>
     </g>
     <g id="line2d_14">
      <g>
       <use xlink:href="#ma92064d3cc" x="895.487142" y="330.671289" style="stroke: #000000; stroke-width: 0.8"/>
      </g>
     </g>
    </g>
   </g>
   <g id="matplotlib.axis_2">
    <g id="ytick_1">
     <g id="line2d_15">
      <path d="M 70.9 327.969787 
L 997.2 327.969787 
" clip-path="url(#p05cbf629d3)" style="fill: none; stroke: #b0b0b0; stroke-width: 0.8; stroke-linecap: square"/>
     </g>
     <g id="line2d_16">
      <defs>
       <path id="mf08903c4af" d="M 0 0 
L -3.5 0 
" style="stroke: #000000; stroke-width: 0.8"/>
      </defs>
      <g>
       <use xlink:href="#mf08903c4af" x="70.9" y="327.969787" style="stroke: #000000; stroke-width: 0.8"/>
      </g>
     </g>
     <g id="text_1">
      <!-- 0.86 -->
      <g transform="translate(32.728125 333.288693) scale(0.14 -0.14)">
       <defs>
        <path id="DejaVuSans-30" d="M 2034 4250 
Q 1547 4250 1301 3770 
Q 1056 3291 1056 2328 
Q 1056 1369 1301 889 
Q 1547 409 2034 409 
Q 2525 409 2770 889 
Q 3016 1369 3016 2328 
Q 3016 3291 2770 3770 
Q 2525 4250 2034 4250 
z
M 2034 4750 
Q 2819 4750 3233 4129 
Q 3647 3509 3647 2328 
Q 3647 1150 3233 529 
Q 2819 -91 2034 -91 
Q 1250 -91 836 529 
Q 422 1150 422 2328 
Q 422 3509 836 4129 
Q 1250 4750 2034 4750 
z
" transform="scale(0.015625)"/>
        <path id="DejaVuSans-2e" d="M 684 794 
L 1344 794 
L 1344 0 
L 684 0 
L 684 794 
z
" transform="scale(0.015625)"/>
        <path id="DejaVuSans-38" d="M 2034 2216 
Q 1584 2216 1326 1975 
Q 1069 1734 1069 1313 
Q 1069 891 1326 650 
Q 1584 409 2034 409 
Q 2484 409 2743 651 
Q 3003 894 3003 1313 
Q 3003 1734 2745 1975 
Q 2488 2216 2034 2216 
z
M 1403 2484 
Q 997 2584 770 2862 
Q 544 3141 544 3541 
Q 544 4100 942 4425 
Q 1341 4750 2034 4750 
Q 2731 4750 3128 4425 
Q 3525 4100 3525 3541 
Q 3525 3141 3298 2862 
Q 3072 2584 2669 2484 
Q 3125 2378 3379 2068 
Q 3634 1759 3634 1313 
Q 3634 634 3220 271 
Q 2806 -91 2034 -91 
Q 1263 -91 848 271 
Q 434 634 434 1313 
Q 434 1759 690 2068 
Q 947 2378 1403 2484 
z
M 1172 3481 
Q 1172 3119 1398 2916 
Q 1625 2713 2034 2713 
Q 2441 2713 2670 2916 
Q 2900 3119 2900 3481 
Q 2900 3844 2670 4047 
Q 2441 4250 2034 4250 
Q 1625 4250 1398 4047 
Q 1172 3844 1172 3481 
z
" transform="scale(0.015625)"/>
        <path id="DejaVuSans-36" d="M 2113 2584 
Q 1688 2584 1439 2293 
Q 1191 2003 1191 1497 
Q 1191 994 1439 701 
Q 1688 409 2113 409 
Q 2538 409 2786 701 
Q 3034 994 3034 1497 
Q 3034 2003 2786 2293 
Q 2538 2584 2113 2584 
z
M 3366 4563 
L 3366 3988 
Q 3128 4100 2886 4159 
Q 2644 4219 2406 4219 
Q 1781 4219 1451 3797 
Q 1122 3375 1075 2522 
Q 1259 2794 1537 2939 
Q 1816 3084 2150 3084 
Q 2853 3084 3261 2657 
Q 3669 2231 3669 1497 
Q 3669 778 3244 343 
Q 2819 -91 2113 -91 
Q 1303 -91 875 529 
Q 447 1150 447 2328 
Q 447 3434 972 4092 
Q 1497 4750 2381 4750 
Q 2619 4750 2861 4703 
Q 3103 4656 3366 4563 
z
" transform="scale(0.015625)"/>
       </defs>
       <use xlink:href="#DejaVuSans-30"/>
       <use xlink:href="#DejaVuSans-2e" transform="translate(63.623047 0)"/>
       <use xlink:href="#DejaVuSans-38" transform="translate(95.410156 0)"/>
       <use xlink:href="#DejaVuSans-36" transform="translate(159.033203 0)"/>
      </g>
     </g>
    </g>
    <g id="ytick_2">
     <g id="line2d_17">
      <path d="M 70.9 279.748683 
L 997.2 279.748683 
" clip-path="url(#p05cbf629d3)" style="fill: none; stroke: #b0b0b0; stroke-width: 0.8; stroke-linecap: square"/>
     </g>
     <g id="line2d_18">
      <g>
       <use xlink:href="#mf08903c4af" x="70.9" y="279.748683" style="stroke: #000000; stroke-width: 0.8"/>
      </g>
     </g>
     <g id="text_2">
      <!-- 0.88 -->
      <g transform="translate(32.728125 285.067589) scale(0.14 -0.14)">
       <use xlink:href="#DejaVuSans-30"/>
       <use xlink:href="#DejaVuSans-2e" transform="translate(63.623047 0)"/>
       <use xlink:href="#DejaVuSans-38" transform="translate(95.410156 0)"/>
       <use xlink:href="#DejaVuSans-38" transform="translate(159.033203 0)"/>
      </g>
     </g>
    </g>
    <g id="ytick_3">
     <g id="line2d_19">
      <path d="M 70.9 231.527579 
L 997.2 231.527579 
" clip-path="url(#p05cbf629d3)" style="fill: none; stroke: #b0b0b0; stroke-width: 0.8; stroke-linecap: square"/>
     </g>
     <g id="line2d_20">
      <g>
       <use xlink:href="#mf08903c4af" x="70.9" y="231.527579" style="stroke: #000000; stroke-width: 0.8"/>
      </g>
     </g>
     <g id="text_3">
      <!-- 0.90 -->
      <g transform="translate(32.728125 236.846485) scale(0.14 -0.14)">
       <defs>
        <path id="DejaVuSans-39" d="M 703 97 
L 703 672 
Q 941 559 1184 500 
Q 1428 441 1663 441 
Q 2288 441 2617 861 
Q 2947 1281 2994 2138 
Q 2813 1869 2534 1725 
Q 2256 1581 1919 1581 
Q 1219 1581 811 2004 
Q 403 2428 403 3163 
Q 403 3881 828 4315 
Q 1253 4750 1959 4750 
Q 2769 4750 3195 4129 
Q 3622 3509 3622 2328 
Q 3622 1225 3098 567 
Q 2575 -91 1691 -91 
Q 1453 -91 1209 -44 
Q 966 3 703 97 
z
M 1959 2075 
Q 2384 2075 2632 2365 
Q 2881 2656 2881 3163 
Q 2881 3666 2632 3958 
Q 2384 4250 1959 4250 
Q 1534 4250 1286 3958 
Q 1038 3666 1038 3163 
Q 1038 2656 1286 2365 
Q 1534 2075 1959 2075 
z
" transform="scale(0.015625)"/>
       </defs>
       <use xlink:href="#DejaVuSans-30"/>
       <use xlink:href="#DejaVuSans-2e" transform="translate(63.623047 0)"/>
       <use xlink:href="#DejaVuSans-39" transform="translate(95.410156 0)"/>
       <use xlink:href="#DejaVuSans-30" transform="translate(159.033203 0)"/>
      </g>
     </g>
    </g>
    <g id="ytick_4">
     <g id="line2d_21">
      <path d="M 70.9 183.306475 
L 997.2 183.306475 
" clip-path="url(#p05cbf629d3)" style="fill: none; stroke: #b0b0b0; stroke-width: 0.8; stroke-linecap: square"/>
     </g>
     <g id="line2d_22">
      <g>
       <use xlink:href="#mf08903c4af" x="70.9" y="183.306475" style="stroke: #000000; stroke-width: 0.8"/>
      </g>
     </g>
     <g id="text_4">
      <!-- 0.92 -->
      <g transform="translate(32.728125 188.625381) scale(0.14 -0.14)">
       <defs>
        <path id="DejaVuSans-32" d="M 1228 531 
L 3431 531 
L 3431 0 
L 469 0 
L 469 531 
Q 828 903 1448 1529 
Q 2069 2156 2228 2338 
Q 2531 2678 2651 2914 
Q 2772 3150 2772 3378 
Q 2772 3750 2511 3984 
Q 2250 4219 1831 4219 
Q 1534 4219 1204 4116 
Q 875 4013 500 3803 
L 500 4441 
Q 881 4594 1212 4672 
Q 1544 4750 1819 4750 
Q 2544 4750 2975 4387 
Q 3406 4025 3406 3419 
Q 3406 3131 3298 2873 
Q 3191 2616 2906 2266 
Q 2828 2175 2409 1742 
Q 1991 1309 1228 531 
z
" transform="scale(0.015625)"/>
       </defs>
       <use xlink:href="#DejaVuSans-30"/>
       <use xlink:href="#DejaVuSans-2e" transform="translate(63.623047 0)"/>
       <use xlink:href="#DejaVuSans-39" transform="translate(95.410156 0)"/>
       <use xlink:href="#DejaVuSans-32" transform="translate(159.033203 0)"/>
      </g>
     </g>
    </g>
    <g id="ytick_5">
     <g id="line2d_23">
      <path d="M 70.9 135.085371 
L 997.2 135.085371 
" clip-path="url(#p05cbf629d3)" style="fill: none; stroke: #b0b0b0; stroke-width: 0.8; stroke-linecap: square"/>
     </g>
     <g id="line2d_24">
      <g>
       <use xlink:href="#mf08903c4af" x="70.9" y="135.085371" style="stroke: #000000; stroke-width: 0.8"/>
      </g>
     </g>
     <g id="text_5">
      <!-- 0.94 -->
      <g transform="translate(32.728125 140.404277) scale(0.14 -0.14)">
       <defs>
        <path id="DejaVuSans-34" d="M 2419 4116 
L 825 1625 
L 2419 1625 
L 2419 4116 
z
M 2253 4666 
L 3047 4666 
L 3047 1625 
L 3713 1625 
L 3713 1100 
L 3047 1100 
L 3047 0 
L 2419 0 
L 2419 1100 
L 313 1100 
L 313 1709 
L 2253 4666 
z
" transform="scale(0.015625)"/>
       </defs>
       <use xlink:href="#DejaVuSans-30"/>
       <use xlink:href="#DejaVuSans-2e" transform="translate(63.623047 0)"/>
       <use xlink:href="#DejaVuSans-39" transform="translate(95.410156 0)"/>
       <use xlink:href="#DejaVuSans-34" transform="translate(159.033203 0)"/>
      </g>
     </g>
    </g>
    <g id="ytick_6">
     <g id="line2d_25">
      <path d="M 70.9 86.864267 
L 997.2 86.864267 
" clip-path="url(#p05cbf629d3)" style="fill: none; stroke: #b0b0b0; stroke-width: 0.8; stroke-linecap: square"/>
     </g>
     <g id="line2d_26">
      <g>
       <use xlink:href="#mf08903c4af" x="70.9" y="86.864267" style="stroke: #000000; stroke-width: 0.8"/>
      </g>
     </g>
     <g id="text_6">
      <!-- 0.96 -->
      <g transform="translate(32.728125 92.183173) scale(0.14 -0.14)">
       <use xlink:href="#DejaVuSans-30"/>
       <use xlink:href="#DejaVuSans-2e" transform="translate(63.623047 0)"/>
       <use xlink:href="#DejaVuSans-39" transform="translate(95.410156 0)"/>
       <use xlink:href="#DejaVuSans-36" transform="translate(159.033203 0)"/>
      </g>
     </g>
    </g>
    <g id="ytick_7">
     <g id="line2d_27">
      <path d="M 70.9 38.643163 
L 997.2 38.643163 
" clip-path="url(#p05cbf629d3)" style="fill: none; stroke: #b0b0b0; stroke-width: 0.8; stroke-linecap: square"/>
     </g>
     <g id="line2d_28">
      <g>
       <use xlink:href="#mf08903c4af" x="70.9" y="38.643163" style="stroke: #000000; stroke-width: 0.8"/>
      </g>
     </g>
     <g id="text_7">
      <!-- 0.98 -->
      <g transform="translate(32.728125 43.962069) scale(0.14 -0.14)">
       <use xlink:href="#DejaVuSans-30"/>
       <use xlink:href="#DejaVuSans-2e" transform="translate(63.623047 0)"/>
       <use xlink:href="#DejaVuSans-39" transform="translate(95.410156 0)"/>
       <use xlink:href="#DejaVuSans-38" transform="translate(159.033203 0)"/>
      </g>
     </g>
    </g>
   </g>
   <g id="line2d_29">
    <path d="M 113.004545 187.672133 
L 123.213704 188.957671 
L 133.422862 177.843633 
L 143.302693 168.221135 
L 153.511852 163.103376 
L 163.391682 195.787004 
L 173.600841 264.019817 
L 183.809999 160.241702 
L 193.031175 317.200094 
L 203.240333 205.941554 
L 213.120164 78.051931 
L 223.329322 49.593398 
L 233.209153 73.877396 
L 243.418312 116.321029 
L 253.62747 102.9874 
L 263.507301 67.026398 
L 273.716459 87.70172 
L 283.59629 98.716047 
L 293.805449 64.934866 
L 304.014607 59.133392 
L 313.56511 62.537584 
L 323.774268 94.253546 
L 333.654099 107.573038 
L 343.863258 129.188907 
L 353.743088 151.809827 
L 363.952247 147.661667 
L 374.161405 137.057297 
L 384.041236 123.908784 
L 394.250395 139.925955 
L 404.130225 130.104405 
L 414.339384 143.018886 
L 424.548542 140.009674 
L 433.769718 146.556925 
L 443.978876 155.052665 
L 453.858707 136.121609 
L 464.067865 146.30579 
L 473.947696 162.956481 
L 484.156855 169.135174 
L 494.366013 166.118292 
L 504.245844 153.380585 
L 514.455002 145.204721 
L 524.334833 143.342361 
L 534.543992 147.668937 
L 544.75315 153.740987 
L 553.974325 151.77649 
L 564.183484 172.405923 
L 574.063315 150.5107 
L 584.272473 156.654848 
L 594.152304 175.408742 
L 604.361462 156.795117 
L 614.570621 153.418524 
L 624.450452 166.53757 
L 634.65961 166.338263 
L 644.539441 142.832003 
L 654.748599 151.467122 
L 664.957758 169.183197 
L 674.178933 168.797943 
L 684.388092 159.497654 
L 694.267922 139.116491 
L 704.477081 132.722713 
L 714.356912 141.104743 
L 724.56607 141.221234 
L 734.775228 137.923154 
L 744.655059 131.945393 
L 754.864218 127.739787 
L 764.744048 130.042643 
L 774.953207 118.704267 
L 785.162365 213.39199 
L 794.712868 283.597637 
L 804.922027 274.531734 
L 814.801858 150.649441 
L 825.011016 130.005276 
L 834.890847 172.096965 
L 845.100005 175.084196 
L 855.309164 157.840444 
L 865.188995 164.198018 
L 875.398153 165.535699 
L 885.277984 176.946621 
L 895.487142 182.906884 
L 905.696301 176.760455 
L 914.917476 157.796624 
L 925.126635 164.721456 
L 935.006465 184.448495 
L 945.215624 198.16733 
L 955.095455 200.149989 
" clip-path="url(#p05cbf629d3)" style="fill: none; stroke: #ff0000; stroke-width: 1.5; stroke-linecap: square"/>
   </g>
   <g id="line2d_30">
    <path clip-path="url(#p05cbf629d3)" style="fill: none; stroke-dasharray: 5.55,2.4; stroke-dashoffset: 0; stroke: #ff0000; stroke-width: 1.5"/>
   </g>
   <g id="line2d_31">
    <path d="M 113.004545 142.802272 
L 123.213704 154.344801 
L 133.422862 134.135408 
L 143.302693 118.226632 
L 153.511852 119.039228 
L 163.391682 126.210679 
L 173.600841 206.505266 
L 183.809999 265.018984 
L 193.031175 221.129307 
L 203.240333 271.913574 
L 213.120164 133.786329 
L 223.329322 93.415639 
L 233.209153 69.75391 
L 243.418312 86.990477 
L 253.62747 74.183635 
L 263.507301 50.394162 
L 273.716459 48.909399 
L 283.59629 47.776195 
L 293.805449 49.082632 
L 304.014607 50.526425 
L 313.56511 51.780121 
L 323.774268 62.275625 
L 333.654099 79.320503 
L 343.863258 85.000595 
L 353.743088 83.110938 
L 363.952247 85.468713 
L 374.161405 76.79173 
L 384.041236 82.877481 
L 394.250395 84.202272 
L 404.130225 84.989708 
L 414.339384 79.672161 
L 424.548542 85.388009 
L 433.769718 77.208854 
L 443.978876 80.818771 
L 453.858707 87.976479 
L 464.067865 77.835434 
L 473.947696 75.867481 
L 484.156855 78.677375 
L 494.366013 73.955678 
L 504.245844 80.432699 
L 514.455002 73.372718 
L 524.334833 76.582657 
L 534.543992 81.930111 
L 544.75315 80.417741 
L 553.974325 75.819019 
L 564.183484 72.662358 
L 574.063315 77.656327 
L 584.272473 91.359932 
L 594.152304 91.375242 
L 604.361462 83.461044 
L 614.570621 85.606149 
L 624.450452 90.027997 
L 634.65961 84.761916 
L 644.539441 77.300042 
L 654.748599 84.456338 
L 664.957758 93.46408 
L 674.178933 82.093625 
L 684.388092 71.204717 
L 694.267922 64.21603 
L 704.477081 77.945187 
L 714.356912 77.622448 
L 724.56607 76.450846 
L 734.775228 75.945548 
L 744.655059 72.425054 
L 754.864218 73.258586 
L 764.744048 64.957182 
L 774.953207 70.95722 
L 785.162365 90.35132 
L 794.712868 200.796602 
L 804.922027 247.429834 
L 814.801858 124.538174 
L 825.011016 90.245004 
L 834.890847 96.830226 
L 845.100005 92.650516 
L 855.309164 90.316106 
L 865.188995 88.843948 
L 875.398153 90.602151 
L 885.277984 98.664653 
L 895.487142 95.452536 
L 905.696301 93.133246 
L 914.917476 88.347428 
L 925.126635 90.293583 
L 935.006465 115.236339 
L 945.215624 114.69356 
L 955.095455 109.862989 
" clip-path="url(#p05cbf629d3)" style="fill: none; stroke: #0000ff; stroke-width: 1.5; stroke-linecap: square"/>
   </g>
   <g id="line2d_32">
    <path clip-path="url(#p05cbf629d3)" style="fill: none; stroke-dasharray: 5.55,2.4; stroke-dashoffset: 0; stroke: #0000ff; stroke-width: 1.5"/>
   </g>
   <g id="patch_3">
    <path d="M 70.9 330.671289 
L 70.9 34.305 
" style="fill: none; stroke: #000000; stroke-width: 0.8; stroke-linejoin: miter; stroke-linecap: square"/>
   </g>
   <g id="patch_4">
    <path d="M 997.2 330.671289 
L 997.2 34.305 
" style="fill: none; stroke: #000000; stroke-width: 0.8; stroke-linejoin: miter; stroke-linecap: square"/>
   </g>
   <g id="patch_5">
    <path d="M 70.9 330.671289 
L 997.2 330.671289 
" style="fill: none; stroke: #000000; stroke-width: 0.8; stroke-linejoin: miter; stroke-linecap: square"/>
   </g>
   <g id="patch_6">
    <path d="M 70.9 34.305 
L 997.2 34.305 
" style="fill: none; stroke: #000000; stroke-width: 0.8; stroke-linejoin: miter; stroke-linecap: square"/>
   </g>
   <g id="text_8">
    <!-- Evolução do R² ao longo do tempo -->
    <g transform="translate(344.401406 28.305) scale(0.22 -0.22)">
     <defs>
      <path id="DejaVuSans-45" d="M 628 4666 
L 3578 4666 
L 3578 4134 
L 1259 4134 
L 1259 2753 
L 3481 2753 
L 3481 2222 
L 1259 2222 
L 1259 531 
L 3634 531 
L 3634 0 
L 628 0 
L 628 4666 
z
" transform="scale(0.015625)"/>
      <path id="DejaVuSans-76" d="M 191 3500 
L 800 3500 
L 1894 563 
L 2988 3500 
L 3597 3500 
L 2284 0 
L 1503 0 
L 191 3500 
z
" transform="scale(0.015625)"/>
      <path id="DejaVuSans-6f" d="M 1959 3097 
Q 1497 3097 1228 2736 
Q 959 2375 959 1747 
Q 959 1119 1226 758 
Q 1494 397 1959 397 
Q 2419 397 2687 759 
Q 2956 1122 2956 1747 
Q 2956 2369 2687 2733 
Q 2419 3097 1959 3097 
z
M 1959 3584 
Q 2709 3584 3137 3096 
Q 3566 2609 3566 1747 
Q 3566 888 3137 398 
Q 2709 -91 1959 -91 
Q 1206 -91 779 398 
Q 353 888 353 1747 
Q 353 2609 779 3096 
Q 1206 3584 1959 3584 
z
" transform="scale(0.015625)"/>
      <path id="DejaVuSans-6c" d="M 603 4863 
L 1178 4863 
L 1178 0 
L 603 0 
L 603 4863 
z
" transform="scale(0.015625)"/>
      <path id="DejaVuSans-75" d="M 544 1381 
L 544 3500 
L 1119 3500 
L 1119 1403 
Q 1119 906 1312 657 
Q 1506 409 1894 409 
Q 2359 409 2629 706 
Q 2900 1003 2900 1516 
L 2900 3500 
L 3475 3500 
L 3475 0 
L 2900 0 
L 2900 538 
Q 2691 219 2414 64 
Q 2138 -91 1772 -91 
Q 1169 -91 856 284 
Q 544 659 544 1381 
z
M 1991 3584 
L 1991 3584 
z
" transform="scale(0.015625)"/>
      <path id="DejaVuSans-e7" d="M 3122 3366 
L 3122 2828 
Q 2878 2963 2633 3030 
Q 2388 3097 2138 3097 
Q 1578 3097 1268 2742 
Q 959 2388 959 1747 
Q 959 1106 1268 751 
Q 1578 397 2138 397 
Q 2388 397 2633 464 
Q 2878 531 3122 666 
L 3122 134 
Q 2881 22 2623 -34 
Q 2366 -91 2075 -91 
Q 1284 -91 818 406 
Q 353 903 353 1747 
Q 353 2603 823 3093 
Q 1294 3584 2113 3584 
Q 2378 3584 2631 3529 
Q 2884 3475 3122 3366 
z
M 2311 0 
Q 2482 -194 2566 -358 
Q 2651 -522 2651 -672 
Q 2651 -950 2463 -1092 
Q 2276 -1234 1907 -1234 
Q 1764 -1234 1628 -1215 
Q 1492 -1197 1357 -1159 
L 1357 -750 
Q 1464 -803 1579 -826 
Q 1695 -850 1842 -850 
Q 2026 -850 2120 -775 
Q 2214 -700 2214 -556 
Q 2214 -463 2146 -327 
Q 2079 -191 1939 0 
L 2311 0 
z
" transform="scale(0.015625)"/>
      <path id="DejaVuSans-e3" d="M 2194 1759 
Q 1497 1759 1228 1600 
Q 959 1441 959 1056 
Q 959 750 1161 570 
Q 1363 391 1709 391 
Q 2188 391 2477 730 
Q 2766 1069 2766 1631 
L 2766 1759 
L 2194 1759 
z
M 3341 1997 
L 3341 0 
L 2766 0 
L 2766 531 
Q 2569 213 2275 61 
Q 1981 -91 1556 -91 
Q 1019 -91 701 211 
Q 384 513 384 1019 
Q 384 1609 779 1909 
Q 1175 2209 1959 2209 
L 2766 2209 
L 2766 2266 
Q 2766 2663 2505 2880 
Q 2244 3097 1772 3097 
Q 1472 3097 1187 3025 
Q 903 2953 641 2809 
L 641 3341 
Q 956 3463 1253 3523 
Q 1550 3584 1831 3584 
Q 2591 3584 2966 3190 
Q 3341 2797 3341 1997 
z
M 1844 4281 
L 1665 4453 
Q 1597 4516 1545 4545 
Q 1494 4575 1453 4575 
Q 1334 4575 1278 4461 
Q 1222 4347 1215 4091 
L 825 4091 
Q 831 4513 990 4742 
Q 1150 4972 1434 4972 
Q 1553 4972 1653 4928 
Q 1753 4884 1869 4781 
L 2047 4609 
Q 2115 4547 2167 4517 
Q 2219 4488 2259 4488 
Q 2378 4488 2434 4602 
Q 2490 4716 2497 4972 
L 2887 4972 
Q 2881 4550 2721 4320 
Q 2562 4091 2278 4091 
Q 2159 4091 2059 4134 
Q 1959 4178 1844 4281 
z
" transform="scale(0.015625)"/>
      <path id="DejaVuSans-20" transform="scale(0.015625)"/>
      <path id="DejaVuSans-64" d="M 2906 2969 
L 2906 4863 
L 3481 4863 
L 3481 0 
L 2906 0 
L 2906 525 
Q 2725 213 2448 61 
Q 2172 -91 1784 -91 
Q 1150 -91 751 415 
Q 353 922 353 1747 
Q 353 2572 751 3078 
Q 1150 3584 1784 3584 
Q 2172 3584 2448 3432 
Q 2725 3281 2906 2969 
z
M 947 1747 
Q 947 1113 1208 752 
Q 1469 391 1925 391 
Q 2381 391 2643 752 
Q 2906 1113 2906 1747 
Q 2906 2381 2643 2742 
Q 2381 3103 1925 3103 
Q 1469 3103 1208 2742 
Q 947 2381 947 1747 
z
" transform="scale(0.015625)"/>
      <path id="DejaVuSans-52" d="M 2841 2188 
Q 3044 2119 3236 1894 
Q 3428 1669 3622 1275 
L 4263 0 
L 3584 0 
L 2988 1197 
Q 2756 1666 2539 1819 
Q 2322 1972 1947 1972 
L 1259 1972 
L 1259 0 
L 628 0 
L 628 4666 
L 2053 4666 
Q 2853 4666 3247 4331 
Q 3641 3997 3641 3322 
Q 3641 2881 3436 2590 
Q 3231 2300 2841 2188 
z
M 1259 4147 
L 1259 2491 
L 2053 2491 
Q 2509 2491 2742 2702 
Q 2975 2913 2975 3322 
Q 2975 3731 2742 3939 
Q 2509 4147 2053 4147 
L 1259 4147 
z
" transform="scale(0.015625)"/>
      <path id="DejaVuSans-b2" d="M 838 2444 
L 2163 2444 
L 2163 2088 
L 294 2088 
L 294 2431 
Q 400 2528 597 2703 
Q 1672 3656 1672 3950 
Q 1672 4156 1509 4282 
Q 1347 4409 1081 4409 
Q 919 4409 728 4354 
Q 538 4300 313 4191 
L 313 4575 
Q 553 4663 761 4706 
Q 969 4750 1147 4750 
Q 1600 4750 1872 4544 
Q 2144 4338 2144 4000 
Q 2144 3566 1109 2678 
Q 934 2528 838 2444 
z
" transform="scale(0.015625)"/>
      <path id="DejaVuSans-61" d="M 2194 1759 
Q 1497 1759 1228 1600 
Q 959 1441 959 1056 
Q 959 750 1161 570 
Q 1363 391 1709 391 
Q 2188 391 2477 730 
Q 2766 1069 2766 1631 
L 2766 1759 
L 2194 1759 
z
M 3341 1997 
L 3341 0 
L 2766 0 
L 2766 531 
Q 2569 213 2275 61 
Q 1981 -91 1556 -91 
Q 1019 -91 701 211 
Q 384 513 384 1019 
Q 384 1609 779 1909 
Q 1175 2209 1959 2209 
L 2766 2209 
L 2766 2266 
Q 2766 2663 2505 2880 
Q 2244 3097 1772 3097 
Q 1472 3097 1187 3025 
Q 903 2953 641 2809 
L 641 3341 
Q 956 3463 1253 3523 
Q 1550 3584 1831 3584 
Q 2591 3584 2966 3190 
Q 3341 2797 3341 1997 
z
" transform="scale(0.015625)"/>
      <path id="DejaVuSans-6e" d="M 3513 2113 
L 3513 0 
L 2938 0 
L 2938 2094 
Q 2938 2591 2744 2837 
Q 2550 3084 2163 3084 
Q 1697 3084 1428 2787 
Q 1159 2491 1159 1978 
L 1159 0 
L 581 0 
L 581 3500 
L 1159 3500 
L 1159 2956 
Q 1366 3272 1645 3428 
Q 1925 3584 2291 3584 
Q 2894 3584 3203 3211 
Q 3513 2838 3513 2113 
z
" transform="scale(0.015625)"/>
      <path id="DejaVuSans-67" d="M 2906 1791 
Q 2906 2416 2648 2759 
Q 2391 3103 1925 3103 
Q 1463 3103 1205 2759 
Q 947 2416 947 1791 
Q 947 1169 1205 825 
Q 1463 481 1925 481 
Q 2391 481 2648 825 
Q 2906 1169 2906 1791 
z
M 3481 434 
Q 3481 -459 3084 -895 
Q 2688 -1331 1869 -1331 
Q 1566 -1331 1297 -1286 
Q 1028 -1241 775 -1147 
L 775 -588 
Q 1028 -725 1275 -790 
Q 1522 -856 1778 -856 
Q 2344 -856 2625 -561 
Q 2906 -266 2906 331 
L 2906 616 
Q 2728 306 2450 153 
Q 2172 0 1784 0 
Q 1141 0 747 490 
Q 353 981 353 1791 
Q 353 2603 747 3093 
Q 1141 3584 1784 3584 
Q 2172 3584 2450 3431 
Q 2728 3278 2906 2969 
L 2906 3500 
L 3481 3500 
L 3481 434 
z
" transform="scale(0.015625)"/>
      <path id="DejaVuSans-74" d="M 1172 4494 
L 1172 3500 
L 2356 3500 
L 2356 3053 
L 1172 3053 
L 1172 1153 
Q 1172 725 1289 603 
Q 1406 481 1766 481 
L 2356 481 
L 2356 0 
L 1766 0 
Q 1100 0 847 248 
Q 594 497 594 1153 
L 594 3053 
L 172 3053 
L 172 3500 
L 594 3500 
L 594 4494 
L 1172 4494 
z
" transform="scale(0.015625)"/>
      <path id="DejaVuSans-65" d="M 3597 1894 
L 3597 1613 
L 953 1613 
Q 991 1019 1311 708 
Q 1631 397 2203 397 
Q 2534 397 2845 478 
Q 3156 559 3463 722 
L 3463 178 
Q 3153 47 2828 -22 
Q 2503 -91 2169 -91 
Q 1331 -91 842 396 
Q 353 884 353 1716 
Q 353 2575 817 3079 
Q 1281 3584 2069 3584 
Q 2775 3584 3186 3129 
Q 3597 2675 3597 1894 
z
M 3022 2063 
Q 3016 2534 2758 2815 
Q 2500 3097 2075 3097 
Q 1594 3097 1305 2825 
Q 1016 2553 972 2059 
L 3022 2063 
z
" transform="scale(0.015625)"/>
      <path id="DejaVuSans-6d" d="M 3328 2828 
Q 3544 3216 3844 3400 
Q 4144 3584 4550 3584 
Q 5097 3584 5394 3201 
Q 5691 2819 5691 2113 
L 5691 0 
L 5113 0 
L 5113 2094 
Q 5113 2597 4934 2840 
Q 4756 3084 4391 3084 
Q 3944 3084 3684 2787 
Q 3425 2491 3425 1978 
L 3425 0 
L 2847 0 
L 2847 2094 
Q 2847 2600 2669 2842 
Q 2491 3084 2119 3084 
Q 1678 3084 1418 2786 
Q 1159 2488 1159 1978 
L 1159 0 
L 581 0 
L 581 3500 
L 1159 3500 
L 1159 2956 
Q 1356 3278 1631 3431 
Q 1906 3584 2284 3584 
Q 2666 3584 2933 3390 
Q 3200 3197 3328 2828 
z
" transform="scale(0.015625)"/>
      <path id="DejaVuSans-70" d="M 1159 525 
L 1159 -1331 
L 581 -1331 
L 581 3500 
L 1159 3500 
L 1159 2969 
Q 1341 3281 1617 3432 
Q 1894 3584 2278 3584 
Q 2916 3584 3314 3078 
Q 3713 2572 3713 1747 
Q 3713 922 3314 415 
Q 2916 -91 2278 -91 
Q 1894 -91 1617 61 
Q 1341 213 1159 525 
z
M 3116 1747 
Q 3116 2381 2855 2742 
Q 2594 3103 2138 3103 
Q 1681 3103 1420 2742 
Q 1159 2381 1159 1747 
Q 1159 1113 1420 752 
Q 1681 391 2138 391 
Q 2594 391 2855 752 
Q 3116 1113 3116 1747 
z
" transform="scale(0.015625)"/>
     </defs>
     <use xlink:href="#DejaVuSans-45"/>
     <use xlink:href="#DejaVuSans-76" transform="translate(63.183594 0)"/>
     <use xlink:href="#DejaVuSans-6f" transform="translate(122.363281 0)"/>
     <use xlink:href="#DejaVuSans-6c" transform="translate(183.544922 0)"/>
     <use xlink:href="#DejaVuSans-75" transform="translate(211.328125 0)"/>
     <use xlink:href="#DejaVuSans-e7" transform="translate(274.707031 0)"/>
     <use xlink:href="#DejaVuSans-e3" transform="translate(329.6875 0)"/>
     <use xlink:href="#DejaVuSans-6f" transform="translate(390.966797 0)"/>
     <use xlink:href="#DejaVuSans-20" transform="translate(452.148438 0)"/>
     <use xlink:href="#DejaVuSans-64" transform="translate(483.935547 0)"/>
     <use xlink:href="#DejaVuSans-6f" transform="translate(547.412109 0)"/>
     <use xlink:href="#DejaVuSans-20" transform="translate(608.59375 0)"/>
     <use xlink:href="#DejaVuSans-52" transform="translate(640.380859 0)"/>
     <use xlink:href="#DejaVuSans-b2" transform="translate(709.863281 0)"/>
     <use xlink:href="#DejaVuSans-20" transform="translate(749.951172 0)"/>
     <use xlink:href="#DejaVuSans-61" transform="translate(781.738281 0)"/>
     <use xlink:href="#DejaVuSans-6f" transform="translate(843.017578 0)"/>
     <use xlink:href="#DejaVuSans-20" transform="translate(904.199219 0)"/>
     <use xlink:href="#DejaVuSans-6c" transform="translate(935.986328 0)"/>
     <use xlink:href="#DejaVuSans-6f" transform="translate(963.769531 0)"/>
     <use xlink:href="#DejaVuSans-6e" transform="translate(1024.951172 0)"/>
     <use xlink:href="#DejaVuSans-67" transform="translate(1088.330078 0)"/>
     <use xlink:href="#DejaVuSans-6f" transform="translate(1151.806641 0)"/>
     <use xlink:href="#DejaVuSans-20" transform="translate(1212.988281 0)"/>
     <use xlink:href="#DejaVuSans-64" transform="translate(1244.775391 0)"/>
     <use xlink:href="#DejaVuSans-6f" transform="translate(1308.251953 0)"/>
     <use xlink:href="#DejaVuSans-20" transform="translate(1369.433594 0)"/>
     <use xlink:href="#DejaVuSans-74" transform="translate(1401.220703 0)"/>
     <use xlink:href="#DejaVuSans-65" transform="translate(1440.429688 0)"/>
     <use xlink:href="#DejaVuSans-6d" transform="translate(1501.953125 0)"/>
     <use xlink:href="#DejaVuSans-70" transform="translate(1599.365234 0)"/>
     <use xlink:href="#DejaVuSans-6f" transform="translate(1662.841797 0)"/>
    </g>
   </g>
   <g id="legend_1">
    <g id="patch_7">
     <path d="M 440.540938 323.671289 
L 627.559063 323.671289 
Q 630.359063 323.671289 630.359063 320.871289 
L 630.359063 240.073789 
Q 630.359063 237.273789 627.559063 237.273789 
L 440.540938 237.273789 
Q 437.740938 237.273789 437.740938 240.073789 
L 437.740938 320.871289 
Q 437.740938 323.671289 440.540938 323.671289 
z
" style="fill: #ffffff; opacity: 0.8; stroke: #cccccc; stroke-linejoin: miter"/>
    </g>
    <g id="line2d_33">
     <path d="M 443.340938 248.611602 
L 457.340938 248.611602 
L 471.340938 248.611602 
" style="fill: none; stroke: #ff0000; stroke-width: 1.5; stroke-linecap: square"/>
    </g>
    <g id="text_9">
     <!-- R² Treino RF -->
     <g transform="translate(482.540938 253.511602) scale(0.14 -0.14)">
      <defs>
       <path id="DejaVuSans-54" d="M -19 4666 
L 3928 4666 
L 3928 4134 
L 2272 4134 
L 2272 0 
L 1638 0 
L 1638 4134 
L -19 4134 
L -19 4666 
z
" transform="scale(0.015625)"/>
       <path id="DejaVuSans-72" d="M 2631 2963 
Q 2534 3019 2420 3045 
Q 2306 3072 2169 3072 
Q 1681 3072 1420 2755 
Q 1159 2438 1159 1844 
L 1159 0 
L 581 0 
L 581 3500 
L 1159 3500 
L 1159 2956 
Q 1341 3275 1631 3429 
Q 1922 3584 2338 3584 
Q 2397 3584 2469 3576 
Q 2541 3569 2628 3553 
L 2631 2963 
z
" transform="scale(0.015625)"/>
       <path id="DejaVuSans-69" d="M 603 3500 
L 1178 3500 
L 1178 0 
L 603 0 
L 603 3500 
z
M 603 4863 
L 1178 4863 
L 1178 4134 
L 603 4134 
L 603 4863 
z
" transform="scale(0.015625)"/>
       <path id="DejaVuSans-46" d="M 628 4666 
L 3309 4666 
L 3309 4134 
L 1259 4134 
L 1259 2759 
L 3109 2759 
L 3109 2228 
L 1259 2228 
L 1259 0 
L 628 0 
L 628 4666 
z
" transform="scale(0.015625)"/>
      </defs>
      <use xlink:href="#DejaVuSans-52"/>
      <use xlink:href="#DejaVuSans-b2" transform="translate(69.482422 0)"/>
      <use xlink:href="#DejaVuSans-20" transform="translate(109.570312 0)"/>
      <use xlink:href="#DejaVuSans-54" transform="translate(141.357422 0)"/>
      <use xlink:href="#DejaVuSans-72" transform="translate(187.691406 0)"/>
      <use xlink:href="#DejaVuSans-65" transform="translate(226.554688 0)"/>
      <use xlink:href="#DejaVuSans-69" transform="translate(288.078125 0)"/>
      <use xlink:href="#DejaVuSans-6e" transform="translate(315.861328 0)"/>
      <use xlink:href="#DejaVuSans-6f" transform="translate(379.240234 0)"/>
      <use xlink:href="#DejaVuSans-20" transform="translate(440.421875 0)"/>
      <use xlink:href="#DejaVuSans-52" transform="translate(472.208984 0)"/>
      <use xlink:href="#DejaVuSans-46" transform="translate(541.691406 0)"/>
     </g>
    </g>
    <g id="line2d_34">
     <path d="M 443.340938 269.160977 
L 457.340938 269.160977 
L 471.340938 269.160977 
" style="fill: none; stroke-dasharray: 5.55,2.4; stroke-dashoffset: 0; stroke: #ff0000; stroke-width: 1.5"/>
    </g>
    <g id="text_10">
     <!-- R² Teste RF -->
     <g transform="translate(482.540938 274.060977) scale(0.14 -0.14)">
      <defs>
       <path id="DejaVuSans-73" d="M 2834 3397 
L 2834 2853 
Q 2591 2978 2328 3040 
Q 2066 3103 1784 3103 
Q 1356 3103 1142 2972 
Q 928 2841 928 2578 
Q 928 2378 1081 2264 
Q 1234 2150 1697 2047 
L 1894 2003 
Q 2506 1872 2764 1633 
Q 3022 1394 3022 966 
Q 3022 478 2636 193 
Q 2250 -91 1575 -91 
Q 1294 -91 989 -36 
Q 684 19 347 128 
L 347 722 
Q 666 556 975 473 
Q 1284 391 1588 391 
Q 1994 391 2212 530 
Q 2431 669 2431 922 
Q 2431 1156 2273 1281 
Q 2116 1406 1581 1522 
L 1381 1569 
Q 847 1681 609 1914 
Q 372 2147 372 2553 
Q 372 3047 722 3315 
Q 1072 3584 1716 3584 
Q 2034 3584 2315 3537 
Q 2597 3491 2834 3397 
z
" transform="scale(0.015625)"/>
      </defs>
      <use xlink:href="#DejaVuSans-52"/>
      <use xlink:href="#DejaVuSans-b2" transform="translate(69.482422 0)"/>
      <use xlink:href="#DejaVuSans-20" transform="translate(109.570312 0)"/>
      <use xlink:href="#DejaVuSans-54" transform="translate(141.357422 0)"/>
      <use xlink:href="#DejaVuSans-65" transform="translate(185.441406 0)"/>
      <use xlink:href="#DejaVuSans-73" transform="translate(246.964844 0)"/>
      <use xlink:href="#DejaVuSans-74" transform="translate(299.064453 0)"/>
      <use xlink:href="#DejaVuSans-65" transform="translate(338.273438 0)"/>
      <use xlink:href="#DejaVuSans-20" transform="translate(399.796875 0)"/>
      <use xlink:href="#DejaVuSans-52" transform="translate(431.583984 0)"/>
      <use xlink:href="#DejaVuSans-46" transform="translate(501.066406 0)"/>
     </g>
    </g>
    <g id="line2d_35">
     <path d="M 443.340938 289.710352 
L 457.340938 289.710352 
L 471.340938 289.710352 
" style="fill: none; stroke: #0000ff; stroke-width: 1.5; stroke-linecap: square"/>
    </g>
    <g id="text_11">
     <!-- R² Treino Polynomial -->
     <g transform="translate(482.540938 294.610352) scale(0.14 -0.14)">
      <defs>
       <path id="DejaVuSans-50" d="M 1259 4147 
L 1259 2394 
L 2053 2394 
Q 2494 2394 2734 2622 
Q 2975 2850 2975 3272 
Q 2975 3691 2734 3919 
Q 2494 4147 2053 4147 
L 1259 4147 
z
M 628 4666 
L 2053 4666 
Q 2838 4666 3239 4311 
Q 3641 3956 3641 3272 
Q 3641 2581 3239 2228 
Q 2838 1875 2053 1875 
L 1259 1875 
L 1259 0 
L 628 0 
L 628 4666 
z
" transform="scale(0.015625)"/>
       <path id="DejaVuSans-79" d="M 2059 -325 
Q 1816 -950 1584 -1140 
Q 1353 -1331 966 -1331 
L 506 -1331 
L 506 -850 
L 844 -850 
Q 1081 -850 1212 -737 
Q 1344 -625 1503 -206 
L 1606 56 
L 191 3500 
L 800 3500 
L 1894 763 
L 2988 3500 
L 3597 3500 
L 2059 -325 
z
" transform="scale(0.015625)"/>
      </defs>
      <use xlink:href="#DejaVuSans-52"/>
      <use xlink:href="#DejaVuSans-b2" transform="translate(69.482422 0)"/>
      <use xlink:href="#DejaVuSans-20" transform="translate(109.570312 0)"/>
      <use xlink:href="#DejaVuSans-54" transform="translate(141.357422 0)"/>
      <use xlink:href="#DejaVuSans-72" transform="translate(187.691406 0)"/>
      <use xlink:href="#DejaVuSans-65" transform="translate(226.554688 0)"/>
      <use xlink:href="#DejaVuSans-69" transform="translate(288.078125 0)"/>
      <use xlink:href="#DejaVuSans-6e" transform="translate(315.861328 0)"/>
      <use xlink:href="#DejaVuSans-6f" transform="translate(379.240234 0)"/>
      <use xlink:href="#DejaVuSans-20" transform="translate(440.421875 0)"/>
      <use xlink:href="#DejaVuSans-50" transform="translate(472.208984 0)"/>
      <use xlink:href="#DejaVuSans-6f" transform="translate(528.886719 0)"/>
      <use xlink:href="#DejaVuSans-6c" transform="translate(590.068359 0)"/>
      <use xlink:href="#DejaVuSans-79" transform="translate(617.851562 0)"/>
      <use xlink:href="#DejaVuSans-6e" transform="translate(677.03125 0)"/>
      <use xlink:href="#DejaVuSans-6f" transform="translate(740.410156 0)"/>
      <use xlink:href="#DejaVuSans-6d" transform="translate(801.591797 0)"/>
      <use xlink:href="#DejaVuSans-69" transform="translate(899.003906 0)"/>
      <use xlink:href="#DejaVuSans-61" transform="translate(926.787109 0)"/>
      <use xlink:href="#DejaVuSans-6c" transform="translate(988.066406 0)"/>
     </g>
    </g>
    <g id="line2d_36">
     <path d="M 443.340938 310.259727 
L 457.340938 310.259727 
L 471.340938 310.259727 
" style="fill: none; stroke-dasharray: 5.55,2.4; stroke-dashoffset: 0; stroke: #0000ff; stroke-width: 1.5"/>
    </g>
    <g id="text_12">
     <!-- R² Teste Polynomial -->
     <g transform="translate(482.540938 315.159727) scale(0.14 -0.14)">
      <use xlink:href="#DejaVuSans-52"/>
      <use xlink:href="#DejaVuSans-b2" transform="translate(69.482422 0)"/>
      <use xlink:href="#DejaVuSans-20" transform="translate(109.570312 0)"/>
      <use xlink:href="#DejaVuSans-54" transform="translate(141.357422 0)"/>
      <use xlink:href="#DejaVuSans-65" transform="translate(185.441406 0)"/>
      <use xlink:href="#DejaVuSans-73" transform="translate(246.964844 0)"/>
      <use xlink:href="#DejaVuSans-74" transform="translate(299.064453 0)"/>
      <use xlink:href="#DejaVuSans-65" transform="translate(338.273438 0)"/>
      <use xlink:href="#DejaVuSans-20" transform="translate(399.796875 0)"/>
      <use xlink:href="#DejaVuSans-50" transform="translate(431.583984 0)"/>
      <use xlink:href="#DejaVuSans-6f" transform="translate(488.261719 0)"/>
      <use xlink:href="#DejaVuSans-6c" transform="translate(549.443359 0)"/>
      <use xlink:href="#DejaVuSans-79" transform="translate(577.226562 0)"/>
      <use xlink:href="#DejaVuSans-6e" transform="translate(636.40625 0)"/>
      <use xlink:href="#DejaVuSans-6f" transform="translate(699.785156 0)"/>
      <use xlink:href="#DejaVuSans-6d" transform="translate(760.966797 0)"/>
      <use xlink:href="#DejaVuSans-69" transform="translate(858.378906 0)"/>
      <use xlink:href="#DejaVuSans-61" transform="translate(886.162109 0)"/>
      <use xlink:href="#DejaVuSans-6c" transform="translate(947.441406 0)"/>
     </g>
    </g>
   </g>
  </g>
  <g id="axes_2">
   <g id="patch_8">
    <path d="M 70.9 667.325494 
L 997.2 667.325494 
L 997.2 370.959204 
L 70.9 370.959204 
z
" style="fill: #ffffff"/>
   </g>
   <g id="matplotlib.axis_3">
    <g id="xtick_8">
     <g id="line2d_37">
      <path d="M 173.600841 667.325494 
L 173.600841 370.959204 
" clip-path="url(#p4d69e5fb1b)" style="fill: none; stroke: #b0b0b0; stroke-width: 0.8; stroke-linecap: square"/>
     </g>
     <g id="line2d_38">
      <g>
       <use xlink:href="#ma92064d3cc" x="173.600841" y="667.325494" style="stroke: #000000; stroke-width: 0.8"/>
      </g>
     </g>
     <g id="text_13">
      <!-- 2019 -->
      <g transform="translate(163.735375 707.041778) rotate(-45) scale(0.14 -0.14)">
       <defs>
        <path id="DejaVuSans-31" d="M 794 531 
L 1825 531 
L 1825 4091 
L 703 3866 
L 703 4441 
L 1819 4666 
L 2450 4666 
L 2450 531 
L 3481 531 
L 3481 0 
L 794 0 
L 794 531 
z
" transform="scale(0.015625)"/>
       </defs>
       <use xlink:href="#DejaVuSans-32"/>
       <use xlink:href="#DejaVuSans-30" transform="translate(63.623047 0)"/>
       <use xlink:href="#DejaVuSans-31" transform="translate(127.246094 0)"/>
       <use xlink:href="#DejaVuSans-39" transform="translate(190.869141 0)"/>
      </g>
     </g>
    </g>
    <g id="xtick_9">
     <g id="line2d_39">
      <path d="M 293.805449 667.325494 
L 293.805449 370.959204 
" clip-path="url(#p4d69e5fb1b)" style="fill: none; stroke: #b0b0b0; stroke-width: 0.8; stroke-linecap: square"/>
     </g>
     <g id="line2d_40">
      <g>
       <use xlink:href="#ma92064d3cc" x="293.805449" y="667.325494" style="stroke: #000000; stroke-width: 0.8"/>
      </g>
     </g>
     <g id="text_14">
      <!-- 2020 -->
      <g transform="translate(283.939983 707.041778) rotate(-45) scale(0.14 -0.14)">
       <use xlink:href="#DejaVuSans-32"/>
       <use xlink:href="#DejaVuSans-30" transform="translate(63.623047 0)"/>
       <use xlink:href="#DejaVuSans-32" transform="translate(127.246094 0)"/>
       <use xlink:href="#DejaVuSans-30" transform="translate(190.869141 0)"/>
      </g>
     </g>
    </g>
    <g id="xtick_10">
     <g id="line2d_41">
      <path d="M 414.339384 667.325494 
L 414.339384 370.959204 
" clip-path="url(#p4d69e5fb1b)" style="fill: none; stroke: #b0b0b0; stroke-width: 0.8; stroke-linecap: square"/>
     </g>
     <g id="line2d_42">
      <g>
       <use xlink:href="#ma92064d3cc" x="414.339384" y="667.325494" style="stroke: #000000; stroke-width: 0.8"/>
      </g>
     </g>
     <g id="text_15">
      <!-- 2021 -->
      <g transform="translate(404.473918 707.041778) rotate(-45) scale(0.14 -0.14)">
       <use xlink:href="#DejaVuSans-32"/>
       <use xlink:href="#DejaVuSans-30" transform="translate(63.623047 0)"/>
       <use xlink:href="#DejaVuSans-32" transform="translate(127.246094 0)"/>
       <use xlink:href="#DejaVuSans-31" transform="translate(190.869141 0)"/>
      </g>
     </g>
    </g>
    <g id="xtick_11">
     <g id="line2d_43">
      <path d="M 534.543992 667.325494 
L 534.543992 370.959204 
" clip-path="url(#p4d69e5fb1b)" style="fill: none; stroke: #b0b0b0; stroke-width: 0.8; stroke-linecap: square"/>
     </g>
     <g id="line2d_44">
      <g>
       <use xlink:href="#ma92064d3cc" x="534.543992" y="667.325494" style="stroke: #000000; stroke-width: 0.8"/>
      </g>
     </g>
     <g id="text_16">
      <!-- 2022 -->
      <g transform="translate(524.678526 707.041778) rotate(-45) scale(0.14 -0.14)">
       <use xlink:href="#DejaVuSans-32"/>
       <use xlink:href="#DejaVuSans-30" transform="translate(63.623047 0)"/>
       <use xlink:href="#DejaVuSans-32" transform="translate(127.246094 0)"/>
       <use xlink:href="#DejaVuSans-32" transform="translate(190.869141 0)"/>
      </g>
     </g>
    </g>
    <g id="xtick_12">
     <g id="line2d_45">
      <path d="M 654.748599 667.325494 
L 654.748599 370.959204 
" clip-path="url(#p4d69e5fb1b)" style="fill: none; stroke: #b0b0b0; stroke-width: 0.8; stroke-linecap: square"/>
     </g>
     <g id="line2d_46">
      <g>
       <use xlink:href="#ma92064d3cc" x="654.748599" y="667.325494" style="stroke: #000000; stroke-width: 0.8"/>
      </g>
     </g>
     <g id="text_17">
      <!-- 2023 -->
      <g transform="translate(644.883134 707.041778) rotate(-45) scale(0.14 -0.14)">
       <defs>
        <path id="DejaVuSans-33" d="M 2597 2516 
Q 3050 2419 3304 2112 
Q 3559 1806 3559 1356 
Q 3559 666 3084 287 
Q 2609 -91 1734 -91 
Q 1441 -91 1130 -33 
Q 819 25 488 141 
L 488 750 
Q 750 597 1062 519 
Q 1375 441 1716 441 
Q 2309 441 2620 675 
Q 2931 909 2931 1356 
Q 2931 1769 2642 2001 
Q 2353 2234 1838 2234 
L 1294 2234 
L 1294 2753 
L 1863 2753 
Q 2328 2753 2575 2939 
Q 2822 3125 2822 3475 
Q 2822 3834 2567 4026 
Q 2313 4219 1838 4219 
Q 1578 4219 1281 4162 
Q 984 4106 628 3988 
L 628 4550 
Q 988 4650 1302 4700 
Q 1616 4750 1894 4750 
Q 2613 4750 3031 4423 
Q 3450 4097 3450 3541 
Q 3450 3153 3228 2886 
Q 3006 2619 2597 2516 
z
" transform="scale(0.015625)"/>
       </defs>
       <use xlink:href="#DejaVuSans-32"/>
       <use xlink:href="#DejaVuSans-30" transform="translate(63.623047 0)"/>
       <use xlink:href="#DejaVuSans-32" transform="translate(127.246094 0)"/>
       <use xlink:href="#DejaVuSans-33" transform="translate(190.869141 0)"/>
      </g>
     </g>
    </g>
    <g id="xtick_13">
     <g id="line2d_47">
      <path d="M 774.953207 667.325494 
L 774.953207 370.959204 
" clip-path="url(#p4d69e5fb1b)" style="fill: none; stroke: #b0b0b0; stroke-width: 0.8; stroke-linecap: square"/>
     </g>
     <g id="line2d_48">
      <g>
       <use xlink:href="#ma92064d3cc" x="774.953207" y="667.325494" style="stroke: #000000; stroke-width: 0.8"/>
      </g>
     </g>
     <g id="text_18">
      <!-- 2024 -->
      <g transform="translate(765.087741 707.041778) rotate(-45) scale(0.14 -0.14)">
       <use xlink:href="#DejaVuSans-32"/>
       <use xlink:href="#DejaVuSans-30" transform="translate(63.623047 0)"/>
       <use xlink:href="#DejaVuSans-32" transform="translate(127.246094 0)"/>
       <use xlink:href="#DejaVuSans-34" transform="translate(190.869141 0)"/>
      </g>
     </g>
    </g>
    <g id="xtick_14">
     <g id="line2d_49">
      <path d="M 895.487142 667.325494 
L 895.487142 370.959204 
" clip-path="url(#p4d69e5fb1b)" style="fill: none; stroke: #b0b0b0; stroke-width: 0.8; stroke-linecap: square"/>
     </g>
     <g id="line2d_50">
      <g>
       <use xlink:href="#ma92064d3cc" x="895.487142" y="667.325494" style="stroke: #000000; stroke-width: 0.8"/>
      </g>
     </g>
     <g id="text_19">
      <!-- 2025 -->
      <g transform="translate(885.621677 707.041778) rotate(-45) scale(0.14 -0.14)">
       <defs>
        <path id="DejaVuSans-35" d="M 691 4666 
L 3169 4666 
L 3169 4134 
L 1269 4134 
L 1269 2991 
Q 1406 3038 1543 3061 
Q 1681 3084 1819 3084 
Q 2600 3084 3056 2656 
Q 3513 2228 3513 1497 
Q 3513 744 3044 326 
Q 2575 -91 1722 -91 
Q 1428 -91 1123 -41 
Q 819 9 494 109 
L 494 744 
Q 775 591 1075 516 
Q 1375 441 1709 441 
Q 2250 441 2565 725 
Q 2881 1009 2881 1497 
Q 2881 1984 2565 2268 
Q 2250 2553 1709 2553 
Q 1456 2553 1204 2497 
Q 953 2441 691 2322 
L 691 4666 
z
" transform="scale(0.015625)"/>
       </defs>
       <use xlink:href="#DejaVuSans-32"/>
       <use xlink:href="#DejaVuSans-30" transform="translate(63.623047 0)"/>
       <use xlink:href="#DejaVuSans-32" transform="translate(127.246094 0)"/>
       <use xlink:href="#DejaVuSans-35" transform="translate(190.869141 0)"/>
      </g>
     </g>
    </g>
   </g>
   <g id="matplotlib.axis_4">
    <g id="ytick_8">
     <g id="line2d_51">
      <path d="M 70.9 653.87681 
L 997.2 653.87681 
" clip-path="url(#p4d69e5fb1b)" style="fill: none; stroke: #b0b0b0; stroke-width: 0.8; stroke-linecap: square"/>
     </g>
     <g id="line2d_52">
      <g>
       <use xlink:href="#mf08903c4af" x="70.9" y="653.87681" style="stroke: #000000; stroke-width: 0.8"/>
      </g>
     </g>
     <g id="text_20">
      <!-- 0 -->
      <g transform="translate(54.9925 659.195716) scale(0.14 -0.14)">
       <use xlink:href="#DejaVuSans-30"/>
      </g>
     </g>
    </g>
    <g id="ytick_9">
     <g id="line2d_53">
      <path d="M 70.9 618.936024 
L 997.2 618.936024 
" clip-path="url(#p4d69e5fb1b)" style="fill: none; stroke: #b0b0b0; stroke-width: 0.8; stroke-linecap: square"/>
     </g>
     <g id="line2d_54">
      <g>
       <use xlink:href="#mf08903c4af" x="70.9" y="618.936024" style="stroke: #000000; stroke-width: 0.8"/>
      </g>
     </g>
     <g id="text_21">
      <!-- 100000 -->
      <g transform="translate(10.455 624.25493) scale(0.14 -0.14)">
       <use xlink:href="#DejaVuSans-31"/>
       <use xlink:href="#DejaVuSans-30" transform="translate(63.623047 0)"/>
       <use xlink:href="#DejaVuSans-30" transform="translate(127.246094 0)"/>
       <use xlink:href="#DejaVuSans-30" transform="translate(190.869141 0)"/>
       <use xlink:href="#DejaVuSans-30" transform="translate(254.492188 0)"/>
       <use xlink:href="#DejaVuSans-30" transform="translate(318.115234 0)"/>
      </g>
     </g>
    </g>
    <g id="ytick_10">
     <g id="line2d_55">
      <path d="M 70.9 583.995238 
L 997.2 583.995238 
" clip-path="url(#p4d69e5fb1b)" style="fill: none; stroke: #b0b0b0; stroke-width: 0.8; stroke-linecap: square"/>
     </g>
     <g id="line2d_56">
      <g>
       <use xlink:href="#mf08903c4af" x="70.9" y="583.995238" style="stroke: #000000; stroke-width: 0.8"/>
      </g>
     </g>
     <g id="text_22">
      <!-- 200000 -->
      <g transform="translate(10.455 589.314145) scale(0.14 -0.14)">
       <use xlink:href="#DejaVuSans-32"/>
       <use xlink:href="#DejaVuSans-30" transform="translate(63.623047 0)"/>
       <use xlink:href="#DejaVuSans-30" transform="translate(127.246094 0)"/>
       <use xlink:href="#DejaVuSans-30" transform="translate(190.869141 0)"/>
       <use xlink:href="#DejaVuSans-30" transform="translate(254.492188 0)"/>
       <use xlink:href="#DejaVuSans-30" transform="translate(318.115234 0)"/>
      </g>
     </g>
    </g>
    <g id="ytick_11">
     <g id="line2d_57">
      <path d="M 70.9 549.054453 
L 997.2 549.054453 
" clip-path="url(#p4d69e5fb1b)" style="fill: none; stroke: #b0b0b0; stroke-width: 0.8; stroke-linecap: square"/>
     </g>
     <g id="line2d_58">
      <g>
       <use xlink:href="#mf08903c4af" x="70.9" y="549.054453" style="stroke: #000000; stroke-width: 0.8"/>
      </g>
     </g>
     <g id="text_23">
      <!-- 300000 -->
      <g transform="translate(10.455 554.373359) scale(0.14 -0.14)">
       <use xlink:href="#DejaVuSans-33"/>
       <use xlink:href="#DejaVuSans-30" transform="translate(63.623047 0)"/>
       <use xlink:href="#DejaVuSans-30" transform="translate(127.246094 0)"/>
       <use xlink:href="#DejaVuSans-30" transform="translate(190.869141 0)"/>
       <use xlink:href="#DejaVuSans-30" transform="translate(254.492188 0)"/>
       <use xlink:href="#DejaVuSans-30" transform="translate(318.115234 0)"/>
      </g>
     </g>
    </g>
    <g id="ytick_12">
     <g id="line2d_59">
      <path d="M 70.9 514.113667 
L 997.2 514.113667 
" clip-path="url(#p4d69e5fb1b)" style="fill: none; stroke: #b0b0b0; stroke-width: 0.8; stroke-linecap: square"/>
     </g>
     <g id="line2d_60">
      <g>
       <use xlink:href="#mf08903c4af" x="70.9" y="514.113667" style="stroke: #000000; stroke-width: 0.8"/>
      </g>
     </g>
     <g id="text_24">
      <!-- 400000 -->
      <g transform="translate(10.455 519.432573) scale(0.14 -0.14)">
       <use xlink:href="#DejaVuSans-34"/>
       <use xlink:href="#DejaVuSans-30" transform="translate(63.623047 0)"/>
       <use xlink:href="#DejaVuSans-30" transform="translate(127.246094 0)"/>
       <use xlink:href="#DejaVuSans-30" transform="translate(190.869141 0)"/>
       <use xlink:href="#DejaVuSans-30" transform="translate(254.492188 0)"/>
       <use xlink:href="#DejaVuSans-30" transform="translate(318.115234 0)"/>
      </g>
     </g>
    </g>
    <g id="ytick_13">
     <g id="line2d_61">
      <path d="M 70.9 479.172881 
L 997.2 479.172881 
" clip-path="url(#p4d69e5fb1b)" style="fill: none; stroke: #b0b0b0; stroke-width: 0.8; stroke-linecap: square"/>
     </g>
     <g id="line2d_62">
      <g>
       <use xlink:href="#mf08903c4af" x="70.9" y="479.172881" style="stroke: #000000; stroke-width: 0.8"/>
      </g>
     </g>
     <g id="text_25">
      <!-- 500000 -->
      <g transform="translate(10.455 484.491788) scale(0.14 -0.14)">
       <use xlink:href="#DejaVuSans-35"/>
       <use xlink:href="#DejaVuSans-30" transform="translate(63.623047 0)"/>
       <use xlink:href="#DejaVuSans-30" transform="translate(127.246094 0)"/>
       <use xlink:href="#DejaVuSans-30" transform="translate(190.869141 0)"/>
       <use xlink:href="#DejaVuSans-30" transform="translate(254.492188 0)"/>
       <use xlink:href="#DejaVuSans-30" transform="translate(318.115234 0)"/>
      </g>
     </g>
    </g>
    <g id="ytick_14">
     <g id="line2d_63">
      <path d="M 70.9 444.232096 
L 997.2 444.232096 
" clip-path="url(#p4d69e5fb1b)" style="fill: none; stroke: #b0b0b0; stroke-width: 0.8; stroke-linecap: square"/>
     </g>
     <g id="line2d_64">
      <g>
       <use xlink:href="#mf08903c4af" x="70.9" y="444.232096" style="stroke: #000000; stroke-width: 0.8"/>
      </g>
     </g>
     <g id="text_26">
      <!-- 600000 -->
      <g transform="translate(10.455 449.551002) scale(0.14 -0.14)">
       <use xlink:href="#DejaVuSans-36"/>
       <use xlink:href="#DejaVuSans-30" transform="translate(63.623047 0)"/>
       <use xlink:href="#DejaVuSans-30" transform="translate(127.246094 0)"/>
       <use xlink:href="#DejaVuSans-30" transform="translate(190.869141 0)"/>
       <use xlink:href="#DejaVuSans-30" transform="translate(254.492188 0)"/>
       <use xlink:href="#DejaVuSans-30" transform="translate(318.115234 0)"/>
      </g>
     </g>
    </g>
    <g id="ytick_15">
     <g id="line2d_65">
      <path d="M 70.9 409.29131 
L 997.2 409.29131 
" clip-path="url(#p4d69e5fb1b)" style="fill: none; stroke: #b0b0b0; stroke-width: 0.8; stroke-linecap: square"/>
     </g>
     <g id="line2d_66">
      <g>
       <use xlink:href="#mf08903c4af" x="70.9" y="409.29131" style="stroke: #000000; stroke-width: 0.8"/>
      </g>
     </g>
     <g id="text_27">
      <!-- 700000 -->
      <g transform="translate(10.455 414.610216) scale(0.14 -0.14)">
       <defs>
        <path id="DejaVuSans-37" d="M 525 4666 
L 3525 4666 
L 3525 4397 
L 1831 0 
L 1172 0 
L 2766 4134 
L 525 4134 
L 525 4666 
z
" transform="scale(0.015625)"/>
       </defs>
       <use xlink:href="#DejaVuSans-37"/>
       <use xlink:href="#DejaVuSans-30" transform="translate(63.623047 0)"/>
       <use xlink:href="#DejaVuSans-30" transform="translate(127.246094 0)"/>
       <use xlink:href="#DejaVuSans-30" transform="translate(190.869141 0)"/>
       <use xlink:href="#DejaVuSans-30" transform="translate(254.492188 0)"/>
       <use xlink:href="#DejaVuSans-30" transform="translate(318.115234 0)"/>
      </g>
     </g>
    </g>
    <g id="ytick_16">
     <g id="line2d_67">
      <path d="M 70.9 374.350524 
L 997.2 374.350524 
" clip-path="url(#p4d69e5fb1b)" style="fill: none; stroke: #b0b0b0; stroke-width: 0.8; stroke-linecap: square"/>
     </g>
     <g id="line2d_68">
      <g>
       <use xlink:href="#mf08903c4af" x="70.9" y="374.350524" style="stroke: #000000; stroke-width: 0.8"/>
      </g>
     </g>
     <g id="text_28">
      <!-- 800000 -->
      <g transform="translate(10.455 379.66943) scale(0.14 -0.14)">
       <use xlink:href="#DejaVuSans-38"/>
       <use xlink:href="#DejaVuSans-30" transform="translate(63.623047 0)"/>
       <use xlink:href="#DejaVuSans-30" transform="translate(127.246094 0)"/>
       <use xlink:href="#DejaVuSans-30" transform="translate(190.869141 0)"/>
       <use xlink:href="#DejaVuSans-30" transform="translate(254.492188 0)"/>
       <use xlink:href="#DejaVuSans-30" transform="translate(318.115234 0)"/>
      </g>
     </g>
    </g>
   </g>
   <g id="line2d_69">
    <path d="M 113.004545 653.586927 
L 123.213704 653.591571 
L 133.422862 653.601261 
L 143.302693 653.609008 
L 153.511852 653.615526 
L 163.391682 653.59781 
L 173.600841 653.538901 
L 183.809999 653.20899 
L 193.031175 651.932629 
L 203.240333 650.758694 
L 213.120164 650.397576 
L 223.329322 650.197309 
L 233.209153 649.533666 
L 243.418312 648.627026 
L 253.62747 648.980638 
L 263.507301 649.889691 
L 273.716459 649.440168 
L 283.59629 649.254612 
L 293.805449 650.092501 
L 304.014607 650.288916 
L 313.56511 650.227354 
L 323.774268 649.539963 
L 333.654099 649.325516 
L 343.863258 648.983342 
L 353.743088 648.654178 
L 363.952247 648.770401 
L 374.161405 648.989687 
L 384.041236 649.254707 
L 394.250395 649.027225 
L 404.130225 649.229031 
L 414.339384 649.059755 
L 424.548542 649.15068 
L 433.769718 649.096376 
L 443.978876 649.014383 
L 453.858707 649.338199 
L 464.067865 649.22675 
L 473.947696 649.025299 
L 484.156855 648.975362 
L 494.366013 649.051124 
L 504.245844 649.261486 
L 514.455002 649.409474 
L 524.334833 649.467061 
L 534.543992 649.437042 
L 544.75315 649.386531 
L 553.974325 649.449501 
L 564.183484 649.16773 
L 574.063315 649.317667 
L 584.272473 649.178694 
L 594.152304 648.958437 
L 604.361462 649.243819 
L 614.570621 649.318647 
L 624.450452 649.165902 
L 634.65961 649.195567 
L 644.539441 649.544878 
L 654.748599 649.45044 
L 664.957758 649.244992 
L 674.178933 649.250033 
L 684.388092 649.144333 
L 694.267922 649.193148 
L 704.477081 649.24762 
L 714.356912 649.143846 
L 724.56607 649.16749 
L 734.775228 649.242337 
L 744.655059 649.359318 
L 754.864218 649.449409 
L 764.744048 649.437777 
L 774.953207 649.646899 
L 785.162365 647.923172 
L 794.712868 643.637102 
L 804.922027 637.995975 
L 814.801858 639.258293 
L 825.011016 639.179624 
L 834.890847 637.163788 
L 845.100005 637.118294 
L 855.309164 638.00006 
L 865.188995 637.780736 
L 875.398153 637.797255 
L 885.277984 637.36316 
L 895.487142 637.186829 
L 905.696301 637.525786 
L 914.917476 638.420373 
L 925.126635 638.075508 
L 935.006465 637.249747 
L 945.215624 636.753882 
L 955.095455 636.749354 
" clip-path="url(#p4d69e5fb1b)" style="fill: none; stroke: #ff0000; stroke-width: 1.5; stroke-linecap: square"/>
   </g>
   <g id="line2d_70">
    <path d="M 113.004545 653.667642 
L 123.213704 653.741048 
L 133.422862 653.798837 
L 143.302693 653.734383 
L 153.511852 653.342642 
L 163.391682 651.750494 
L 173.600841 643.08862 
L 183.809999 633.581437 
L 193.031175 618.746734 
L 203.240333 603.153495 
L 213.120164 628.865409 
L 223.329322 613.30054 
L 233.209153 614.424019 
L 243.418312 624.722319 
L 253.62747 639.584781 
L 263.507301 649.247529 
L 273.716459 651.541193 
L 283.59629 638.938359 
L 293.805449 653.854299 
L 304.014607 648.27805 
L 313.56511 631.301436 
L 323.774268 623.149205 
L 333.654099 635.896242 
L 343.863258 637.862642 
L 353.743088 641.611893 
L 363.952247 649.120452 
L 374.161405 652.26565 
L 384.041236 652.297427 
L 394.250395 653.372764 
L 404.130225 650.757253 
L 414.339384 651.596903 
L 424.548542 651.492468 
L 433.769718 650.584361 
L 443.978876 653.578481 
L 453.858707 644.50105 
L 464.067865 648.905684 
L 473.947696 650.841291 
L 484.156855 653.051218 
L 494.366013 653.175532 
L 504.245844 653.2586 
L 514.455002 653.825379 
L 524.334833 653.462555 
L 534.543992 652.794262 
L 544.75315 651.961366 
L 553.974325 639.246872 
L 564.183484 641.03796 
L 574.063315 645.60807 
L 584.272473 625.769875 
L 594.152304 651.499762 
L 604.361462 651.254181 
L 614.570621 651.810588 
L 624.450452 653.574698 
L 634.65961 653.833735 
L 644.539441 653.388446 
L 654.748599 650.018149 
L 664.957758 645.145513 
L 674.178933 631.869437 
L 684.388092 640.862134 
L 694.267922 627.873648 
L 704.477081 640.59023 
L 714.356912 650.671046 
L 724.56607 653.131817 
L 734.775228 653.565877 
L 744.655059 652.750297 
L 754.864218 651.062736 
L 764.744048 646.833416 
L 774.953207 594.174058 
L 785.162365 493.572092 
L 794.712868 430.320249 
L 804.922027 527.170941 
L 814.801858 643.473994 
L 825.011016 491.943251 
L 834.890847 534.504105 
L 845.100005 598.958562 
L 855.309164 613.802315 
L 865.188995 615.694204 
L 875.398153 638.55445 
L 885.277984 650.41114 
L 895.487142 650.947261 
L 905.696301 639.125522 
L 914.917476 648.667127 
L 925.126635 581.597136 
L 935.006465 619.771006 
L 945.215624 612.514773 
L 955.095455 638.093283 
" clip-path="url(#p4d69e5fb1b)" style="fill: none; stroke-dasharray: 5.55,2.4; stroke-dashoffset: 0; stroke: #ff0000; stroke-width: 1.5"/>
   </g>
   <g id="line2d_71">
    <path d="M 113.004545 653.622022 
L 123.213704 653.617625 
L 133.422862 653.635521 
L 143.302693 653.64976 
L 153.511852 653.651314 
L 163.391682 653.649942 
L 173.600841 653.576511 
L 183.809999 653.027603 
L 193.031175 652.243228 
L 203.240333 650.313271 
L 213.120164 649.426626 
L 223.329322 649.022379 
L 233.209153 649.642321 
L 243.418312 649.279033 
L 253.62747 649.653269 
L 263.507301 650.348984 
L 273.716459 650.436685 
L 283.59629 650.513021 
L 293.805449 650.519091 
L 304.014607 650.521146 
L 313.56511 650.510535 
L 323.774268 650.269082 
L 333.654099 649.912122 
L 343.863258 649.836914 
L 353.743088 649.918881 
L 363.952247 649.906695 
L 374.161405 650.126089 
L 384.041236 650.030124 
L 394.250395 650.035902 
L 404.130225 650.052563 
L 414.339384 650.192865 
L 424.548542 650.111144 
L 433.769718 650.312757 
L 443.978876 650.273728 
L 453.858707 650.16302 
L 464.067865 650.394663 
L 473.947696 650.462653 
L 484.156855 650.432386 
L 494.366013 650.549383 
L 504.245844 650.44668 
L 514.455002 650.606436 
L 524.334833 650.566751 
L 534.543992 650.489937 
L 544.75315 650.543575 
L 553.974325 650.655959 
L 564.183484 650.711166 
L 574.063315 650.511334 
L 584.272473 650.215871 
L 594.152304 650.243427 
L 604.361462 650.412215 
L 614.570621 650.393574 
L 624.450452 650.333995 
L 634.65961 650.448691 
L 644.539441 650.606192 
L 654.748599 650.494472 
L 664.957758 650.360217 
L 674.178933 650.559945 
L 684.388092 650.60561 
L 694.267922 650.577306 
L 704.477081 650.246339 
L 714.356912 650.276327 
L 724.56607 650.319836 
L 734.775228 650.347861 
L 744.655059 650.438079 
L 754.864218 650.438092 
L 764.744048 650.633458 
L 774.953207 650.525298 
L 785.162365 649.891101 
L 794.712868 645.202793 
L 804.922027 638.772411 
L 814.801858 640.502375 
L 825.011016 641.447908 
L 834.890847 641.08609 
L 845.100005 641.407784 
L 855.309164 641.612875 
L 865.188995 641.763273 
L 875.398153 641.714817 
L 885.277984 641.296998 
L 895.487142 641.548167 
L 905.696301 641.737258 
L 914.917476 642.05423 
L 925.126635 641.915857 
L 935.006465 640.541067 
L 945.215624 640.633448 
L 955.095455 640.95149 
" clip-path="url(#p4d69e5fb1b)" style="fill: none; stroke: #0000ff; stroke-width: 1.5; stroke-linecap: square"/>
   </g>
   <g id="line2d_72">
    <path d="M 113.004545 653.61974 
L 123.213704 653.559607 
L 133.422862 653.81617 
L 143.302693 653.736338 
L 153.511852 653.344061 
L 163.391682 651.747781 
L 173.600841 642.469569 
L 183.809999 635.753978 
L 193.031175 608.675813 
L 203.240333 601.090832 
L 213.120164 632.712247 
L 223.329322 640.134033 
L 233.209153 620.983694 
L 243.418312 636.391878 
L 253.62747 649.492419 
L 263.507301 646.405212 
L 273.716459 650.758544 
L 283.59629 650.85359 
L 293.805449 648.013641 
L 304.014607 651.069283 
L 313.56511 622.277957 
L 323.774268 615.06273 
L 333.654099 636.131751 
L 343.863258 645.382146 
L 353.743088 650.944946 
L 363.952247 652.59203 
L 374.161405 653.17262 
L 384.041236 653.029066 
L 394.250395 653.40707 
L 404.130225 652.720357 
L 414.339384 653.261789 
L 424.548542 650.633931 
L 433.769718 650.03759 
L 443.978876 652.680591 
L 453.858707 646.853345 
L 464.067865 649.014223 
L 473.947696 651.948861 
L 484.156855 653.647287 
L 494.366013 653.764978 
L 504.245844 653.721012 
L 514.455002 653.626428 
L 524.334833 653.275056 
L 534.543992 653.304815 
L 544.75315 652.080647 
L 553.974325 637.818842 
L 564.183484 645.776606 
L 574.063315 632.38286 
L 584.272473 645.949336 
L 594.152304 650.904631 
L 604.361462 652.714816 
L 614.570621 653.613391 
L 624.450452 653.834098 
L 634.65961 653.743553 
L 644.539441 653.269539 
L 654.748599 648.425167 
L 664.957758 647.363991 
L 674.178933 633.411873 
L 684.388092 645.635659 
L 694.267922 619.18358 
L 704.477081 652.708851 
L 714.356912 649.863169 
L 724.56607 653.499914 
L 734.775228 653.483038 
L 744.655059 653.478296 
L 754.864218 653.57256 
L 764.744048 647.972645 
L 774.953207 594.846945 
L 785.162365 490.210616 
L 794.712868 384.430399 
L 804.922027 554.427427 
L 814.801858 608.175555 
L 825.011016 617.683446 
L 834.890847 604.657175 
L 845.100005 636.463678 
L 855.309164 648.856948 
L 865.188995 642.929173 
L 875.398153 650.03492 
L 885.277984 646.741678 
L 895.487142 641.275444 
L 905.696301 606.734674 
L 914.917476 560.684451 
L 925.126635 486.024703 
L 935.006465 609.714718 
L 945.215624 636.829634 
L 955.095455 645.630225 
" clip-path="url(#p4d69e5fb1b)" style="fill: none; stroke-dasharray: 5.55,2.4; stroke-dashoffset: 0; stroke: #0000ff; stroke-width: 1.5"/>
   </g>
   <g id="patch_9">
    <path d="M 70.9 667.325494 
L 70.9 370.959204 
" style="fill: none; stroke: #000000; stroke-width: 0.8; stroke-linejoin: miter; stroke-linecap: square"/>
   </g>
   <g id="patch_10">
    <path d="M 997.2 667.325494 
L 997.2 370.959204 
" style="fill: none; stroke: #000000; stroke-width: 0.8; stroke-linejoin: miter; stroke-linecap: square"/>
   </g>
   <g id="patch_11">
    <path d="M 70.9 667.325494 
L 997.2 667.325494 
" style="fill: none; stroke: #000000; stroke-width: 0.8; stroke-linejoin: miter; stroke-linecap: square"/>
   </g>
   <g id="patch_12">
    <path d="M 70.9 370.959204 
L 997.2 370.959204 
" style="fill: none; stroke: #000000; stroke-width: 0.8; stroke-linejoin: miter; stroke-linecap: square"/>
   </g>
   <g id="text_29">
    <!-- Evolução do RMSE ao longo do tempo -->
    <g transform="translate(325.386875 364.959204) scale(0.22 -0.22)">
     <defs>
      <path id="DejaVuSans-4d" d="M 628 4666 
L 1569 4666 
L 2759 1491 
L 3956 4666 
L 4897 4666 
L 4897 0 
L 4281 0 
L 4281 4097 
L 3078 897 
L 2444 897 
L 1241 4097 
L 1241 0 
L 628 0 
L 628 4666 
z
" transform="scale(0.015625)"/>
      <path id="DejaVuSans-53" d="M 3425 4513 
L 3425 3897 
Q 3066 4069 2747 4153 
Q 2428 4238 2131 4238 
Q 1616 4238 1336 4038 
Q 1056 3838 1056 3469 
Q 1056 3159 1242 3001 
Q 1428 2844 1947 2747 
L 2328 2669 
Q 3034 2534 3370 2195 
Q 3706 1856 3706 1288 
Q 3706 609 3251 259 
Q 2797 -91 1919 -91 
Q 1588 -91 1214 -16 
Q 841 59 441 206 
L 441 856 
Q 825 641 1194 531 
Q 1563 422 1919 422 
Q 2459 422 2753 634 
Q 3047 847 3047 1241 
Q 3047 1584 2836 1778 
Q 2625 1972 2144 2069 
L 1759 2144 
Q 1053 2284 737 2584 
Q 422 2884 422 3419 
Q 422 4038 858 4394 
Q 1294 4750 2059 4750 
Q 2388 4750 2728 4690 
Q 3069 4631 3425 4513 
z
" transform="scale(0.015625)"/>
     </defs>
     <use xlink:href="#DejaVuSans-45"/>
     <use xlink:href="#DejaVuSans-76" transform="translate(63.183594 0)"/>
     <use xlink:href="#DejaVuSans-6f" transform="translate(122.363281 0)"/>
     <use xlink:href="#DejaVuSans-6c" transform="translate(183.544922 0)"/>
     <use xlink:href="#DejaVuSans-75" transform="translate(211.328125 0)"/>
     <use xlink:href="#DejaVuSans-e7" transform="translate(274.707031 0)"/>
     <use xlink:href="#DejaVuSans-e3" transform="translate(329.6875 0)"/>
     <use xlink:href="#DejaVuSans-6f" transform="translate(390.966797 0)"/>
     <use xlink:href="#DejaVuSans-20" transform="translate(452.148438 0)"/>
     <use xlink:href="#DejaVuSans-64" transform="translate(483.935547 0)"/>
     <use xlink:href="#DejaVuSans-6f" transform="translate(547.412109 0)"/>
     <use xlink:href="#DejaVuSans-20" transform="translate(608.59375 0)"/>
     <use xlink:href="#DejaVuSans-52" transform="translate(640.380859 0)"/>
     <use xlink:href="#DejaVuSans-4d" transform="translate(709.863281 0)"/>
     <use xlink:href="#DejaVuSans-53" transform="translate(796.142578 0)"/>
     <use xlink:href="#DejaVuSans-45" transform="translate(859.619141 0)"/>
     <use xlink:href="#DejaVuSans-20" transform="translate(922.802734 0)"/>
     <use xlink:href="#DejaVuSans-61" transform="translate(954.589844 0)"/>
     <use xlink:href="#DejaVuSans-6f" transform="translate(1015.869141 0)"/>
     <use xlink:href="#DejaVuSans-20" transform="translate(1077.050781 0)"/>
     <use xlink:href="#DejaVuSans-6c" transform="translate(1108.837891 0)"/>
     <use xlink:href="#DejaVuSans-6f" transform="translate(1136.621094 0)"/>
     <use xlink:href="#DejaVuSans-6e" transform="translate(1197.802734 0)"/>
     <use xlink:href="#DejaVuSans-67" transform="translate(1261.181641 0)"/>
     <use xlink:href="#DejaVuSans-6f" transform="translate(1324.658203 0)"/>
     <use xlink:href="#DejaVuSans-20" transform="translate(1385.839844 0)"/>
     <use xlink:href="#DejaVuSans-64" transform="translate(1417.626953 0)"/>
     <use xlink:href="#DejaVuSans-6f" transform="translate(1481.103516 0)"/>
     <use xlink:href="#DejaVuSans-20" transform="translate(1542.285156 0)"/>
     <use xlink:href="#DejaVuSans-74" transform="translate(1574.072266 0)"/>
     <use xlink:href="#DejaVuSans-65" transform="translate(1613.28125 0)"/>
     <use xlink:href="#DejaVuSans-6d" transform="translate(1674.804688 0)"/>
     <use xlink:href="#DejaVuSans-70" transform="translate(1772.216797 0)"/>
     <use xlink:href="#DejaVuSans-6f" transform="translate(1835.693359 0)"/>
    </g>
   </g>
   <g id="legend_2">
    <g id="patch_13">
     <path d="M 80.7 464.356704 
L 291.918438 464.356704 
Q 294.718438 464.356704 294.718438 461.556704 
L 294.718438 380.759204 
Q 294.718438 377.959204 291.918438 377.959204 
L 80.7 377.959204 
Q 77.9 377.959204 77.9 380.759204 
L 77.9 461.556704 
Q 77.9 464.356704 80.7 464.356704 
z
" style="fill: #ffffff; opacity: 0.8; stroke: #cccccc; stroke-linejoin: miter"/>
    </g>
    <g id="line2d_73">
     <path d="M 83.5 389.297017 
L 97.5 389.297017 
L 111.5 389.297017 
" style="fill: none; stroke: #ff0000; stroke-width: 1.5; stroke-linecap: square"/>
    </g>
    <g id="text_30">
     <!-- RMSE Treino RF -->
     <g transform="translate(122.7 394.197017) scale(0.14 -0.14)">
      <use xlink:href="#DejaVuSans-52"/>
      <use xlink:href="#DejaVuSans-4d" transform="translate(69.482422 0)"/>
      <use xlink:href="#DejaVuSans-53" transform="translate(155.761719 0)"/>
      <use xlink:href="#DejaVuSans-45" transform="translate(219.238281 0)"/>
      <use xlink:href="#DejaVuSans-20" transform="translate(282.421875 0)"/>
      <use xlink:href="#DejaVuSans-54" transform="translate(314.208984 0)"/>
      <use xlink:href="#DejaVuSans-72" transform="translate(360.542969 0)"/>
      <use xlink:href="#DejaVuSans-65" transform="translate(399.40625 0)"/>
      <use xlink:href="#DejaVuSans-69" transform="translate(460.929688 0)"/>
      <use xlink:href="#DejaVuSans-6e" transform="translate(488.712891 0)"/>
      <use xlink:href="#DejaVuSans-6f" transform="translate(552.091797 0)"/>
      <use xlink:href="#DejaVuSans-20" transform="translate(613.273438 0)"/>
      <use xlink:href="#DejaVuSans-52" transform="translate(645.060547 0)"/>
      <use xlink:href="#DejaVuSans-46" transform="translate(714.542969 0)"/>
     </g>
    </g>
    <g id="line2d_74">
     <path d="M 83.5 409.846392 
L 97.5 409.846392 
L 111.5 409.846392 
" style="fill: none; stroke-dasharray: 5.55,2.4; stroke-dashoffset: 0; stroke: #ff0000; stroke-width: 1.5"/>
    </g>
    <g id="text_31">
     <!-- RMSE Teste RF -->
     <g transform="translate(122.7 414.746392) scale(0.14 -0.14)">
      <use xlink:href="#DejaVuSans-52"/>
      <use xlink:href="#DejaVuSans-4d" transform="translate(69.482422 0)"/>
      <use xlink:href="#DejaVuSans-53" transform="translate(155.761719 0)"/>
      <use xlink:href="#DejaVuSans-45" transform="translate(219.238281 0)"/>
      <use xlink:href="#DejaVuSans-20" transform="translate(282.421875 0)"/>
      <use xlink:href="#DejaVuSans-54" transform="translate(314.208984 0)"/>
      <use xlink:href="#DejaVuSans-65" transform="translate(358.292969 0)"/>
      <use xlink:href="#DejaVuSans-73" transform="translate(419.816406 0)"/>
      <use xlink:href="#DejaVuSans-74" transform="translate(471.916016 0)"/>
      <use xlink:href="#DejaVuSans-65" transform="translate(511.125 0)"/>
      <use xlink:href="#DejaVuSans-20" transform="translate(572.648438 0)"/>
      <use xlink:href="#DejaVuSans-52" transform="translate(604.435547 0)"/>
      <use xlink:href="#DejaVuSans-46" transform="translate(673.917969 0)"/>
     </g>
    </g>
    <g id="line2d_75">
     <path d="M 83.5 430.395767 
L 97.5 430.395767 
L 111.5 430.395767 
" style="fill: none; stroke: #0000ff; stroke-width: 1.5; stroke-linecap: square"/>
    </g>
    <g id="text_32">
     <!-- RMSE Treino Polynomial -->
     <g transform="translate(122.7 435.295767) scale(0.14 -0.14)">
      <use xlink:href="#DejaVuSans-52"/>
      <use xlink:href="#DejaVuSans-4d" transform="translate(69.482422 0)"/>
      <use xlink:href="#DejaVuSans-53" transform="translate(155.761719 0)"/>
      <use xlink:href="#DejaVuSans-45" transform="translate(219.238281 0)"/>
      <use xlink:href="#DejaVuSans-20" transform="translate(282.421875 0)"/>
      <use xlink:href="#DejaVuSans-54" transform="translate(314.208984 0)"/>
      <use xlink:href="#DejaVuSans-72" transform="translate(360.542969 0)"/>
      <use xlink:href="#DejaVuSans-65" transform="translate(399.40625 0)"/>
      <use xlink:href="#DejaVuSans-69" transform="translate(460.929688 0)"/>
      <use xlink:href="#DejaVuSans-6e" transform="translate(488.712891 0)"/>
      <use xlink:href="#DejaVuSans-6f" transform="translate(552.091797 0)"/>
      <use xlink:href="#DejaVuSans-20" transform="translate(613.273438 0)"/>
      <use xlink:href="#DejaVuSans-50" transform="translate(645.060547 0)"/>
      <use xlink:href="#DejaVuSans-6f" transform="translate(701.738281 0)"/>
      <use xlink:href="#DejaVuSans-6c" transform="translate(762.919922 0)"/>
      <use xlink:href="#DejaVuSans-79" transform="translate(790.703125 0)"/>
      <use xlink:href="#DejaVuSans-6e" transform="translate(849.882812 0)"/>
      <use xlink:href="#DejaVuSans-6f" transform="translate(913.261719 0)"/>
      <use xlink:href="#DejaVuSans-6d" transform="translate(974.443359 0)"/>
      <use xlink:href="#DejaVuSans-69" transform="translate(1071.855469 0)"/>
      <use xlink:href="#DejaVuSans-61" transform="translate(1099.638672 0)"/>
      <use xlink:href="#DejaVuSans-6c" transform="translate(1160.917969 0)"/>
     </g>
    </g>
    <g id="line2d_76">
     <path d="M 83.5 450.945142 
L 97.5 450.945142 
L 111.5 450.945142 
" style="fill: none; stroke-dasharray: 5.55,2.4; stroke-dashoffset: 0; stroke: #0000ff; stroke-width: 1.5"/>
    </g>
    <g id="text_33">
     <!-- RMSE Teste Polynomial -->
     <g transform="translate(122.7 455.845142) scale(0.14 -0.14)">
      <use xlink:href="#DejaVuSans-52"/>
      <use xlink:href="#DejaVuSans-4d" transform="translate(69.482422 0)"/>
      <use xlink:href="#DejaVuSans-53" transform="translate(155.761719 0)"/>
      <use xlink:href="#DejaVuSans-45" transform="translate(219.238281 0)"/>
      <use xlink:href="#DejaVuSans-20" transform="translate(282.421875 0)"/>
      <use xlink:href="#DejaVuSans-54" transform="translate(314.208984 0)"/>
      <use xlink:href="#DejaVuSans-65" transform="translate(358.292969 0)"/>
      <use xlink:href="#DejaVuSans-73" transform="translate(419.816406 0)"/>
      <use xlink:href="#DejaVuSans-74" transform="translate(471.916016 0)"/>
      <use xlink:href="#DejaVuSans-65" transform="translate(511.125 0)"/>
      <use xlink:href="#DejaVuSans-20" transform="translate(572.648438 0)"/>
      <use xlink:href="#DejaVuSans-50" transform="translate(604.435547 0)"/>
      <use xlink:href="#DejaVuSans-6f" transform="translate(661.113281 0)"/>
      <use xlink:href="#DejaVuSans-6c" transform="translate(722.294922 0)"/>
      <use xlink:href="#DejaVuSans-79" transform="translate(750.078125 0)"/>
      <use xlink:href="#DejaVuSans-6e" transform="translate(809.257812 0)"/>
      <use xlink:href="#DejaVuSans-6f" transform="translate(872.636719 0)"/>
      <use xlink:href="#DejaVuSans-6d" transform="translate(933.818359 0)"/>
      <use xlink:href="#DejaVuSans-69" transform="translate(1031.230469 0)"/>
      <use xlink:href="#DejaVuSans-61" transform="translate(1059.013672 0)"/>
      <use xlink:href="#DejaVuSans-6c" transform="translate(1120.292969 0)"/>
     </g>
    </g>
   </g>
  </g>
 </g>
 <defs>
  <clipPath id="p05cbf629d3">
   <rect x="70.9" y="34.305" width="926.3" height="296.366289"/>
  </clipPath>
  <clipPath id="p4d69e5fb1b">
   <rect x="70.9" y="370.959204" width="926.3" height="296.366289"/>
  </clipPath>
 </defs>
</svg>
